<svg xmlns="http://www.w3.org/2000/svg" width="30" viewBox="0 0 30 30" height="30" version="1.0"><defs><clipPath id="a"><path d="M 0.484375 0 L 29.515625 0 L 29.515625 29 L 0.484375 29 Z M 0.484375 0"/></clipPath></defs><g clip-path="url(#a)"><path fill="#CF53E4" d="M 18.023438 28.925781 C 17.886719 28.925781 17.753906 28.878906 17.644531 28.792969 C 17.503906 28.679688 17.417969 28.503906 17.417969 28.320312 L 17.417969 23.820312 C 17.417969 22.734375 17.28125 21.960938 16.980469 21.394531 C 16.890625 21.230469 16.886719 21.03125 16.964844 20.863281 C 17.042969 20.691406 17.195312 20.566406 17.378906 20.523438 C 20.964844 19.695312 23.46875 17.074219 23.46875 14.144531 C 23.46875 12.691406 22.871094 11.308594 21.742188 10.136719 C 21.570312 9.957031 21.523438 9.691406 21.628906 9.460938 C 22.082031 8.492188 21.984375 7.171875 21.453125 6.378906 C 20.746094 6.65625 19.832031 7.230469 19.234375 7.9375 C 19.074219 8.132812 18.804688 8.203125 18.566406 8.117188 C 16.296875 7.285156 13.703125 7.285156 11.4375 8.117188 C 11.199219 8.203125 10.929688 8.132812 10.765625 7.9375 C 10.171875 7.234375 9.253906 6.65625 8.546875 6.378906 C 8.015625 7.171875 7.917969 8.492188 8.371094 9.464844 C 8.476562 9.691406 8.429688 9.957031 8.257812 10.136719 C 7.128906 11.308594 6.53125 12.691406 6.53125 14.144531 C 6.53125 16.933594 8.785156 19.449219 12.140625 20.398438 C 12.402344 20.472656 12.582031 20.710938 12.582031 20.980469 L 12.582031 21.402344 C 12.582031 22.160156 12.277344 22.585938 12.023438 22.8125 C 11.476562 23.292969 10.769531 23.222656 10.691406 23.210938 C 10.6875 23.210938 10.683594 23.210938 10.679688 23.210938 C 9.683594 23.210938 8.933594 22.65625 8.207031 22.121094 C 7.84375 21.851562 7.472656 21.574219 7.046875 21.347656 C 7.136719 21.472656 7.230469 21.605469 7.324219 21.734375 C 8.230469 22.996094 9.257812 24.425781 10.765625 24.425781 L 11.976562 24.425781 C 12.3125 24.425781 12.582031 24.695312 12.582031 25.03125 L 12.582031 28.320312 C 12.582031 28.503906 12.5 28.679688 12.355469 28.792969 C 12.210938 28.90625 12.027344 28.949219 11.847656 28.910156 C 5.261719 27.449219 0.484375 21.496094 0.484375 14.75 C 0.484375 6.742188 6.996094 0.230469 15 0.230469 C 23.003906 0.230469 29.515625 6.742188 29.515625 14.75 C 29.515625 21.492188 24.738281 27.449219 18.15625 28.910156 C 18.109375 28.921875 18.066406 28.925781 18.023438 28.925781 Z M 18.335938 21.519531 C 18.535156 22.148438 18.628906 22.898438 18.628906 23.820312 L 18.628906 27.542969 C 24.28125 25.941406 28.304688 20.675781 28.304688 14.75 C 28.304688 7.410156 22.335938 1.441406 15 1.441406 C 7.664062 1.441406 1.695312 7.410156 1.695312 14.75 C 1.695312 20.675781 5.71875 25.941406 11.371094 27.542969 L 11.371094 25.636719 L 10.765625 25.636719 C 8.636719 25.636719 7.363281 23.863281 6.339844 22.4375 C 5.761719 21.632812 5.160156 20.796875 4.71875 20.796875 C 4.382812 20.796875 4.113281 20.527344 4.113281 20.191406 C 4.113281 19.859375 4.382812 19.585938 4.71875 19.585938 C 6.824219 19.585938 7.988281 20.453125 8.925781 21.148438 C 9.574219 21.628906 10.085938 22.007812 10.765625 22.007812 C 10.832031 22.011719 11.085938 22.027344 11.222656 21.902344 C 11.339844 21.796875 11.367188 21.589844 11.371094 21.429688 C 7.734375 20.234375 5.324219 17.355469 5.324219 14.144531 C 5.324219 12.496094 5.941406 10.925781 7.117188 9.589844 C 6.597656 8.085938 6.917969 6.25 7.917969 5.25 C 8.070312 5.097656 8.289062 5.035156 8.5 5.089844 C 9.308594 5.304688 10.507812 5.933594 11.40625 6.847656 C 13.710938 6.09375 16.285156 6.09375 18.589844 6.847656 C 19.488281 5.933594 20.6875 5.304688 21.496094 5.089844 C 21.707031 5.035156 21.925781 5.09375 22.078125 5.25 C 23.078125 6.25 23.398438 8.085938 22.878906 9.589844 C 24.058594 10.925781 24.675781 12.496094 24.675781 14.144531 C 24.675781 17.445312 22.105469 20.398438 18.335938 21.519531 Z M 18.335938 21.519531"/></g></svg>