<svg xmlns="http://www.w3.org/2000/svg" width="262.5" viewBox="0 0 262.5 90" height="90" version="1.0"><defs><clipPath id="a"><path d="M 101.101562 11.566406 L 161.320312 11.566406 L 161.320312 65.160156 L 101.101562 65.160156 Z M 101.101562 11.566406"/></clipPath><clipPath id="b"><path d="M 155 49 L 162.15625 49 L 162.15625 57 L 155 57 Z M 155 49"/></clipPath><clipPath id="c"><path d="M 157 49 L 162.15625 49 L 162.15625 53 L 157 53 Z M 157 49"/></clipPath><clipPath id="d"><path d="M 131 6.738281 L 132 6.738281 L 132 9 L 131 9 Z M 131 6.738281"/></clipPath><clipPath id="e"><path d="M 100.65625 64.082031 L 161.765625 64.082031 L 161.765625 65.160156 L 100.65625 65.160156 Z M 100.65625 64.082031"/></clipPath></defs><g clip-path="url(#a)"><path fill="#E5F1FF" d="M 113.757812 65.160156 C 113.265625 64.816406 112.785156 64.457031 112.316406 64.085938 C 105.480469 58.675781 101.109375 50.390625 101.109375 41.105469 C 101.109375 24.800781 114.585938 11.585938 131.210938 11.585938 C 147.835938 11.585938 161.3125 24.800781 161.3125 41.105469 C 161.3125 50.390625 156.9375 58.675781 150.101562 64.085938 C 149.632812 64.457031 149.152344 64.816406 148.660156 65.160156 L 113.757812 65.160156"/></g><path fill="#1E0D17" d="M 142.890625 32.652344 C 142.890625 32.644531 142.886719 32.640625 142.886719 32.632812 C 142.867188 32.542969 142.898438 32.453125 142.925781 32.367188 C 142.976562 32.214844 143.027344 32.0625 143.078125 31.910156 C 143.113281 31.800781 143.148438 31.6875 143.121094 31.574219 C 143.082031 31.421875 142.929688 31.324219 142.785156 31.253906 C 142.625 31.171875 142.460938 31.105469 142.289062 31.054688 C 142.1875 31.023438 141.867188 31.003906 141.8125 30.914062 C 141.726562 30.769531 141.957031 30.460938 141.980469 30.3125 C 142.023438 30.074219 141.984375 29.832031 141.875 29.613281 C 141.667969 29.214844 141.214844 28.964844 140.777344 29.011719 C 141.019531 28.496094 140.992188 27.855469 140.707031 27.363281 C 140.417969 26.871094 139.882812 26.546875 139.332031 26.53125 C 139.152344 26.527344 138.957031 26.542969 138.824219 26.425781 C 138.628906 26.261719 138.6875 25.945312 138.652344 25.683594 C 138.59375 25.234375 138.207031 24.886719 137.789062 24.75 C 137.371094 24.613281 136.921875 24.644531 136.484375 24.679688 C 136.390625 24.125 135.960938 23.652344 135.4375 23.515625 C 134.910156 23.382812 134.320312 23.597656 133.988281 24.042969 C 133.894531 23.695312 133.558594 23.4375 133.210938 23.441406 C 132.867188 23.445312 132.535156 23.710938 132.449219 24.058594 C 132.234375 23.554688 131.746094 23.191406 131.21875 23.140625 C 130.6875 23.089844 130.144531 23.359375 129.84375 23.816406 C 129.933594 23.675781 128.453125 23.539062 128.324219 23.5625 C 127.804688 23.652344 127.40625 23.921875 127.011719 24.265625 C 126.617188 23.84375 125.914062 23.847656 125.453125 24.1875 C 124.988281 24.527344 124.75 25.125 124.722656 25.714844 C 123.796875 25.683594 122.898438 26.40625 122.699219 27.347656 C 122.371094 27.160156 121.9375 27.265625 121.675781 27.535156 C 121.410156 27.808594 121.296875 28.210938 121.3125 28.597656 C 121.316406 28.730469 121.332031 28.871094 121.257812 28.984375 C 121.191406 29.089844 121.0625 29.128906 120.949219 29.179688 C 120.140625 29.535156 119.816406 30.742188 120.335938 31.480469 C 119.554688 32.105469 119.261719 33.296875 119.648438 34.234375 C 119.710938 34.378906 119.785156 34.523438 119.789062 34.679688 C 119.792969 34.851562 119.710938 35.011719 119.648438 35.175781 C 119.375 35.90625 119.589844 36.808594 120.164062 37.320312 C 119.921875 37.78125 119.714844 38.289062 119.75 38.8125 C 119.785156 39.335938 120.128906 39.867188 120.625 39.953125 C 120.601562 40.371094 120.617188 40.808594 120.800781 41.179688 C 120.988281 41.546875 121.390625 41.832031 121.785156 41.742188 C 121.890625 42.46875 122.441406 43.101562 123.125 43.292969 C 123.265625 43.332031 123.417969 43.355469 123.535156 43.449219 C 123.652344 43.546875 123.714844 43.695312 123.789062 43.828125 C 124.273438 44.683594 125.582031 44.847656 126.246094 44.132812 C 126.476562 44.574219 127.074219 44.617188 127.542969 44.496094 C 128.011719 44.375 128.484375 44.148438 128.957031 44.261719 C 129.296875 44.34375 129.601562 44.601562 129.949219 44.589844 C 130.160156 44.585938 130.355469 44.488281 130.5625 44.445312 C 130.992188 44.363281 131.320312 44.800781 131.753906 44.839844 C 132.214844 44.875 132.648438 44.605469 133.074219 44.46875 C 133.601562 44.296875 134.148438 44.382812 134.683594 44.472656 C 135.144531 44.546875 135.605469 44.746094 136.03125 44.441406 C 136.324219 44.230469 136.511719 43.859375 136.847656 43.75 C 137.242188 43.625 137.640625 43.910156 138.046875 43.964844 C 138.890625 44.082031 140.097656 43.15625 140.320312 42.324219 C 140.425781 41.917969 140.367188 41.453125 140.613281 41.121094 C 140.976562 40.625 141.855469 40.652344 142.035156 40.058594 C 142.152344 39.65625 141.855469 39.15625 142.101562 38.820312 C 142.210938 38.671875 142.398438 38.609375 142.550781 38.503906 C 142.886719 38.277344 143.046875 37.835938 143.046875 37.421875 C 143.042969 37.074219 142.867188 36.785156 142.835938 36.457031 C 142.800781 36.082031 142.960938 36.132812 143.25 35.890625 C 143.664062 35.546875 143.941406 35.066406 143.960938 34.511719 C 143.972656 34.15625 143.875 33.816406 143.6875 33.519531 C 143.578125 33.34375 143.429688 33.191406 143.273438 33.050781 C 143.148438 32.933594 142.9375 32.824219 142.890625 32.652344"/><path fill="#C66F44" d="M 144.335938 54.097656 L 145.335938 60.839844 C 145.4375 61.53125 145.046875 62.203125 144.394531 62.449219 L 140.199219 64.039062 L 139.21875 60.910156 L 141.375 59.621094 L 140.703125 53.667969 L 144.335938 54.097656"/><path fill="#9D4D2E" d="M 131.007812 42.773438 C 131.375 43.019531 131.84375 43.019531 132.210938 42.773438 C 132.371094 42.664062 132.554688 42.601562 132.746094 42.589844 C 132.953125 42.574219 133.160156 42.542969 133.359375 42.5 L 133.460938 40.988281 L 129.855469 41.015625 L 129.988281 42.527344 C 130.148438 42.554688 130.308594 42.578125 130.472656 42.589844 C 130.664062 42.601562 130.847656 42.664062 131.007812 42.773438"/><path fill="#C66F44" d="M 133.316406 43.136719 L 133.359375 42.5 C 133.160156 42.542969 132.953125 42.574219 132.746094 42.589844 C 132.554688 42.601562 132.371094 42.664062 132.210938 42.773438 C 131.847656 43.019531 131.375 43.019531 131.007812 42.773438 C 130.847656 42.664062 130.664062 42.601562 130.472656 42.589844 C 130.308594 42.578125 130.148438 42.554688 129.988281 42.527344 L 130.058594 43.308594 C 130.097656 43.753906 129.832031 44.1875 129.402344 44.382812 C 128.652344 44.726562 127.636719 45.167969 126.945312 45.390625 C 125.742188 45.777344 132.984375 47.445312 135.890625 45.390625 L 136.019531 45.125 C 136.019531 45.125 134.988281 44.734375 134.121094 44.378906 C 133.601562 44.164062 133.277344 43.667969 133.316406 43.136719"/><path fill="#C66F44" d="M 132.257812 42.320312 C 131.890625 42.585938 131.417969 42.585938 131.054688 42.320312 C 130.894531 42.207031 130.710938 42.140625 130.519531 42.125 C 128.285156 41.964844 126.503906 39.886719 126.503906 37.367188 L 126.503906 35.648438 C 126.503906 33.027344 128.4375 30.878906 130.796875 30.878906 L 132.515625 30.878906 C 134.875 30.878906 136.808594 33.027344 136.808594 35.648438 L 136.808594 37.367188 C 136.808594 39.886719 135.023438 41.964844 132.792969 42.125 C 132.601562 42.140625 132.417969 42.207031 132.257812 42.320312"/><path fill="#9D4D2E" d="M 131.675781 36.203125 C 131.960938 36.820312 132.097656 37.800781 132.132812 38.089844 C 132.140625 38.140625 132.109375 38.1875 132.0625 38.203125 C 131.882812 38.261719 131.441406 38.289062 131.175781 38.324219 C 131.175781 38.324219 131.898438 37.996094 131.851562 37.882812 L 131.675781 36.203125"/><path fill="#E46B61" d="M 134.617188 38.726562 C 133.960938 38.726562 133.433594 38.378906 133.433594 37.953125 C 133.433594 37.523438 133.960938 37.175781 134.617188 37.175781 C 135.269531 37.175781 135.800781 37.523438 135.800781 37.953125 C 135.800781 38.378906 135.269531 38.726562 134.617188 38.726562"/><path fill="#E46B61" d="M 128.695312 38.726562 C 128.042969 38.726562 127.511719 38.378906 127.511719 37.953125 C 127.511719 37.523438 128.042969 37.175781 128.695312 37.175781 C 129.347656 37.175781 129.878906 37.523438 129.878906 37.953125 C 129.878906 38.378906 129.347656 38.726562 128.695312 38.726562"/><path fill="#9D4D2E" d="M 129.464844 33.480469 C 129.035156 33.8125 128.585938 34.121094 128.148438 34.460938 C 127.441406 35.007812 126.8125 35.28125 126.273438 35.996094 C 126.308594 35.949219 126.238281 35.792969 126.222656 35.703125 C 126.171875 35.445312 126.140625 35.183594 126.128906 34.921875 C 126.109375 34.398438 126.175781 33.871094 126.316406 33.367188 C 126.597656 32.359375 127.191406 31.425781 128.09375 30.871094 C 128.441406 30.660156 128.824219 30.507812 129.222656 30.414062 C 129.949219 30.238281 130.714844 30.257812 131.453125 30.382812 C 131.667969 30.417969 131.929688 30.515625 131.949219 30.730469 C 131.964844 30.917969 131.8125 31.023438 131.703125 31.144531 C 131.585938 31.273438 131.761719 31.21875 131.664062 31.363281 C 131.457031 31.667969 130.816406 32.121094 130.585938 32.410156 C 130.25 32.824219 129.867188 33.164062 129.464844 33.480469"/><path fill="#9D4D2E" d="M 135.105469 30.257812 C 136.128906 30.796875 136.71875 31.945312 136.871094 33.089844 C 137.023438 34.222656 137.113281 34.878906 136.882812 36 C 136.882812 36.011719 136.847656 35.980469 136.839844 35.972656 C 136.722656 35.8125 136.546875 35.726562 136.414062 35.589844 C 136.144531 35.320312 135.902344 35.019531 135.632812 34.738281 C 134.453125 33.496094 133.15625 32.40625 131.640625 31.53125 C 131.59375 31.503906 131.542969 31.472656 131.519531 31.425781 C 131.492188 31.367188 131.507812 31.292969 131.523438 31.230469 C 131.585938 30.988281 131.601562 30.539062 131.773438 30.339844 C 131.976562 30.109375 132.515625 30.050781 132.796875 30 C 133.570312 29.855469 134.402344 29.882812 135.105469 30.257812"/><path d="M 133.167969 34.742188 C 134.164062 34.496094 135.191406 34.351562 136.234375 34.316406 C 136.238281 34.328125 135.800781 33.769531 134.511719 33.945312 C 134.121094 34 133.792969 34.023438 133.527344 34.046875 C 133.34375 34.242188 133.21875 34.484375 133.167969 34.742188"/><path d="M 133.035156 34.773438 C 133.058594 34.769531 133.078125 34.761719 133.101562 34.757812 C 133.164062 34.488281 133.304688 34.238281 133.503906 34.050781 C 133.40625 34.058594 133.316406 34.070312 133.238281 34.082031 C 133.183594 34.15625 133.140625 34.242188 133.113281 34.328125 C 133.0625 34.472656 133.042969 34.621094 133.035156 34.773438"/><path d="M 133.09375 34.320312 C 133.125 34.238281 133.171875 34.15625 133.226562 34.085938 C 132.851562 34.152344 132.699219 34.285156 132.816406 34.761719 C 132.824219 34.796875 132.859375 34.820312 132.894531 34.8125 C 132.929688 34.800781 132.964844 34.792969 133 34.78125 C 133.011719 34.625 133.035156 34.46875 133.09375 34.320312"/><path d="M 130.164062 34.761719 C 129.164062 34.5 128.128906 34.335938 127.078125 34.28125 C 127.070312 34.289062 127.523438 33.742188 128.820312 33.9375 C 129.214844 34.003906 129.546875 34.03125 129.816406 34.0625 C 129.996094 34.257812 130.117188 34.503906 130.164062 34.761719"/><path d="M 130.296875 34.796875 C 130.273438 34.792969 130.253906 34.785156 130.230469 34.78125 C 130.171875 34.507812 130.035156 34.257812 129.839844 34.0625 C 129.9375 34.074219 130.023438 34.085938 130.101562 34.101562 C 130.15625 34.179688 130.199219 34.261719 130.226562 34.351562 C 130.277344 34.496094 130.292969 34.644531 130.296875 34.796875"/><path d="M 130.246094 34.34375 C 130.214844 34.257812 130.171875 34.175781 130.117188 34.105469 C 130.492188 34.179688 130.644531 34.316406 130.515625 34.792969 C 130.507812 34.828125 130.472656 34.847656 130.4375 34.839844 C 130.402344 34.828125 130.367188 34.816406 130.332031 34.808594 C 130.324219 34.652344 130.300781 34.492188 130.246094 34.34375"/><path fill="#7CB6E9" d="M 144.65625 52.679688 C 144.578125 52.433594 144.496094 52.191406 144.421875 51.957031 C 144.160156 51.105469 143.863281 50.265625 143.480469 49.464844 C 142.773438 47.988281 141.761719 46.652344 140.328125 45.832031 C 138.5625 44.824219 136.445312 44.816406 134.402344 44.488281 C 131.269531 46.164062 129.066406 44.515625 129.066406 44.515625 C 126.148438 44.566406 123.660156 45.261719 121.53125 47.382812 C 121.035156 47.875 120.554688 48.597656 120.238281 49.167969 C 119.296875 50.886719 118.636719 52.84375 118.523438 54.84375 L 123.09375 54.761719 L 124.027344 64.109375 L 139.121094 64.109375 L 140.035156 54.785156 C 140.695312 54.785156 142.203125 54.785156 142.863281 54.785156 L 145.027344 54.738281 C 145.101562 54.660156 145.039062 54.519531 145.027344 54.3125 C 144.996094 53.773438 144.832031 53.21875 144.65625 52.679688"/><path fill="#FFF" d="M 128.042969 35.839844 C 128.042969 35.863281 128.089844 35.953125 128.097656 35.976562 C 128.125 36.042969 128.160156 36.078125 128.207031 36.136719 C 128.351562 36.332031 128.558594 36.457031 128.796875 36.488281 C 129.253906 36.546875 129.769531 36.460938 130.144531 36.203125 C 130.152344 36.195312 130.355469 36.109375 130.359375 36.109375 L 129.710938 35.800781 L 129.28125 35.570312 L 128.582031 35.542969 L 128.042969 35.8125 L 128.042969 35.839844"/><path fill="#752F00" d="M 129.519531 36.027344 C 129.519531 36.289062 129.296875 36.503906 129.019531 36.503906 C 128.742188 36.503906 128.515625 36.289062 128.515625 36.027344 C 128.515625 35.761719 128.742188 35.546875 129.019531 35.546875 C 129.296875 35.546875 129.519531 35.761719 129.519531 36.027344"/><path d="M 129.277344 36.027344 C 129.277344 36.160156 129.160156 36.273438 129.019531 36.273438 C 128.875 36.273438 128.761719 36.160156 128.761719 36.027344 C 128.761719 35.890625 128.875 35.78125 129.019531 35.78125 C 129.160156 35.78125 129.277344 35.890625 129.277344 36.027344"/><path fill="#FFF" d="M 129.007812 35.84375 C 129.007812 35.90625 128.953125 35.957031 128.890625 35.957031 C 128.828125 35.957031 128.773438 35.90625 128.773438 35.84375 C 128.773438 35.785156 128.828125 35.734375 128.890625 35.734375 C 128.953125 35.734375 129.007812 35.785156 129.007812 35.84375"/><path d="M 128.027344 35.835938 C 127.855469 35.785156 127.714844 35.789062 127.585938 35.703125 C 127.675781 35.648438 127.773438 35.601562 127.871094 35.554688 C 128.082031 35.460938 128.300781 35.382812 128.527344 35.34375 C 128.664062 35.320312 128.800781 35.3125 128.9375 35.328125 C 129.175781 35.351562 129.417969 35.398438 129.632812 35.507812 C 129.816406 35.597656 129.980469 35.71875 130.132812 35.855469 C 130.21875 35.9375 130.300781 36.019531 130.371094 36.113281 C 130.375 36.117188 130.378906 36.125 130.382812 36.128906 C 129.855469 35.851562 129.359375 35.625 128.988281 35.597656 C 128.507812 35.5625 128.199219 35.777344 128.042969 35.839844"/><path fill="#FFF" d="M 135.265625 35.839844 C 135.269531 35.863281 135.21875 35.953125 135.210938 35.976562 C 135.183594 36.042969 135.148438 36.078125 135.105469 36.136719 C 134.960938 36.332031 134.753906 36.457031 134.511719 36.488281 C 134.054688 36.546875 133.539062 36.460938 133.167969 36.199219 C 133.160156 36.195312 132.957031 36.109375 132.953125 36.109375 L 133.601562 35.800781 L 134.027344 35.570312 L 134.726562 35.542969 L 135.265625 35.8125 L 135.265625 35.839844"/><path fill="#752F00" d="M 133.726562 36.027344 C 133.726562 36.289062 133.949219 36.503906 134.226562 36.503906 C 134.503906 36.503906 134.730469 36.289062 134.730469 36.027344 C 134.730469 35.761719 134.503906 35.546875 134.226562 35.546875 C 133.949219 35.546875 133.726562 35.761719 133.726562 36.027344"/><path d="M 133.96875 36.027344 C 133.96875 36.160156 134.085938 36.273438 134.226562 36.273438 C 134.371094 36.273438 134.484375 36.160156 134.484375 36.027344 C 134.484375 35.890625 134.371094 35.78125 134.226562 35.78125 C 134.085938 35.78125 133.96875 35.890625 133.96875 36.027344"/><path fill="#FFF" d="M 134.238281 35.847656 C 134.238281 35.90625 134.292969 35.957031 134.355469 35.957031 C 134.421875 35.957031 134.472656 35.90625 134.472656 35.847656 C 134.472656 35.785156 134.421875 35.734375 134.355469 35.734375 C 134.292969 35.734375 134.238281 35.785156 134.238281 35.847656"/><path d="M 135.28125 35.835938 C 135.453125 35.785156 135.597656 35.789062 135.722656 35.703125 C 135.632812 35.648438 135.535156 35.601562 135.441406 35.554688 C 135.230469 35.460938 135.007812 35.382812 134.78125 35.34375 C 134.644531 35.320312 134.511719 35.3125 134.371094 35.328125 C 134.136719 35.351562 133.890625 35.398438 133.675781 35.507812 C 133.496094 35.597656 133.328125 35.71875 133.179688 35.855469 C 133.09375 35.9375 133.011719 36.023438 132.9375 36.113281 C 132.933594 36.117188 132.929688 36.125 132.925781 36.128906 C 133.457031 35.851562 133.953125 35.625 134.324219 35.597656 C 134.800781 35.5625 135.113281 35.777344 135.265625 35.839844"/><path fill="#FFF" d="M 131.820312 41.320312 L 131.488281 41.320312 C 130.777344 41.320312 130.148438 40.839844 129.960938 40.152344 C 129.929688 40.046875 130.007812 39.941406 130.121094 39.941406 L 133.191406 39.941406 C 133.300781 39.941406 133.382812 40.046875 133.351562 40.152344 C 133.160156 40.839844 132.535156 41.320312 131.820312 41.320312"/><path fill="#C66F44" d="M 120.789062 44 L 120.601562 43.105469 L 120.964844 41.546875 L 121.066406 40.710938 C 121.121094 40.277344 121.121094 39.835938 121.078125 39.398438 L 120.667969 35.449219 C 120.664062 35.242188 120.484375 35.085938 120.28125 35.109375 C 120.109375 35.128906 119.980469 35.28125 119.972656 35.453125 L 119.953125 36.089844 C 119.941406 36.492188 119.929688 36.894531 119.914062 37.296875 C 119.910156 37.433594 119.90625 37.574219 119.902344 37.710938 C 119.898438 37.78125 119.90625 37.863281 119.894531 37.933594 C 119.894531 37.941406 119.886719 37.945312 119.882812 37.945312 C 119.828125 37.933594 119.78125 37.898438 119.726562 37.886719 C 119.664062 37.867188 119.597656 37.867188 119.535156 37.871094 C 119.398438 37.875 119.265625 37.90625 119.140625 37.960938 C 119.070312 37.992188 119.042969 38.035156 119.003906 38.089844 C 118.996094 38.097656 118.988281 38.097656 118.984375 38.089844 C 118.835938 37.9375 118.539062 37.960938 118.355469 37.988281 C 118.242188 38.003906 118.132812 38.039062 118.042969 38.101562 C 118 38.128906 117.960938 38.167969 117.945312 38.21875 C 117.941406 38.226562 117.929688 38.226562 117.925781 38.222656 C 117.902344 38.199219 117.863281 38.179688 117.847656 38.171875 C 117.808594 38.15625 117.765625 38.148438 117.722656 38.144531 C 117.625 38.136719 117.511719 38.152344 117.421875 38.175781 C 117.195312 38.230469 117.023438 38.414062 117.074219 38.660156 L 117.078125 38.914062 C 117.09375 39.992188 117.277344 41.0625 117.625 42.082031 C 117.644531 42.128906 117.660156 42.175781 117.675781 42.222656 L 118.023438 42.894531 L 118.253906 43.4375 L 118.746094 61.730469 C 118.769531 62.441406 119.074219 63.121094 119.609375 63.589844 C 121.484375 65.234375 124.316406 62.875 124.316406 62.875 L 120.789062 44"/><path fill="#9D4D2E" d="M 118.046875 38.878906 L 118.070312 38.972656 L 118.09375 39.070312 L 118.136719 39.261719 C 118.164062 39.390625 118.191406 39.519531 118.210938 39.648438 C 118.234375 39.777344 118.253906 39.90625 118.269531 40.035156 C 118.277344 40.101562 118.285156 40.167969 118.289062 40.234375 C 118.292969 40.300781 118.296875 40.363281 118.300781 40.429688 C 118.304688 40.496094 118.304688 40.5625 118.300781 40.632812 C 118.296875 40.664062 118.296875 40.699219 118.292969 40.734375 C 118.289062 40.75 118.285156 40.769531 118.285156 40.785156 C 118.28125 40.804688 118.277344 40.824219 118.273438 40.839844 C 118.261719 40.871094 118.25 40.910156 118.230469 40.945312 C 118.214844 40.976562 118.1875 41.011719 118.152344 41.039062 C 118.085938 41.085938 118.003906 41.105469 117.925781 41.09375 C 117.886719 41.089844 117.851562 41.078125 117.816406 41.054688 C 117.78125 41.03125 117.757812 41.003906 117.734375 40.976562 C 117.691406 40.921875 117.65625 40.863281 117.628906 40.804688 C 117.597656 40.742188 117.574219 40.683594 117.550781 40.621094 C 117.539062 40.589844 117.527344 40.558594 117.519531 40.527344 C 117.507812 40.496094 117.5 40.464844 117.492188 40.433594 L 117.496094 40.429688 C 117.546875 40.550781 117.597656 40.671875 117.664062 40.785156 C 117.695312 40.839844 117.730469 40.894531 117.773438 40.945312 C 117.792969 40.96875 117.816406 40.992188 117.84375 41.007812 C 117.871094 41.023438 117.902344 41.035156 117.933594 41.035156 C 117.996094 41.042969 118.0625 41.023438 118.113281 40.984375 C 118.136719 40.964844 118.15625 40.941406 118.171875 40.914062 C 118.1875 40.882812 118.195312 40.851562 118.203125 40.820312 C 118.21875 40.757812 118.222656 40.695312 118.226562 40.628906 C 118.230469 40.5625 118.230469 40.5 118.226562 40.433594 C 118.21875 40.171875 118.1875 39.914062 118.152344 39.65625 C 118.121094 39.394531 118.078125 39.136719 118.039062 38.878906 L 118.046875 38.878906"/><path fill="#9D4D2E" d="M 119.023438 38.734375 L 119.054688 38.832031 L 119.082031 38.929688 C 119.097656 38.996094 119.117188 39.0625 119.132812 39.128906 C 119.148438 39.199219 119.164062 39.265625 119.179688 39.332031 C 119.195312 39.398438 119.207031 39.46875 119.21875 39.535156 C 119.242188 39.671875 119.253906 39.8125 119.265625 39.949219 C 119.273438 40.089844 119.273438 40.230469 119.265625 40.367188 L 119.261719 40.421875 L 119.257812 40.472656 C 119.25 40.507812 119.25 40.542969 119.242188 40.578125 C 119.238281 40.613281 119.230469 40.644531 119.226562 40.683594 C 119.21875 40.71875 119.210938 40.753906 119.195312 40.789062 C 119.183594 40.828125 119.167969 40.863281 119.140625 40.898438 C 119.117188 40.929688 119.082031 40.960938 119.046875 40.980469 C 119.007812 41.003906 118.964844 41.015625 118.925781 41.019531 C 118.886719 41.019531 118.84375 41.019531 118.808594 41.011719 C 118.769531 41 118.730469 40.988281 118.699219 40.96875 C 118.664062 40.953125 118.632812 40.929688 118.605469 40.90625 C 118.550781 40.859375 118.503906 40.808594 118.457031 40.753906 C 118.414062 40.699219 118.371094 40.644531 118.332031 40.589844 C 118.3125 40.558594 118.292969 40.53125 118.273438 40.503906 C 118.257812 40.472656 118.238281 40.445312 118.222656 40.414062 L 118.230469 40.410156 C 118.308594 40.523438 118.394531 40.628906 118.488281 40.726562 C 118.535156 40.777344 118.582031 40.824219 118.636719 40.867188 C 118.691406 40.90625 118.75 40.941406 118.816406 40.953125 C 118.882812 40.964844 118.953125 40.957031 119.011719 40.925781 C 119.070312 40.890625 119.109375 40.832031 119.128906 40.765625 C 119.140625 40.734375 119.148438 40.703125 119.15625 40.667969 C 119.160156 40.636719 119.164062 40.601562 119.171875 40.566406 C 119.175781 40.535156 119.179688 40.5 119.183594 40.464844 L 119.191406 40.363281 C 119.210938 40.089844 119.191406 39.816406 119.160156 39.542969 C 119.125 39.273438 119.070312 39.003906 119.019531 38.734375 L 119.023438 38.734375"/><path fill="#9D4D2E" d="M 120.003906 38.597656 L 120.023438 38.699219 L 120.042969 38.796875 L 120.078125 39 L 120.109375 39.199219 C 120.121094 39.265625 120.132812 39.332031 120.140625 39.398438 C 120.160156 39.535156 120.179688 39.667969 120.191406 39.804688 C 120.199219 39.941406 120.203125 40.082031 120.195312 40.21875 C 120.1875 40.289062 120.179688 40.359375 120.164062 40.425781 C 120.160156 40.445312 120.15625 40.460938 120.152344 40.480469 C 120.148438 40.496094 120.144531 40.511719 120.140625 40.53125 C 120.128906 40.566406 120.117188 40.601562 120.101562 40.636719 C 120.082031 40.667969 120.0625 40.703125 120.039062 40.734375 C 120.011719 40.761719 119.984375 40.792969 119.945312 40.8125 C 119.910156 40.835938 119.867188 40.847656 119.824219 40.851562 C 119.78125 40.851562 119.738281 40.84375 119.703125 40.828125 C 119.664062 40.808594 119.632812 40.785156 119.605469 40.761719 C 119.578125 40.738281 119.554688 40.710938 119.53125 40.679688 C 119.488281 40.625 119.453125 40.570312 119.414062 40.511719 C 119.378906 40.453125 119.34375 40.394531 119.308594 40.335938 C 119.292969 40.308594 119.277344 40.277344 119.261719 40.246094 C 119.246094 40.214844 119.234375 40.183594 119.21875 40.152344 L 119.226562 40.148438 C 119.292969 40.269531 119.367188 40.378906 119.445312 40.488281 C 119.484375 40.542969 119.527344 40.597656 119.570312 40.648438 C 119.59375 40.671875 119.613281 40.699219 119.640625 40.71875 C 119.664062 40.742188 119.695312 40.761719 119.722656 40.773438 C 119.785156 40.796875 119.855469 40.792969 119.914062 40.757812 C 119.96875 40.722656 120.007812 40.664062 120.035156 40.605469 C 120.050781 40.574219 120.0625 40.542969 120.070312 40.511719 C 120.074219 40.496094 120.078125 40.480469 120.082031 40.460938 C 120.085938 40.445312 120.089844 40.429688 120.09375 40.414062 C 120.105469 40.347656 120.113281 40.28125 120.117188 40.214844 C 120.140625 39.945312 120.113281 39.675781 120.082031 39.40625 L 119.996094 38.601562 L 120.003906 38.597656"/><path fill="#1E0D17" d="M 129.628906 32.9375 C 129.199219 33.265625 128.746094 33.570312 128.304688 33.90625 C 127.59375 34.441406 126.664062 35.796875 126.121094 36.5 C 126.15625 36.457031 126.089844 35.140625 126.074219 35.050781 C 126.019531 34.796875 126.128906 34.554688 126.117188 34.296875 C 126.097656 33.78125 126.164062 33.261719 126.304688 32.765625 C 126.589844 31.773438 127.1875 30.855469 128.09375 30.308594 C 128.441406 30.097656 128.828125 29.949219 129.230469 29.855469 C 129.960938 29.683594 130.730469 29.703125 131.476562 29.828125 C 131.691406 29.863281 131.957031 29.957031 131.972656 30.171875 C 131.988281 30.351562 131.835938 30.457031 131.726562 30.578125 C 131.609375 30.707031 131.785156 30.648438 131.683594 30.792969 C 131.476562 31.09375 130.992188 31.601562 130.757812 31.882812 C 130.417969 32.292969 130.035156 32.625 129.628906 32.9375"/><path fill="#1E0D17" d="M 135.152344 29.707031 C 136.179688 30.234375 136.976562 31.375 137.132812 32.503906 C 137.285156 33.621094 137.257812 35.109375 137.03125 36.210938 C 137.027344 36.226562 136.945312 36.195312 136.9375 36.183594 C 135.53125 34.324219 133.707031 32.113281 131.664062 30.957031 C 131.617188 30.929688 131.566406 30.902344 131.539062 30.851562 C 131.511719 30.792969 131.527344 30.726562 131.542969 30.664062 C 131.605469 30.421875 131.625 29.980469 131.796875 29.785156 C 132 29.558594 132.542969 29.503906 132.828125 29.449219 C 133.601562 29.308594 134.441406 29.335938 135.152344 29.707031"/><path fill="#C66F44" d="M 120.976562 39.332031 C 120.722656 39.039062 120.5 38.835938 120.121094 38.671875 C 119.917969 38.585938 119.582031 38.476562 119.375 38.453125 C 119.1875 38.4375 118.914062 38.425781 118.789062 38.527344 C 118.6875 38.613281 118.722656 38.789062 118.90625 38.898438 C 119.085938 39.003906 119.683594 39.214844 119.753906 39.261719 C 119.824219 39.308594 119.832031 39.640625 119.992188 39.867188 C 120.152344 40.09375 120.1875 40.164062 120.1875 40.164062"/><path fill="#9D4D2E" d="M 120.972656 39.335938 C 120.9375 39.296875 120.902344 39.261719 120.867188 39.226562 C 120.832031 39.191406 120.796875 39.15625 120.757812 39.121094 C 120.683594 39.050781 120.605469 38.988281 120.519531 38.925781 C 120.4375 38.867188 120.347656 38.816406 120.253906 38.769531 C 120.164062 38.722656 120.066406 38.683594 119.964844 38.648438 C 119.867188 38.613281 119.769531 38.582031 119.667969 38.554688 C 119.566406 38.527344 119.464844 38.503906 119.367188 38.492188 C 119.265625 38.484375 119.160156 38.480469 119.0625 38.488281 C 119.015625 38.492188 118.96875 38.5 118.925781 38.511719 C 118.882812 38.523438 118.84375 38.542969 118.816406 38.566406 C 118.792969 38.589844 118.78125 38.625 118.78125 38.660156 C 118.78125 38.695312 118.796875 38.734375 118.820312 38.769531 C 118.84375 38.800781 118.878906 38.832031 118.917969 38.855469 C 118.957031 38.882812 119.003906 38.90625 119.050781 38.925781 C 119.144531 38.96875 119.242188 39.007812 119.339844 39.050781 L 119.488281 39.109375 C 119.539062 39.128906 119.585938 39.148438 119.636719 39.171875 C 119.660156 39.179688 119.6875 39.191406 119.710938 39.203125 C 119.722656 39.207031 119.734375 39.214844 119.75 39.222656 C 119.75 39.222656 119.753906 39.226562 119.757812 39.226562 C 119.761719 39.226562 119.765625 39.230469 119.769531 39.234375 L 119.773438 39.238281 C 119.777344 39.238281 119.78125 39.242188 119.78125 39.242188 C 119.785156 39.246094 119.789062 39.25 119.792969 39.253906 C 119.804688 39.269531 119.808594 39.28125 119.816406 39.292969 C 119.820312 39.304688 119.824219 39.316406 119.828125 39.328125 C 119.835938 39.351562 119.839844 39.375 119.847656 39.398438 C 119.867188 39.488281 119.886719 39.574219 119.914062 39.664062 C 119.929688 39.707031 119.945312 39.75 119.964844 39.789062 C 119.976562 39.8125 119.988281 39.832031 120 39.851562 L 120.039062 39.914062 C 120.09375 39.996094 120.144531 40.078125 120.191406 40.160156 L 120.1875 40.164062 C 120.136719 40.082031 120.082031 40 120.023438 39.917969 L 119.980469 39.859375 C 119.96875 39.839844 119.957031 39.816406 119.945312 39.796875 C 119.921875 39.753906 119.902344 39.710938 119.886719 39.667969 C 119.855469 39.578125 119.832031 39.488281 119.808594 39.402344 C 119.804688 39.378906 119.796875 39.355469 119.789062 39.335938 C 119.78125 39.3125 119.777344 39.289062 119.761719 39.273438 C 119.753906 39.261719 119.742188 39.257812 119.730469 39.25 C 119.71875 39.246094 119.707031 39.238281 119.695312 39.234375 C 119.671875 39.222656 119.644531 39.214844 119.621094 39.203125 C 119.425781 39.125 119.226562 39.050781 119.03125 38.964844 C 118.984375 38.941406 118.933594 38.917969 118.890625 38.890625 C 118.84375 38.863281 118.804688 38.828125 118.773438 38.789062 C 118.746094 38.746094 118.730469 38.699219 118.726562 38.65625 C 118.726562 38.609375 118.742188 38.566406 118.773438 38.53125 C 118.808594 38.5 118.855469 38.480469 118.902344 38.46875 C 118.949219 38.453125 119 38.445312 119.054688 38.441406 C 119.15625 38.433594 119.261719 38.441406 119.367188 38.449219 C 119.417969 38.453125 119.46875 38.464844 119.523438 38.476562 C 119.574219 38.484375 119.625 38.5 119.675781 38.515625 C 119.78125 38.542969 119.882812 38.578125 119.980469 38.613281 C 120.082031 38.652344 120.179688 38.691406 120.273438 38.742188 C 120.367188 38.789062 120.457031 38.84375 120.539062 38.90625 C 120.707031 39.03125 120.847656 39.179688 120.976562 39.332031 L 120.972656 39.335938"/><path fill="#A6D8F4" d="M 150.125 46.675781 L 151.324219 47.351562 L 150.191406 46.097656 C 150.386719 44.859375 150.832031 44.015625 150.832031 44.015625 C 152.332031 44.988281 153.355469 45.957031 154.027344 46.882812 L 153.683594 48.46875 L 154.429688 47.496094 C 156.324219 50.734375 154.15625 53.296875 154.15625 53.296875 C 152.988281 52.65625 152.136719 51.933594 151.523438 51.1875 L 152.382812 51.121094 L 150.738281 49.980469 C 150.160156 48.820312 150.046875 47.660156 150.125 46.675781"/><path d="M 154.339844 56.242188 C 154.347656 56.042969 154.347656 55.847656 154.347656 55.648438 C 154.347656 55.453125 154.34375 55.253906 154.335938 55.058594 C 154.320312 54.664062 154.296875 54.269531 154.261719 53.875 C 154.1875 53.089844 154.070312 52.304688 153.902344 51.535156 C 153.730469 50.765625 153.503906 50.003906 153.199219 49.277344 C 153.125 49.09375 153.042969 48.914062 152.957031 48.738281 C 152.871094 48.558594 152.777344 48.386719 152.683594 48.214844 C 152.585938 48.042969 152.480469 47.875 152.371094 47.710938 C 152.261719 47.546875 152.148438 47.386719 152.027344 47.230469 C 152.144531 47.386719 152.261719 47.546875 152.367188 47.710938 C 152.476562 47.878906 152.578125 48.046875 152.671875 48.21875 C 152.765625 48.390625 152.855469 48.566406 152.941406 48.742188 C 153.027344 48.921875 153.105469 49.101562 153.179688 49.285156 C 153.476562 50.015625 153.695312 50.773438 153.855469 51.542969 C 154.019531 52.316406 154.128906 53.097656 154.191406 53.878906 C 154.226562 54.273438 154.246094 54.667969 154.257812 55.058594 C 154.261719 55.257812 154.265625 55.453125 154.261719 55.648438 C 154.261719 55.847656 154.257812 56.042969 154.25 56.238281 L 154.339844 56.242188"/><path fill="#B4DCF9" d="M 159.628906 47.507812 L 158.417969 48.167969 L 159.570312 46.929688 C 159.390625 45.6875 158.953125 44.839844 158.953125 44.839844 C 157.441406 45.792969 156.410156 46.746094 155.722656 47.664062 L 156.050781 49.253906 L 155.3125 48.273438 C 153.378906 51.488281 155.515625 54.078125 155.515625 54.078125 C 156.691406 53.449219 157.550781 52.742188 158.171875 52.003906 L 157.316406 51.921875 L 158.972656 50.804688 C 159.566406 49.652344 159.695312 48.492188 159.628906 47.507812"/><path d="M 155.386719 57.015625 C 155.378906 56.820312 155.378906 56.625 155.378906 56.429688 C 155.378906 56.230469 155.386719 56.035156 155.394531 55.839844 C 155.410156 55.445312 155.433594 55.050781 155.472656 54.660156 C 155.546875 53.875 155.664062 53.097656 155.835938 52.328125 C 156.007812 51.558594 156.238281 50.804688 156.542969 50.078125 C 156.617188 49.894531 156.699219 49.71875 156.785156 49.539062 C 156.871094 49.363281 156.964844 49.1875 157.0625 49.019531 C 157.160156 48.847656 157.261719 48.679688 157.371094 48.515625 C 157.484375 48.351562 157.597656 48.195312 157.71875 48.039062 C 157.597656 48.191406 157.480469 48.351562 157.367188 48.511719 C 157.257812 48.675781 157.152344 48.84375 157.050781 49.011719 C 156.953125 49.183594 156.859375 49.355469 156.769531 49.53125 C 156.683594 49.707031 156.597656 49.886719 156.519531 50.066406 C 156.207031 50.792969 155.972656 51.550781 155.792969 52.316406 C 155.613281 53.085938 155.488281 53.867188 155.402344 54.652344 C 155.363281 55.046875 155.332031 55.441406 155.3125 55.835938 C 155.304688 56.03125 155.296875 56.230469 155.292969 56.425781 C 155.292969 56.625 155.289062 56.820312 155.296875 57.019531 L 155.386719 57.015625"/><path fill="#B4DCF9" d="M 148.941406 52.089844 L 150.308594 52.265625 L 148.792969 51.527344 C 148.511719 50.304688 148.613281 49.355469 148.613281 49.355469 C 150.367188 49.695312 151.675781 50.214844 152.644531 50.820312 L 152.910156 52.421875 L 153.246094 51.238281 C 156.203125 53.539062 155.144531 56.726562 155.144531 56.726562 C 153.820312 56.566406 152.761719 56.21875 151.917969 55.753906 L 152.6875 55.371094 L 150.738281 54.929688 C 149.773438 54.066406 149.238281 53.03125 148.941406 52.089844"/><path d="M 156.40625 59.394531 C 156.339844 59.207031 156.265625 59.023438 156.191406 58.839844 C 156.117188 58.65625 156.042969 58.472656 155.960938 58.292969 C 155.800781 57.933594 155.632812 57.574219 155.453125 57.222656 C 155.09375 56.519531 154.695312 55.839844 154.25 55.1875 C 153.808594 54.535156 153.316406 53.914062 152.761719 53.351562 C 152.625 53.210938 152.484375 53.074219 152.335938 52.941406 C 152.191406 52.808594 152.042969 52.683594 151.886719 52.558594 C 151.734375 52.4375 151.578125 52.320312 151.414062 52.207031 C 151.25 52.097656 151.085938 51.992188 150.914062 51.894531 C 151.085938 51.996094 151.25 52.101562 151.410156 52.210938 C 151.570312 52.324219 151.726562 52.445312 151.882812 52.566406 C 152.035156 52.691406 152.183594 52.820312 152.328125 52.953125 C 152.46875 53.089844 152.609375 53.226562 152.746094 53.367188 C 153.292969 53.933594 153.777344 54.558594 154.214844 55.210938 C 154.648438 55.867188 155.042969 56.550781 155.390625 57.253906 C 155.566406 57.605469 155.734375 57.964844 155.890625 58.324219 C 155.964844 58.503906 156.042969 58.6875 156.113281 58.871094 C 156.1875 59.054688 156.257812 59.238281 156.320312 59.421875 L 156.40625 59.394531"/><g clip-path="url(#b)"><path fill="#A6D8F4" d="M 161.753906 51.925781 L 160.390625 52.128906 L 161.894531 51.363281 C 162.152344 50.136719 162.039062 49.1875 162.039062 49.1875 C 160.289062 49.558594 158.992188 50.097656 158.03125 50.722656 L 157.792969 52.328125 L 157.4375 51.152344 C 154.523438 53.5 155.636719 56.671875 155.636719 56.671875 C 156.957031 56.488281 158.457031 56.117188 159.292969 55.640625 L 158.066406 55.269531 L 160.007812 54.796875 C 160.957031 53.917969 161.476562 52.875 161.753906 51.925781"/></g><path d="M 154.503906 59.386719 C 154.566406 59.199219 154.632812 59.011719 154.699219 58.828125 C 154.769531 58.644531 154.839844 58.460938 154.917969 58.28125 C 155.066406 57.917969 155.226562 57.558594 155.394531 57.203125 C 155.734375 56.492188 156.113281 55.800781 156.539062 55.140625 C 156.964844 54.476562 157.4375 53.847656 157.972656 53.269531 C 158.105469 53.125 158.246094 52.988281 158.386719 52.851562 C 158.527344 52.714844 158.675781 52.582031 158.824219 52.457031 C 158.976562 52.328125 159.128906 52.207031 159.289062 52.09375 C 159.449219 51.976562 159.613281 51.867188 159.78125 51.765625 C 159.613281 51.867188 159.445312 51.972656 159.285156 52.085938 C 159.125 52.203125 158.96875 52.324219 158.816406 52.445312 C 158.667969 52.574219 158.519531 52.703125 158.375 52.835938 C 158.230469 52.972656 158.09375 53.113281 157.957031 53.253906 C 157.414062 53.828125 156.933594 54.457031 156.5 55.113281 C 156.066406 55.773438 155.679688 56.464844 155.332031 57.171875 C 155.160156 57.527344 154.996094 57.886719 154.84375 58.25 C 154.765625 58.433594 154.691406 58.613281 154.621094 58.800781 C 154.550781 58.984375 154.480469 59.167969 154.417969 59.355469 L 154.503906 59.386719"/><path fill="#7CB6E9" d="M 151.617188 56.878906 L 151.675781 58.300781 L 151.6875 58.589844 L 151.921875 64.164062 L 157.804688 64.164062 L 157.804688 64.132812 L 158.035156 58.589844 L 158.105469 56.878906 L 151.617188 56.878906"/><path fill="#68A9D6" d="M 151.617188 56.878906 L 151.675781 58.300781 L 151.6875 58.589844 L 158.035156 58.589844 L 158.105469 56.878906 L 151.617188 56.878906"/><path d="M 150.433594 52.308594 L 148.933594 52.113281 C 148.925781 52.109375 148.917969 52.101562 148.917969 52.089844 C 148.917969 52.078125 148.929688 52.070312 148.941406 52.070312 L 150.1875 52.234375 L 148.769531 51.546875 L 148.765625 51.535156 C 148.707031 51.292969 148.632812 50.6875 148.632812 50.679688 C 148.628906 50.667969 148.636719 50.660156 148.648438 50.65625 C 148.660156 50.65625 148.671875 50.664062 148.671875 50.675781 C 148.671875 50.679688 148.746094 51.273438 148.804688 51.515625 L 150.433594 52.308594"/><path d="M 154.503906 50.746094 C 154.492188 50.746094 154.484375 50.738281 154.484375 50.726562 C 154.421875 49.71875 155.285156 48.269531 155.292969 48.253906 L 155.308594 48.226562 L 156.0625 49.234375 C 156.070312 49.242188 156.066406 49.257812 156.058594 49.265625 C 156.050781 49.269531 156.035156 49.269531 156.03125 49.257812 L 155.3125 48.300781 C 155.199219 48.503906 154.46875 49.800781 154.523438 50.722656 C 154.523438 50.734375 154.515625 50.746094 154.503906 50.746094"/><g clip-path="url(#c)"><path d="M 157.800781 52.425781 L 157.425781 51.152344 C 157.421875 51.144531 157.429688 51.132812 157.441406 51.128906 C 157.449219 51.125 157.460938 51.132812 157.464844 51.140625 L 157.785156 52.234375 L 158.015625 50.710938 L 158.019531 50.707031 C 159.039062 49.851562 162 49.179688 162.027344 49.171875 C 162.039062 49.171875 162.050781 49.179688 162.054688 49.1875 C 162.054688 49.199219 162.046875 49.210938 162.035156 49.214844 C 162.007812 49.21875 159.070312 49.886719 158.054688 50.734375 L 157.800781 52.425781"/></g><path d="M 155.714844 47.6875 C 155.710938 47.6875 155.707031 47.6875 155.703125 47.683594 C 155.695312 47.679688 155.695312 47.664062 155.699219 47.65625 C 156.867188 46.046875 158.929688 44.828125 158.953125 44.816406 C 158.960938 44.808594 158.972656 44.8125 158.980469 44.820312 C 158.984375 44.832031 158.980469 44.84375 158.972656 44.851562 C 158.953125 44.863281 156.894531 46.078125 155.734375 47.679688 C 155.730469 47.6875 155.722656 47.6875 155.714844 47.6875"/><path d="M 150.199219 48.398438 C 150.1875 48.398438 150.179688 48.394531 150.175781 48.382812 C 150.035156 47.480469 150.109375 46.6875 150.109375 46.679688 L 150.113281 46.648438 L 151.222656 47.269531 L 150.175781 46.105469 C 150.167969 46.097656 150.167969 46.085938 150.175781 46.078125 C 150.183594 46.070312 150.199219 46.070312 150.207031 46.078125 L 151.421875 47.429688 L 150.148438 46.71875 C 150.136719 46.871094 150.09375 47.582031 150.21875 48.375 C 150.21875 48.386719 150.210938 48.398438 150.203125 48.398438 L 150.199219 48.398438"/><path d="M 159.304688 55.648438 C 159.300781 55.648438 159.300781 55.648438 159.296875 55.648438 L 158.003906 55.265625 L 160.007812 54.761719 C 160.019531 54.757812 160.027344 54.765625 160.03125 54.777344 C 160.035156 54.789062 160.027344 54.796875 160.015625 54.800781 L 158.160156 55.269531 L 159.308594 55.609375 C 159.320312 55.613281 159.324219 55.625 159.324219 55.636719 C 159.320312 55.644531 159.3125 55.648438 159.304688 55.648438"/><path fill="#68A9D6" d="M 151.675781 58.300781 L 151.921875 64.164062 L 157.800781 64.164062 L 157.804688 64.132812 C 153.191406 63.425781 151.953125 60.453125 151.675781 58.300781"/><path fill="#7CB6E9" d="M 151.605469 58.398438 L 158.117188 58.398438 C 158.324219 58.398438 158.492188 58.234375 158.492188 58.027344 L 158.492188 56.789062 C 158.492188 56.582031 158.324219 56.414062 158.117188 56.414062 L 151.605469 56.414062 C 151.398438 56.414062 151.230469 56.582031 151.230469 56.789062 L 151.230469 58.027344 C 151.230469 58.234375 151.398438 58.398438 151.605469 58.398438"/><path fill="#A6D5FD" d="M 111.257812 56.578125 L 110.691406 64.066406 L 104.617188 64.066406 L 104.046875 56.578125 C 104.035156 56.394531 104.109375 56.222656 104.234375 56.109375 C 104.335938 56.019531 104.46875 55.964844 104.613281 55.964844 L 110.691406 55.964844 C 111.023438 55.964844 111.28125 56.246094 111.257812 56.578125"/><path fill="#A6D5FD" d="M 110.796875 62.472656 L 110.191406 62.375 C 110.246094 62.03125 110.363281 61.703125 110.535156 61.402344 C 110.847656 60.859375 111.308594 60.453125 111.761719 60.0625 L 111.808594 60.019531 C 112.269531 59.617188 112.667969 59.25 112.898438 58.777344 C 113.097656 58.371094 113.15625 57.792969 112.851562 57.410156 C 112.632812 57.140625 112.238281 57.003906 111.847656 57.058594 C 111.480469 57.113281 111.113281 57.324219 110.808594 57.652344 L 110.359375 57.234375 C 110.757812 56.800781 111.253906 56.523438 111.761719 56.449219 C 112.359375 56.363281 112.976562 56.589844 113.328125 57.023438 C 113.746094 57.542969 113.796875 58.335938 113.449219 59.046875 C 113.167969 59.621094 112.703125 60.054688 112.210938 60.484375 L 112.160156 60.527344 C 111.75 60.886719 111.324219 61.253906 111.066406 61.710938 C 110.929688 61.945312 110.839844 62.203125 110.796875 62.472656"/><path fill="#8DC3ED" d="M 110.664062 64.066406 L 104.617188 64.066406 L 104.046875 56.578125 C 104.046875 56.5625 104.046875 56.546875 104.046875 56.535156 C 104.046875 56.367188 104.121094 56.214844 104.234375 56.109375 C 104.90625 58.257812 106.789062 62.972656 110.664062 64.066406"/><path fill="#1A1A1A" d="M 113.144531 59.539062 C 113.140625 59.539062 113.132812 59.535156 113.128906 59.535156 C 113.113281 59.523438 113.109375 59.507812 113.117188 59.492188 C 113.402344 59.027344 113.714844 58.417969 113.625 57.792969 C 113.570312 57.410156 113.359375 57.050781 113.042969 56.8125 C 112.667969 56.519531 112.132812 56.414062 111.585938 56.519531 C 111.570312 56.523438 111.550781 56.511719 111.550781 56.496094 C 111.546875 56.476562 111.558594 56.460938 111.574219 56.460938 C 112.140625 56.351562 112.691406 56.460938 113.082031 56.761719 C 113.40625 57.011719 113.628906 57.386719 113.6875 57.785156 C 113.78125 58.429688 113.460938 59.050781 113.171875 59.523438 C 113.164062 59.535156 113.15625 59.539062 113.144531 59.539062"/><path fill="#1A1A1A" d="M 104.175781 58.3125 C 104.160156 58.3125 104.144531 58.300781 104.144531 58.285156 L 104.042969 56.804688 C 104.035156 56.652344 104.035156 56.53125 104.050781 56.421875 C 104.074219 56.273438 104.117188 56.167969 104.191406 56.09375 C 104.289062 55.992188 104.433594 55.957031 104.546875 55.941406 C 104.707031 55.914062 104.875 55.914062 105.101562 55.933594 C 105.117188 55.933594 105.132812 55.933594 105.144531 55.9375 C 105.164062 55.9375 105.175781 55.953125 105.171875 55.96875 C 105.171875 55.984375 105.15625 56 105.140625 55.996094 C 105.125 55.996094 105.113281 55.996094 105.097656 55.992188 C 104.875 55.972656 104.710938 55.976562 104.558594 56 C 104.453125 56.019531 104.320312 56.046875 104.234375 56.136719 C 104.171875 56.199219 104.132812 56.296875 104.113281 56.429688 C 104.097656 56.535156 104.09375 56.652344 104.105469 56.800781 L 104.207031 58.28125 C 104.207031 58.296875 104.195312 58.3125 104.175781 58.3125"/><path fill="#FFF" d="M 107.417969 55.214844 C 107.324219 55.273438 107.234375 55.335938 107.15625 55.417969 C 107.058594 55.515625 107.027344 55.515625 107.066406 55.371094 C 107.171875 54.96875 107.472656 54.65625 107.675781 54.300781 C 107.996094 53.738281 107.910156 53.121094 107.628906 52.5625 C 107.390625 52.082031 107.066406 51.617188 107.011719 51.082031 C 106.953125 50.515625 107.207031 49.96875 107.503906 49.480469 C 107.800781 48.996094 108.148438 48.535156 108.320312 47.992188 C 108.25 48.214844 108.320312 48.484375 108.285156 48.71875 C 108.246094 48.984375 108.15625 49.234375 108.050781 49.480469 C 107.851562 49.960938 107.574219 50.457031 107.648438 50.996094 C 107.710938 51.421875 107.984375 51.777344 108.207031 52.144531 C 108.496094 52.613281 108.570312 53.167969 108.457031 53.703125 C 108.355469 54.175781 108.164062 54.683594 107.769531 54.988281 C 107.660156 55.074219 107.535156 55.140625 107.417969 55.214844"/><path fill="#FFF" d="M 109.363281 54.953125 C 109.3125 54.984375 109.265625 55.015625 109.222656 55.058594 C 109.171875 55.113281 109.15625 55.113281 109.175781 55.035156 C 109.234375 54.824219 109.390625 54.65625 109.5 54.46875 C 109.667969 54.171875 109.621094 53.84375 109.472656 53.550781 C 109.347656 53.292969 109.175781 53.050781 109.148438 52.765625 C 109.117188 52.46875 109.25 52.175781 109.40625 51.917969 C 109.5625 51.664062 109.75 51.417969 109.839844 51.128906 C 109.800781 51.25 109.839844 51.390625 109.820312 51.515625 C 109.800781 51.65625 109.753906 51.789062 109.699219 51.917969 C 109.589844 52.171875 109.445312 52.433594 109.484375 52.71875 C 109.515625 52.945312 109.660156 53.136719 109.78125 53.328125 C 109.933594 53.578125 109.972656 53.871094 109.910156 54.152344 C 109.859375 54.402344 109.757812 54.671875 109.546875 54.832031 C 109.488281 54.878906 109.425781 54.914062 109.363281 54.953125"/><path fill="#FFF" d="M 142.035156 51.226562 L 141.371094 64.269531 L 121.050781 64.269531 L 120.382812 51.226562 C 120.382812 51.039062 120.429688 50.863281 120.511719 50.710938 C 120.699219 50.363281 121.0625 50.125 121.484375 50.125 L 140.9375 50.125 C 141.542969 50.125 142.035156 50.617188 142.035156 51.226562"/><path fill="#CBCBCB" d="M 132.710938 57.613281 C 132.710938 58.332031 132.128906 58.914062 131.414062 58.914062 C 130.699219 58.914062 130.117188 58.332031 130.117188 57.613281 C 130.117188 56.894531 130.699219 56.3125 131.414062 56.3125 C 132.128906 56.3125 132.710938 56.894531 132.710938 57.613281"/><path fill="#F5F5F5" d="M 121.050781 64.269531 L 120.382812 51.226562 C 120.382812 51.039062 120.429688 50.863281 120.511719 50.710938 C 121.460938 53.167969 126.277344 61.625 141.371094 64.144531 L 141.371094 64.269531 L 121.050781 64.269531"/><path fill="#FFC500" d="M 134.773438 12.71875 C 134.773438 13.476562 134.546875 14.179688 134.160156 14.761719 C 134.066406 14.902344 133.960938 15.035156 133.851562 15.160156 C 133.601562 15.441406 133.402344 15.757812 133.253906 16.09375 C 133.105469 16.433594 133.003906 16.796875 132.960938 17.167969 C 132.886719 17.800781 132.351562 18.273438 131.71875 18.273438 L 130.714844 18.273438 C 130.398438 18.273438 130.105469 18.15625 129.882812 17.957031 C 129.660156 17.761719 129.507812 17.484375 129.472656 17.167969 C 129.382812 16.425781 129.078125 15.71875 128.582031 15.160156 C 128.007812 14.515625 127.660156 13.660156 127.660156 12.71875 C 127.660156 10.710938 129.25 9.082031 131.214844 9.082031 C 131.421875 9.082031 131.625 9.101562 131.820312 9.136719 C 132.671875 9.285156 133.417969 9.742188 133.949219 10.390625 C 134.464844 11.019531 134.773438 11.832031 134.773438 12.71875"/><path fill="#FFB500" d="M 134.160156 14.761719 C 134.550781 11.75 132.882812 9.953125 131.820312 9.136719 C 132.671875 9.285156 133.417969 9.742188 133.949219 10.390625 C 134.464844 11.019531 134.773438 11.832031 134.773438 12.71875 C 134.773438 13.476562 134.546875 14.179688 134.160156 14.761719"/><path fill="#FFF" d="M 130.75 15.746094 C 130.71875 15.101562 130.640625 14.460938 130.523438 13.824219 C 130.464844 13.507812 130.398438 13.195312 130.324219 12.882812 C 130.25 12.578125 130.171875 12.273438 130.082031 11.976562 C 129.996094 11.695312 129.726562 11.488281 129.441406 11.453125 C 129.363281 11.441406 129.285156 11.460938 129.226562 11.511719 C 129.171875 11.558594 129.144531 11.640625 129.152344 11.710938 C 129.160156 11.789062 129.191406 11.859375 129.222656 11.929688 C 129.246094 11.984375 129.277344 12.042969 129.308594 12.097656 C 129.566406 12.539062 130.054688 12.886719 130.582031 12.867188 C 131.082031 12.847656 131.585938 12.503906 131.710938 12 C 131.730469 11.933594 131.742188 11.863281 131.738281 11.792969 C 131.734375 11.703125 131.695312 11.628906 131.621094 11.574219 C 131.503906 11.488281 131.332031 11.507812 131.222656 11.601562 C 131.105469 11.695312 131.066406 11.863281 131.070312 12.007812 C 131.074219 12.140625 131.113281 12.273438 131.175781 12.394531 C 131.304688 12.625 131.53125 12.800781 131.785156 12.878906 C 132.058594 12.960938 132.359375 12.910156 132.613281 12.792969 C 132.746094 12.730469 132.863281 12.648438 132.972656 12.550781 C 133.074219 12.460938 133.171875 12.355469 133.226562 12.230469 C 133.285156 12.097656 133.316406 11.929688 133.222656 11.800781 C 133.175781 11.738281 133.105469 11.6875 133.027344 11.671875 C 132.949219 11.65625 132.871094 11.660156 132.800781 11.6875 C 132.730469 11.71875 132.664062 11.757812 132.613281 11.820312 C 132.558594 11.886719 132.519531 11.957031 132.488281 12.039062 C 132.4375 12.175781 132.402344 12.324219 132.367188 12.46875 C 132.285156 12.789062 132.214844 13.109375 132.152344 13.433594 C 132.027344 14.089844 131.9375 14.75 131.890625 15.417969 C 131.882812 15.574219 131.871094 15.734375 131.867188 15.890625 C 131.863281 15.957031 131.925781 16.019531 131.992188 16.015625 C 132.0625 16.011719 132.113281 15.960938 132.117188 15.890625 C 132.128906 15.582031 132.148438 15.273438 132.179688 14.964844 C 132.195312 14.808594 132.210938 14.65625 132.230469 14.503906 C 132.238281 14.464844 132.242188 14.429688 132.246094 14.394531 C 132.242188 14.425781 132.246094 14.390625 132.246094 14.386719 C 132.25 14.375 132.25 14.367188 132.25 14.355469 C 132.253906 14.335938 132.257812 14.316406 132.257812 14.296875 C 132.269531 14.21875 132.28125 14.144531 132.292969 14.066406 C 132.390625 13.457031 132.515625 12.851562 132.683594 12.257812 C 132.691406 12.226562 132.699219 12.195312 132.707031 12.167969 C 132.710938 12.15625 132.71875 12.140625 132.722656 12.128906 C 132.722656 12.121094 132.726562 12.113281 132.730469 12.105469 C 132.734375 12.101562 132.734375 12.09375 132.738281 12.089844 C 132.730469 12.105469 132.730469 12.109375 132.734375 12.097656 C 132.746094 12.070312 132.761719 12.042969 132.777344 12.015625 C 132.78125 12.007812 132.785156 12.003906 132.789062 11.996094 C 132.800781 11.980469 132.785156 12 132.785156 12.003906 C 132.785156 11.996094 132.820312 11.964844 132.824219 11.960938 C 132.828125 11.957031 132.832031 11.953125 132.835938 11.949219 C 132.851562 11.9375 132.8125 11.964844 132.832031 11.953125 C 132.84375 11.945312 132.855469 11.9375 132.871094 11.929688 C 132.875 11.929688 132.894531 11.921875 132.875 11.929688 C 132.855469 11.933594 132.875 11.925781 132.878906 11.925781 C 132.894531 11.921875 132.910156 11.917969 132.929688 11.914062 C 132.953125 11.90625 132.902344 11.914062 132.921875 11.914062 C 132.925781 11.914062 132.933594 11.914062 132.9375 11.914062 C 132.945312 11.914062 132.953125 11.914062 132.957031 11.914062 C 132.972656 11.914062 132.984375 11.921875 132.953125 11.910156 C 132.964844 11.914062 132.976562 11.914062 132.984375 11.917969 C 132.988281 11.917969 132.992188 11.921875 132.992188 11.921875 C 133.003906 11.925781 133 11.925781 132.980469 11.917969 C 132.988281 11.921875 133 11.925781 133.003906 11.929688 C 133.023438 11.941406 132.996094 11.925781 132.996094 11.921875 C 133 11.925781 133.007812 11.933594 133.011719 11.9375 C 133.015625 11.9375 133.015625 11.941406 133.015625 11.941406 C 133.027344 11.953125 133.023438 11.949219 133.011719 11.933594 C 133.011719 11.9375 133.019531 11.945312 133.023438 11.949219 C 133.023438 11.953125 133.027344 11.957031 133.027344 11.960938 C 133.039062 11.984375 133.019531 11.933594 133.027344 11.957031 C 133.027344 11.964844 133.03125 11.96875 133.03125 11.976562 C 133.03125 11.980469 133.035156 11.984375 133.035156 11.988281 C 133.035156 12.003906 133.035156 12 133.03125 11.976562 C 133.03125 11.988281 133.035156 12 133.035156 12.011719 C 133.035156 12.019531 133.03125 12.023438 133.03125 12.03125 C 133.03125 12.058594 133.039062 12 133.03125 12.027344 C 133.03125 12.039062 133.027344 12.050781 133.023438 12.0625 C 133.023438 12.070312 133.019531 12.078125 133.019531 12.082031 C 133.015625 12.089844 133.007812 12.105469 133.007812 12.113281 C 133.007812 12.109375 133.019531 12.082031 133.011719 12.101562 C 133.007812 12.109375 133.003906 12.117188 133 12.125 C 132.996094 12.136719 132.988281 12.152344 132.980469 12.164062 C 132.972656 12.175781 132.964844 12.1875 132.960938 12.199219 C 132.953125 12.203125 132.949219 12.210938 132.945312 12.214844 C 132.941406 12.21875 132.941406 12.222656 132.9375 12.230469 C 132.949219 12.214844 132.949219 12.210938 132.941406 12.222656 C 132.902344 12.269531 132.859375 12.3125 132.816406 12.355469 C 132.792969 12.375 132.769531 12.394531 132.746094 12.414062 C 132.742188 12.421875 132.734375 12.425781 132.730469 12.429688 C 132.707031 12.445312 132.753906 12.410156 132.730469 12.429688 C 132.714844 12.441406 132.699219 12.449219 132.6875 12.460938 C 132.632812 12.496094 132.582031 12.527344 132.527344 12.558594 C 132.511719 12.566406 132.496094 12.570312 132.480469 12.578125 C 132.472656 12.582031 132.464844 12.585938 132.457031 12.589844 C 132.433594 12.601562 132.476562 12.582031 132.460938 12.585938 C 132.433594 12.597656 132.402344 12.609375 132.371094 12.621094 C 132.3125 12.640625 132.25 12.648438 132.191406 12.664062 C 132.226562 12.65625 132.199219 12.660156 132.191406 12.664062 C 132.183594 12.664062 132.175781 12.664062 132.167969 12.664062 C 132.152344 12.664062 132.140625 12.667969 132.125 12.667969 C 132.09375 12.667969 132.058594 12.667969 132.027344 12.667969 C 132.011719 12.667969 131.996094 12.664062 131.976562 12.664062 C 131.96875 12.664062 131.960938 12.660156 131.953125 12.660156 C 131.957031 12.660156 131.988281 12.664062 131.964844 12.664062 C 131.9375 12.65625 131.90625 12.652344 131.878906 12.644531 C 131.851562 12.636719 131.828125 12.628906 131.800781 12.621094 C 131.796875 12.617188 131.789062 12.613281 131.78125 12.613281 C 131.773438 12.609375 131.753906 12.59375 131.785156 12.613281 C 131.769531 12.605469 131.757812 12.601562 131.742188 12.59375 C 131.691406 12.570312 131.644531 12.539062 131.597656 12.507812 C 131.589844 12.5 131.578125 12.484375 131.601562 12.507812 C 131.59375 12.503906 131.589844 12.5 131.582031 12.492188 C 131.574219 12.484375 131.5625 12.476562 131.554688 12.46875 C 131.53125 12.449219 131.511719 12.429688 131.492188 12.40625 C 131.484375 12.398438 131.472656 12.386719 131.464844 12.375 C 131.460938 12.371094 131.457031 12.367188 131.453125 12.363281 C 131.4375 12.34375 131.472656 12.386719 131.457031 12.367188 C 131.4375 12.34375 131.421875 12.316406 131.40625 12.292969 C 131.394531 12.269531 131.382812 12.246094 131.371094 12.222656 C 131.367188 12.214844 131.363281 12.210938 131.359375 12.203125 C 131.378906 12.234375 131.367188 12.214844 131.363281 12.207031 C 131.355469 12.191406 131.351562 12.179688 131.347656 12.164062 C 131.339844 12.140625 131.332031 12.113281 131.328125 12.089844 C 131.324219 12.078125 131.320312 12.027344 131.324219 12.070312 C 131.324219 12.058594 131.320312 12.042969 131.320312 12.027344 C 131.316406 12 131.316406 11.972656 131.320312 11.945312 C 131.320312 11.9375 131.324219 11.929688 131.320312 11.921875 C 131.320312 11.929688 131.320312 11.933594 131.320312 11.941406 C 131.320312 11.933594 131.320312 11.929688 131.320312 11.925781 C 131.324219 11.910156 131.328125 11.894531 131.332031 11.878906 C 131.335938 11.871094 131.335938 11.863281 131.339844 11.859375 C 131.339844 11.855469 131.351562 11.832031 131.34375 11.851562 C 131.332031 11.871094 131.34375 11.847656 131.34375 11.84375 C 131.347656 11.839844 131.351562 11.832031 131.355469 11.824219 C 131.359375 11.820312 131.363281 11.8125 131.367188 11.808594 C 131.382812 11.785156 131.347656 11.828125 131.367188 11.808594 C 131.375 11.800781 131.394531 11.789062 131.398438 11.777344 C 131.390625 11.792969 131.382812 11.789062 131.394531 11.78125 C 131.398438 11.777344 131.40625 11.777344 131.410156 11.773438 C 131.421875 11.765625 131.378906 11.785156 131.398438 11.777344 C 131.40625 11.777344 131.410156 11.773438 131.417969 11.773438 C 131.421875 11.773438 131.429688 11.769531 131.433594 11.769531 C 131.402344 11.78125 131.410156 11.773438 131.421875 11.769531 C 131.433594 11.769531 131.449219 11.773438 131.460938 11.773438 C 131.425781 11.773438 131.4375 11.769531 131.453125 11.769531 C 131.457031 11.773438 131.460938 11.773438 131.464844 11.773438 C 131.472656 11.777344 131.476562 11.777344 131.480469 11.78125 C 131.449219 11.773438 131.460938 11.769531 131.472656 11.777344 C 131.476562 11.78125 131.480469 11.78125 131.488281 11.785156 C 131.507812 11.796875 131.46875 11.765625 131.476562 11.777344 C 131.480469 11.78125 131.484375 11.785156 131.488281 11.789062 C 131.507812 11.808594 131.476562 11.765625 131.484375 11.785156 C 131.488281 11.789062 131.492188 11.796875 131.496094 11.800781 C 131.476562 11.773438 131.484375 11.777344 131.488281 11.785156 C 131.488281 11.789062 131.488281 11.789062 131.488281 11.792969 C 131.492188 11.804688 131.492188 11.804688 131.488281 11.785156 C 131.492188 11.789062 131.492188 11.808594 131.492188 11.8125 C 131.488281 11.828125 131.488281 11.839844 131.488281 11.855469 C 131.484375 11.882812 131.492188 11.824219 131.488281 11.851562 C 131.488281 11.859375 131.484375 11.871094 131.484375 11.878906 C 131.472656 11.933594 131.457031 11.984375 131.4375 12.035156 C 131.4375 12.042969 131.433594 12.046875 131.429688 12.054688 C 131.433594 12.054688 131.445312 12.023438 131.4375 12.042969 C 131.429688 12.054688 131.425781 12.070312 131.417969 12.082031 C 131.40625 12.105469 131.390625 12.132812 131.378906 12.15625 C 131.363281 12.179688 131.347656 12.199219 131.335938 12.21875 C 131.332031 12.226562 131.324219 12.230469 131.320312 12.238281 C 131.324219 12.234375 131.339844 12.210938 131.328125 12.230469 C 131.316406 12.242188 131.308594 12.253906 131.296875 12.265625 C 131.261719 12.308594 131.222656 12.347656 131.179688 12.382812 C 131.171875 12.390625 131.160156 12.394531 131.152344 12.402344 C 131.132812 12.421875 131.175781 12.386719 131.15625 12.402344 C 131.148438 12.40625 131.144531 12.410156 131.136719 12.414062 C 131.113281 12.429688 131.089844 12.449219 131.066406 12.460938 C 131.019531 12.492188 130.972656 12.515625 130.921875 12.539062 C 130.902344 12.546875 130.929688 12.535156 130.929688 12.535156 C 130.925781 12.539062 130.917969 12.542969 130.910156 12.542969 C 130.898438 12.550781 130.882812 12.554688 130.871094 12.558594 C 130.84375 12.570312 130.816406 12.578125 130.789062 12.585938 C 130.761719 12.589844 130.738281 12.597656 130.710938 12.601562 C 130.699219 12.605469 130.6875 12.605469 130.675781 12.609375 C 130.667969 12.609375 130.660156 12.609375 130.65625 12.613281 C 130.695312 12.605469 130.660156 12.609375 130.652344 12.613281 C 130.597656 12.617188 130.546875 12.621094 130.492188 12.617188 C 130.476562 12.617188 130.464844 12.613281 130.453125 12.613281 C 130.441406 12.613281 130.390625 12.605469 130.433594 12.613281 C 130.40625 12.605469 130.375 12.601562 130.347656 12.597656 C 130.292969 12.585938 130.238281 12.570312 130.183594 12.550781 C 130.171875 12.542969 130.160156 12.539062 130.144531 12.535156 C 130.121094 12.523438 130.171875 12.546875 130.148438 12.535156 C 130.144531 12.53125 130.136719 12.53125 130.132812 12.527344 C 130.105469 12.515625 130.078125 12.503906 130.054688 12.488281 C 130.003906 12.460938 129.957031 12.433594 129.910156 12.398438 C 129.898438 12.390625 129.882812 12.382812 129.871094 12.371094 C 129.851562 12.355469 129.894531 12.390625 129.875 12.375 C 129.871094 12.371094 129.867188 12.367188 129.863281 12.363281 C 129.839844 12.34375 129.816406 12.324219 129.792969 12.304688 C 129.75 12.265625 129.710938 12.222656 129.671875 12.179688 C 129.65625 12.160156 129.636719 12.136719 129.621094 12.117188 C 129.644531 12.144531 129.613281 12.105469 129.605469 12.097656 C 129.597656 12.085938 129.589844 12.074219 129.582031 12.0625 C 129.546875 12.011719 129.519531 11.964844 129.492188 11.910156 C 129.476562 11.886719 129.464844 11.863281 129.453125 11.835938 C 129.449219 11.824219 129.441406 11.808594 129.433594 11.792969 C 129.449219 11.824219 129.441406 11.808594 129.4375 11.800781 C 129.433594 11.792969 129.429688 11.785156 129.425781 11.777344 C 129.417969 11.75 129.40625 11.722656 129.402344 11.699219 C 129.398438 11.683594 129.402344 11.671875 129.398438 11.707031 C 129.402344 11.699219 129.398438 11.691406 129.398438 11.6875 C 129.398438 11.679688 129.402344 11.660156 129.398438 11.6875 C 129.394531 11.710938 129.402344 11.6875 129.402344 11.679688 C 129.398438 11.707031 129.390625 11.707031 129.398438 11.691406 C 129.40625 11.671875 129.375 11.714844 129.390625 11.703125 C 129.414062 11.679688 129.363281 11.71875 129.390625 11.703125 C 129.410156 11.6875 129.359375 11.710938 129.382812 11.703125 C 129.386719 11.703125 129.394531 11.703125 129.398438 11.699219 C 129.417969 11.695312 129.386719 11.703125 129.382812 11.703125 C 129.394531 11.703125 129.402344 11.699219 129.414062 11.699219 C 129.417969 11.703125 129.425781 11.703125 129.433594 11.703125 C 129.402344 11.703125 129.417969 11.699219 129.429688 11.703125 C 129.441406 11.703125 129.453125 11.707031 129.464844 11.710938 C 129.480469 11.714844 129.496094 11.71875 129.507812 11.722656 C 129.511719 11.726562 129.519531 11.726562 129.523438 11.726562 C 129.535156 11.730469 129.558594 11.75 129.527344 11.730469 C 129.550781 11.742188 129.582031 11.753906 129.605469 11.769531 C 129.617188 11.777344 129.632812 11.785156 129.644531 11.792969 C 129.648438 11.796875 129.652344 11.796875 129.65625 11.800781 C 129.660156 11.804688 129.664062 11.808594 129.667969 11.8125 C 129.679688 11.820312 129.679688 11.816406 129.664062 11.804688 C 129.667969 11.816406 129.691406 11.828125 129.699219 11.835938 C 129.710938 11.84375 129.71875 11.851562 129.726562 11.863281 C 129.738281 11.875 129.75 11.886719 129.757812 11.898438 C 129.761719 11.902344 129.765625 11.90625 129.769531 11.910156 C 129.773438 11.914062 129.777344 11.917969 129.777344 11.921875 C 129.765625 11.90625 129.765625 11.902344 129.773438 11.914062 C 129.789062 11.9375 129.804688 11.960938 129.816406 11.984375 C 129.820312 11.992188 129.824219 11.996094 129.828125 12.003906 C 129.832031 12.015625 129.832031 12.03125 129.828125 12 C 129.828125 12.015625 129.835938 12.027344 129.839844 12.042969 C 129.863281 12.113281 129.882812 12.183594 129.902344 12.253906 C 129.941406 12.394531 129.980469 12.539062 130.019531 12.683594 C 130.09375 12.972656 130.160156 13.269531 130.21875 13.5625 C 130.28125 13.859375 130.332031 14.15625 130.375 14.457031 C 130.382812 14.492188 130.386719 14.527344 130.390625 14.5625 C 130.394531 14.578125 130.394531 14.597656 130.398438 14.613281 C 130.402344 14.644531 130.394531 14.585938 130.398438 14.617188 C 130.398438 14.628906 130.402344 14.640625 130.402344 14.652344 C 130.414062 14.726562 130.421875 14.800781 130.429688 14.875 C 130.449219 15.023438 130.460938 15.167969 130.472656 15.316406 C 130.484375 15.460938 130.496094 15.601562 130.503906 15.746094 C 130.503906 15.8125 130.558594 15.875 130.628906 15.871094 C 130.691406 15.871094 130.753906 15.816406 130.75 15.746094"/><path fill="#666" d="M 132.339844 18.902344 L 130.09375 18.902344 C 129.988281 18.902344 129.90625 18.816406 129.90625 18.714844 C 129.90625 18.609375 129.988281 18.527344 130.09375 18.527344 L 132.339844 18.527344 C 132.445312 18.527344 132.527344 18.609375 132.527344 18.714844 C 132.527344 18.816406 132.445312 18.902344 132.339844 18.902344"/><path fill="#666" d="M 132.246094 19.371094 L 130.1875 19.371094 C 130.082031 19.371094 130 19.289062 130 19.183594 C 130 19.078125 130.082031 18.996094 130.1875 18.996094 L 132.246094 18.996094 C 132.347656 18.996094 132.433594 19.078125 132.433594 19.183594 C 132.433594 19.289062 132.347656 19.371094 132.246094 19.371094"/><path fill="#666" d="M 132.121094 19.839844 L 130.3125 19.839844 C 130.207031 19.839844 130.125 19.757812 130.125 19.652344 C 130.125 19.550781 130.207031 19.464844 130.3125 19.464844 L 132.121094 19.464844 C 132.226562 19.464844 132.308594 19.550781 132.308594 19.652344 C 132.308594 19.757812 132.226562 19.839844 132.121094 19.839844"/><g clip-path="url(#d)"><path fill="#FFAD00" d="M 131.214844 8.613281 C 131.171875 8.613281 131.132812 8.574219 131.132812 8.53125 L 131.132812 6.828125 C 131.132812 6.78125 131.171875 6.742188 131.214844 6.742188 C 131.261719 6.742188 131.300781 6.78125 131.300781 6.828125 L 131.300781 8.53125 C 131.300781 8.574219 131.261719 8.613281 131.214844 8.613281"/></g><path fill="#FFAD00" d="M 133.511719 9.242188 C 133.496094 9.242188 133.484375 9.238281 133.46875 9.230469 C 133.429688 9.207031 133.417969 9.15625 133.4375 9.117188 L 134.285156 7.640625 C 134.308594 7.601562 134.359375 7.585938 134.402344 7.609375 C 134.441406 7.632812 134.453125 7.683594 134.429688 7.726562 L 133.582031 9.199219 C 133.566406 9.226562 133.539062 9.242188 133.511719 9.242188"/><path fill="#FFAD00" d="M 134.90625 10.957031 C 134.878906 10.957031 134.851562 10.941406 134.835938 10.914062 C 134.8125 10.875 134.824219 10.824219 134.867188 10.800781 L 136.335938 9.949219 C 136.375 9.925781 136.425781 9.9375 136.449219 9.980469 C 136.472656 10.019531 136.457031 10.070312 136.417969 10.09375 L 134.949219 10.945312 C 134.9375 10.953125 134.921875 10.957031 134.90625 10.957031"/><path fill="#FFAD00" d="M 128.867188 9.242188 C 128.835938 9.242188 128.808594 9.226562 128.792969 9.199219 L 127.945312 7.726562 C 127.921875 7.683594 127.9375 7.632812 127.976562 7.609375 C 128.015625 7.585938 128.066406 7.601562 128.089844 7.640625 L 128.9375 9.117188 C 128.960938 9.15625 128.949219 9.207031 128.90625 9.230469 C 128.894531 9.238281 128.878906 9.242188 128.867188 9.242188"/><path fill="#FFAD00" d="M 127.511719 10.957031 C 127.496094 10.957031 127.484375 10.953125 127.46875 10.945312 L 126 10.09375 C 125.960938 10.070312 125.949219 10.019531 125.972656 9.980469 C 125.992188 9.9375 126.042969 9.925781 126.085938 9.949219 L 127.554688 10.800781 C 127.59375 10.824219 127.605469 10.875 127.582031 10.914062 C 127.566406 10.941406 127.539062 10.957031 127.511719 10.957031"/><g clip-path="url(#e)"><path fill="#808080" d="M 161.339844 65.160156 L 101.082031 65.160156 C 100.84375 65.160156 100.65625 64.96875 100.65625 64.734375 L 100.65625 64.511719 C 100.65625 64.277344 100.84375 64.085938 101.082031 64.085938 L 161.339844 64.085938 C 161.574219 64.085938 161.765625 64.277344 161.765625 64.511719 L 161.765625 64.734375 C 161.765625 64.96875 161.574219 65.160156 161.339844 65.160156"/></g><g fill="#F41BF1"><g><g><path d="M 5.757812 -7.496094 C 5.613281 -7.496094 5.539062 -7.429688 5.316406 -7.429688 C 4.785156 -7.429688 3.976562 -7.894531 3.191406 -7.894531 C 2.117188 -7.894531 1.472656 -7.277344 1.472656 -6.324219 C 1.472656 -6.023438 1.660156 -5.859375 1.859375 -5.859375 C 2.039062 -5.859375 2.214844 -6.003906 2.214844 -6.324219 C 2.214844 -6.898438 2.503906 -7.199219 3.234375 -7.199219 C 3.632812 -7.199219 3.941406 -7.109375 4.230469 -7 C 4.265625 -6.644531 4.285156 -6.144531 4.285156 -5.546875 C 4.285156 -2.257812 3.832031 -0.609375 2.8125 -0.609375 C 2.214844 -0.609375 1.707031 -1.117188 1.707031 -2.09375 C 1.707031 -2.691406 1.78125 -3.035156 1.78125 -3.234375 C 1.78125 -3.476562 1.640625 -3.644531 1.417969 -3.644531 C 1.207031 -3.644531 1.042969 -3.488281 1.007812 -3.246094 C 0.953125 -2.824219 0.929688 -2.4375 0.929688 -2.09375 C 0.929688 -0.742188 1.726562 0.0898438 2.789062 0.0898438 C 4.429688 0.0898438 5.0625 -1.671875 5.0625 -5.546875 C 5.0625 -5.847656 5.0625 -6.3125 5.027344 -6.753906 C 5.105469 -6.746094 5.195312 -6.734375 5.292969 -6.734375 C 5.738281 -6.734375 6.035156 -6.910156 6.035156 -7.199219 C 6.035156 -7.375 5.925781 -7.496094 5.757812 -7.496094 Z M 5.757812 -7.496094" transform="translate(102.919 75.505)"/></g></g></g><g fill="#F41BF1"><g><g><path d="M 5.460938 -2.582031 C 4.929688 -1.261719 4.574219 -0.640625 4.285156 -0.640625 C 4.054688 -0.640625 3.875 -0.832031 3.875 -1.472656 C 3.875 -2.558594 4.03125 -3.855469 4.03125 -4.085938 C 4.03125 -4.320312 3.875 -4.464844 3.6875 -4.464844 C 3.5 -4.464844 3.355469 -4.320312 3.277344 -4.097656 C 2.988281 -4.308594 2.636719 -4.40625 2.347656 -4.40625 C 1.308594 -4.40625 0.265625 -3.355469 0.265625 -1.816406 C 0.265625 -0.632812 0.929688 0.0429688 1.78125 0.0429688 C 2.28125 0.0429688 2.78125 -0.1875 3.222656 -0.863281 C 3.390625 -0.253906 3.742188 0.0429688 4.242188 0.0429688 C 4.882812 0.0429688 5.382812 -0.6875 5.992188 -2.347656 C 6.011719 -2.402344 6.023438 -2.457031 6.023438 -2.503906 C 6.023438 -2.679688 5.890625 -2.800781 5.746094 -2.800781 C 5.636719 -2.800781 5.527344 -2.734375 5.460938 -2.582031 Z M 1.894531 -0.640625 C 1.375 -0.640625 0.996094 -1.019531 0.996094 -1.847656 C 0.996094 -3 1.738281 -3.753906 2.480469 -3.753906 C 2.800781 -3.753906 3.125 -3.578125 3.222656 -3.421875 C 3.246094 -1.683594 2.667969 -0.640625 1.894531 -0.640625 Z M 1.894531 -0.640625" transform="translate(108.39 75.505)"/></g></g></g><g fill="#F41BF1"><g><g><path d="M 4.960938 -2.582031 C 4.398438 -1.230469 4.109375 -0.6875 3.820312 -0.6875 C 3.65625 -0.6875 3.542969 -0.796875 3.542969 -1.0625 C 3.542969 -1.773438 3.722656 -2.855469 3.722656 -3.378906 C 3.722656 -3.988281 3.3125 -4.398438 2.703125 -4.398438 C 2.125 -4.398438 1.582031 -4.0625 1.164062 -3.433594 C 1.183594 -3.664062 1.207031 -3.875 1.207031 -4.019531 C 1.207031 -4.265625 1.042969 -4.386719 0.863281 -4.386719 C 0.6875 -4.386719 0.5 -4.253906 0.476562 -4.007812 C 0.398438 -3.132812 0.277344 -1.230469 0.277344 -0.355469 C 0.277344 -0.109375 0.453125 0.0117188 0.632812 0.0117188 C 0.820312 0.0117188 1.007812 -0.109375 1.007812 -0.355469 C 1.007812 -0.742188 1.019531 -1.164062 1.042969 -1.59375 C 1.183594 -2.824219 1.925781 -3.722656 2.523438 -3.722656 C 2.824219 -3.722656 2.988281 -3.542969 2.988281 -3.199219 C 2.988281 -2.824219 2.8125 -1.816406 2.8125 -1.128906 C 2.8125 -0.367188 3.179688 0 3.710938 0 C 4.339844 0 4.773438 -0.53125 5.492188 -2.347656 C 5.515625 -2.402344 5.527344 -2.457031 5.527344 -2.503906 C 5.527344 -2.679688 5.394531 -2.800781 5.25 -2.800781 C 5.136719 -2.800781 5.027344 -2.734375 4.960938 -2.582031 Z M 4.960938 -2.582031" transform="translate(113.484 75.505)"/></g></g></g><g fill="#F41BF1"><g><g><path d="M 5.460938 -2.582031 C 4.929688 -1.261719 4.574219 -0.640625 4.285156 -0.640625 C 4.054688 -0.640625 3.875 -0.832031 3.875 -1.472656 C 3.875 -2.558594 4.03125 -3.855469 4.03125 -4.085938 C 4.03125 -4.320312 3.875 -4.464844 3.6875 -4.464844 C 3.5 -4.464844 3.355469 -4.320312 3.277344 -4.097656 C 2.988281 -4.308594 2.636719 -4.40625 2.347656 -4.40625 C 1.308594 -4.40625 0.265625 -3.355469 0.265625 -1.816406 C 0.265625 -0.632812 0.929688 0.0429688 1.78125 0.0429688 C 2.28125 0.0429688 2.78125 -0.1875 3.222656 -0.863281 C 3.390625 -0.253906 3.742188 0.0429688 4.242188 0.0429688 C 4.882812 0.0429688 5.382812 -0.6875 5.992188 -2.347656 C 6.011719 -2.402344 6.023438 -2.457031 6.023438 -2.503906 C 6.023438 -2.679688 5.890625 -2.800781 5.746094 -2.800781 C 5.636719 -2.800781 5.527344 -2.734375 5.460938 -2.582031 Z M 1.894531 -0.640625 C 1.375 -0.640625 0.996094 -1.019531 0.996094 -1.847656 C 0.996094 -3 1.738281 -3.753906 2.480469 -3.753906 C 2.800781 -3.753906 3.125 -3.578125 3.222656 -3.421875 C 3.246094 -1.683594 2.667969 -0.640625 1.894531 -0.640625 Z M 1.894531 -0.640625" transform="translate(118.08 75.505)"/></g></g></g><g fill="#F41BF1"><g><g><path d="M 1.117188 -4.996094 C 1.363281 -4.996094 1.550781 -5.183594 1.550781 -5.425781 C 1.550781 -5.671875 1.363281 -5.859375 1.117188 -5.859375 C 0.875 -5.859375 0.6875 -5.671875 0.6875 -5.425781 C 0.6875 -5.183594 0.875 -4.996094 1.117188 -4.996094 Z M 1.460938 0.0429688 C 2.136719 0.0429688 2.714844 -0.664062 3.332031 -2.347656 C 3.355469 -2.402344 3.367188 -2.457031 3.367188 -2.503906 C 3.367188 -2.691406 3.234375 -2.824219 3.089844 -2.824219 C 2.980469 -2.824219 2.867188 -2.746094 2.800781 -2.582031 C 2.257812 -1.242188 1.914062 -0.640625 1.550781 -0.640625 C 1.285156 -0.640625 1.050781 -0.875 1.050781 -1.660156 C 1.050781 -2.136719 1.109375 -2.722656 1.296875 -3.964844 C 1.339844 -4.253906 1.152344 -4.417969 0.964844 -4.417969 C 0.785156 -4.417969 0.609375 -4.296875 0.554688 -3.996094 C 0.441406 -3.378906 0.320312 -2.304688 0.320312 -1.726562 C 0.320312 -0.433594 0.820312 0.0429688 1.460938 0.0429688 Z M 1.460938 0.0429688" transform="translate(123.174 75.505)"/></g></g></g><g fill="#F41BF1"><g><g><path d="M 4.960938 -2.582031 C 4.398438 -1.230469 4.109375 -0.6875 3.820312 -0.6875 C 3.65625 -0.6875 3.542969 -0.796875 3.542969 -1.0625 C 3.542969 -1.773438 3.722656 -2.855469 3.722656 -3.378906 C 3.722656 -3.988281 3.3125 -4.398438 2.703125 -4.398438 C 2.125 -4.398438 1.582031 -4.0625 1.164062 -3.433594 C 1.183594 -3.664062 1.207031 -3.875 1.207031 -4.019531 C 1.207031 -4.265625 1.042969 -4.386719 0.863281 -4.386719 C 0.6875 -4.386719 0.5 -4.253906 0.476562 -4.007812 C 0.398438 -3.132812 0.277344 -1.230469 0.277344 -0.355469 C 0.277344 -0.109375 0.453125 0.0117188 0.632812 0.0117188 C 0.820312 0.0117188 1.007812 -0.109375 1.007812 -0.355469 C 1.007812 -0.742188 1.019531 -1.164062 1.042969 -1.59375 C 1.183594 -2.824219 1.925781 -3.722656 2.523438 -3.722656 C 2.824219 -3.722656 2.988281 -3.542969 2.988281 -3.199219 C 2.988281 -2.824219 2.8125 -1.816406 2.8125 -1.128906 C 2.8125 -0.367188 3.179688 0 3.710938 0 C 4.339844 0 4.773438 -0.53125 5.492188 -2.347656 C 5.515625 -2.402344 5.527344 -2.457031 5.527344 -2.503906 C 5.527344 -2.679688 5.394531 -2.800781 5.25 -2.800781 C 5.136719 -2.800781 5.027344 -2.734375 4.960938 -2.582031 Z M 4.960938 -2.582031" transform="translate(125.61 75.505)"/></g></g></g><g fill="#F41BF1"><g><g><path d="M 5.460938 -2.582031 C 4.929688 -1.261719 4.574219 -0.640625 4.285156 -0.640625 C 4.054688 -0.640625 3.875 -0.832031 3.875 -1.472656 C 3.875 -2.558594 4.03125 -3.855469 4.03125 -4.085938 C 4.03125 -4.320312 3.875 -4.464844 3.6875 -4.464844 C 3.5 -4.464844 3.355469 -4.320312 3.277344 -4.097656 C 2.988281 -4.308594 2.636719 -4.40625 2.347656 -4.40625 C 1.308594 -4.40625 0.265625 -3.355469 0.265625 -1.816406 C 0.265625 -0.632812 0.929688 0.0429688 1.78125 0.0429688 C 2.28125 0.0429688 2.78125 -0.1875 3.222656 -0.863281 C 3.390625 -0.253906 3.742188 0.0429688 4.242188 0.0429688 C 4.882812 0.0429688 5.382812 -0.6875 5.992188 -2.347656 C 6.011719 -2.402344 6.023438 -2.457031 6.023438 -2.503906 C 6.023438 -2.679688 5.890625 -2.800781 5.746094 -2.800781 C 5.636719 -2.800781 5.527344 -2.734375 5.460938 -2.582031 Z M 1.894531 -0.640625 C 1.375 -0.640625 0.996094 -1.019531 0.996094 -1.847656 C 0.996094 -3 1.738281 -3.753906 2.480469 -3.753906 C 2.800781 -3.753906 3.125 -3.578125 3.222656 -3.421875 C 3.246094 -1.683594 2.667969 -0.640625 1.894531 -0.640625 Z M 1.894531 -0.640625" transform="translate(130.207 75.505)"/></g></g></g><g fill="#F41BF1"><g><g><path d="M 3.765625 0.101562 C 4.972656 0.101562 6.070312 -0.597656 6.765625 -2.347656 C 6.789062 -2.402344 6.800781 -2.449219 6.800781 -2.492188 C 6.800781 -2.667969 6.65625 -2.800781 6.511719 -2.800781 C 6.414062 -2.800781 6.300781 -2.734375 6.234375 -2.582031 C 5.625 -1.140625 4.761719 -0.597656 3.832031 -0.597656 C 2.703125 -0.597656 1.804688 -1.496094 1.804688 -3.054688 C 1.804688 -5.003906 2.933594 -7.175781 4.351562 -7.175781 C 4.882812 -7.175781 5.183594 -6.878906 5.183594 -6.457031 C 5.183594 -6.035156 4.949219 -5.769531 4.949219 -5.472656 C 4.949219 -5.316406 5.0625 -5.207031 5.261719 -5.207031 C 5.414062 -5.207031 5.539062 -5.316406 5.636719 -5.472656 C 5.8125 -5.757812 5.902344 -6.214844 5.902344 -6.480469 C 5.902344 -7.289062 5.304688 -7.875 4.363281 -7.875 C 2.390625 -7.875 1.03125 -5.359375 1.03125 -3.113281 C 1.03125 -1.03125 2.214844 0.101562 3.765625 0.101562 Z M 3.765625 0.101562" transform="translate(137.46 75.505)"/></g></g></g><g fill="#F41BF1"><g><g><path d="M 4.804688 -2.582031 C 4.585938 -2.058594 4.296875 -1.738281 3.921875 -1.617188 C 4.019531 -1.90625 4.0625 -2.238281 4.0625 -2.582031 C 4.0625 -3.5 3.65625 -4.152344 3.113281 -4.363281 C 2.914062 -4.441406 2.613281 -4.519531 2.347656 -4.519531 C 1.175781 -4.519531 0.242188 -3.367188 0.242188 -1.882812 C 0.242188 -0.707031 0.898438 0.0234375 1.914062 0.0234375 C 2.625 0.0234375 3.222656 -0.34375 3.609375 -0.929688 C 4.308594 -0.984375 4.984375 -1.449219 5.339844 -2.347656 C 5.359375 -2.414062 5.371094 -2.480469 5.371094 -2.535156 C 5.371094 -2.722656 5.25 -2.847656 5.105469 -2.847656 C 5.003906 -2.847656 4.882812 -2.769531 4.804688 -2.582031 Z M 3.15625 -1.582031 C 2.667969 -1.714844 2.269531 -2.160156 2.269531 -2.867188 C 2.269531 -3.433594 2.449219 -3.742188 2.734375 -3.742188 C 3.113281 -3.742188 3.332031 -3.289062 3.332031 -2.570312 C 3.332031 -2.203125 3.265625 -1.859375 3.15625 -1.582031 Z M 1.9375 -0.664062 C 1.261719 -0.664062 0.972656 -1.25 0.972656 -1.914062 C 0.972656 -2.601562 1.273438 -3.378906 1.816406 -3.699219 C 1.683594 -3.457031 1.605469 -3.15625 1.605469 -2.824219 C 1.605469 -1.894531 2.125 -1.273438 2.800781 -1.03125 C 2.570312 -0.796875 2.269531 -0.664062 1.9375 -0.664062 Z M 1.9375 -0.664062" transform="translate(143.33 75.505)"/></g></g></g><g fill="#F41BF1"><g><g><path d="M 4.0625 -2.582031 C 3.84375 -2.058594 3.578125 -1.582031 3.191406 -1.25 C 3.199219 -1.308594 3.199219 -1.363281 3.199219 -1.417969 C 3.199219 -2.46875 1.972656 -3.578125 1.972656 -4.03125 C 1.972656 -4.242188 2.183594 -4.332031 2.183594 -4.5625 C 2.183594 -4.839844 1.914062 -4.996094 1.648438 -4.996094 C 1.351562 -4.996094 1.03125 -4.785156 1.019531 -4.308594 C 0.808594 -3.699219 0.554688 -3.035156 0.367188 -2.582031 C 0.34375 -2.535156 0.332031 -2.480469 0.332031 -2.4375 C 0.332031 -2.269531 0.476562 -2.136719 0.632812 -2.136719 C 0.730469 -2.136719 0.839844 -2.203125 0.898438 -2.347656 C 1.042969 -2.703125 1.183594 -3.089844 1.351562 -3.542969 C 1.78125 -2.878906 2.46875 -2.015625 2.46875 -1.417969 C 2.46875 -1.128906 2.359375 -0.90625 2.171875 -0.796875 C 2.070312 -0.785156 1.972656 -0.773438 1.871094 -0.773438 C 1.640625 -0.773438 1.449219 -0.820312 1.230469 -0.90625 C 1.164062 -0.929688 1.109375 -0.941406 1.050781 -0.941406 C 0.839844 -0.941406 0.707031 -0.785156 0.707031 -0.597656 C 0.707031 -0.464844 0.773438 -0.320312 0.929688 -0.210938 C 1.152344 -0.0546875 1.460938 0.0351562 1.773438 0.0351562 C 2.105469 0.0351562 2.4375 -0.0664062 2.703125 -0.265625 C 3.5 -0.542969 4.121094 -1.175781 4.597656 -2.347656 C 4.617188 -2.402344 4.628906 -2.457031 4.628906 -2.515625 C 4.628906 -2.691406 4.496094 -2.8125 4.351562 -2.8125 C 4.242188 -2.8125 4.128906 -2.746094 4.0625 -2.582031 Z M 4.0625 -2.582031" transform="translate(147.771 75.505)"/></g></g></g><g fill="#F41BF1"><g><g><path d="M 3.367188 -2.582031 C 2.957031 -1.539062 2.4375 -0.699219 1.773438 -0.699219 C 1.261719 -0.699219 1.007812 -1.042969 1.007812 -1.792969 C 1.007812 -2.25 1.097656 -3.023438 1.21875 -3.765625 C 1.25 -3.941406 1.296875 -4.273438 1.351562 -4.671875 C 1.90625 -4.617188 2.292969 -4.539062 2.425781 -4.539062 C 2.601562 -4.539062 2.714844 -4.695312 2.714844 -4.851562 C 2.714844 -4.984375 2.636719 -5.105469 2.457031 -5.148438 C 2.117188 -5.238281 1.78125 -5.28125 1.441406 -5.316406 C 1.515625 -5.957031 1.59375 -6.589844 1.59375 -6.8125 C 1.59375 -7.03125 1.460938 -7.175781 1.25 -7.175781 C 1.03125 -7.175781 0.875 -7.042969 0.863281 -6.820312 C 0.839844 -6.335938 0.785156 -5.835938 0.71875 -5.359375 L 0.34375 -5.359375 C 0.0898438 -5.359375 -0.0351562 -5.207031 -0.0351562 -5.050781 C -0.0351562 -4.882812 0.0898438 -4.730469 0.320312 -4.730469 L 0.632812 -4.730469 C 0.585938 -4.417969 0.542969 -4.128906 0.5 -3.875 C 0.375 -3.101562 0.277344 -2.347656 0.277344 -1.847656 C 0.277344 -0.664062 0.773438 -0.0117188 1.714844 -0.0117188 C 2.800781 -0.0117188 3.476562 -1.183594 3.898438 -2.347656 C 3.921875 -2.414062 3.929688 -2.46875 3.929688 -2.523438 C 3.929688 -2.714844 3.808594 -2.835938 3.664062 -2.835938 C 3.554688 -2.835938 3.433594 -2.757812 3.367188 -2.582031 Z M 3.367188 -2.582031" transform="translate(151.47 75.505)"/></g></g></g><g fill="#F41BF1"><g><g><path d="M 5.460938 -2.582031 C 4.929688 -1.261719 4.574219 -0.640625 4.285156 -0.640625 C 4.054688 -0.640625 3.875 -0.832031 3.875 -1.472656 C 3.875 -2.558594 4.03125 -3.855469 4.03125 -4.085938 C 4.03125 -4.320312 3.875 -4.464844 3.6875 -4.464844 C 3.5 -4.464844 3.355469 -4.320312 3.277344 -4.097656 C 2.988281 -4.308594 2.636719 -4.40625 2.347656 -4.40625 C 1.308594 -4.40625 0.265625 -3.355469 0.265625 -1.816406 C 0.265625 -0.632812 0.929688 0.0429688 1.78125 0.0429688 C 2.28125 0.0429688 2.78125 -0.1875 3.222656 -0.863281 C 3.390625 -0.253906 3.742188 0.0429688 4.242188 0.0429688 C 4.882812 0.0429688 5.382812 -0.6875 5.992188 -2.347656 C 6.011719 -2.402344 6.023438 -2.457031 6.023438 -2.503906 C 6.023438 -2.679688 5.890625 -2.800781 5.746094 -2.800781 C 5.636719 -2.800781 5.527344 -2.734375 5.460938 -2.582031 Z M 1.894531 -0.640625 C 1.375 -0.640625 0.996094 -1.019531 0.996094 -1.847656 C 0.996094 -3 1.738281 -3.753906 2.480469 -3.753906 C 2.800781 -3.753906 3.125 -3.578125 3.222656 -3.421875 C 3.246094 -1.683594 2.667969 -0.640625 1.894531 -0.640625 Z M 1.894531 -0.640625" transform="translate(154.472 75.505)"/></g></g></g><g fill="#F41BF1"><g><g><path d="M 6.34375 -1.1875 L 0.515625 -3.765625 L 0.515625 -4.609375 L 6.34375 -7.515625 L 6.34375 -6.109375 L 2.328125 -4.25 L 6.34375 -2.59375 Z M 6.34375 -1.1875" transform="translate(93.411 75.958)"/></g></g></g><g fill="#F41BF1"><g><g><path d="M -5.109375 0.953125 L -0.421875 3.03125 L -0.421875 3.703125 L -5.109375 6.0625 L -5.109375 4.921875 L -1.875 3.421875 L -5.109375 2.09375 Z M -5.109375 0.953125" transform="translate(174.027 67.445)"/></g></g><g><g><path d="M -3.953125 6.921875 L -1.375 0 L -0.0625 0 L -2.640625 6.921875 Z M -3.953125 6.921875" transform="translate(168.502 67.445)"/></g></g></g></svg>