<svg xmlns="http://www.w3.org/2000/svg" width="60" viewBox="0 0 60 30" height="30" version="1.0"><defs><clipPath id="a"><path d="M 17.886719 1.933594 L 41.851562 1.933594 L 41.851562 23.398438 L 17.886719 23.398438 Z M 17.886719 1.933594"/></clipPath><clipPath id="b"><path d="M 24 11 L 28 11 L 28 23.425781 L 24 23.425781 Z M 24 11"/></clipPath><clipPath id="c"><path d="M 39 17 L 42.1875 17 L 42.1875 20 L 39 20 Z M 39 17"/></clipPath><clipPath id="d"><path d="M 40 16 L 42.1875 16 L 42.1875 19 L 40 19 Z M 40 16"/></clipPath><clipPath id="e"><path d="M 25 17 L 35 17 L 35 23.425781 L 25 23.425781 Z M 25 17"/></clipPath><clipPath id="f"><path d="M 25 17 L 34 17 L 34 23.425781 L 25 23.425781 Z M 25 17"/></clipPath><clipPath id="g"><path d="M 17.710938 22.964844 L 42.03125 22.964844 L 42.03125 23.398438 L 17.710938 23.398438 Z M 17.710938 22.964844"/></clipPath></defs><g clip-path="url(#a)"><path fill="#E5F1FF" d="M 22.925781 23.398438 C 22.730469 23.261719 22.539062 23.117188 22.351562 22.96875 C 19.632812 20.800781 17.890625 17.480469 17.890625 13.761719 C 17.890625 7.234375 23.253906 1.9375 29.871094 1.9375 C 36.484375 1.9375 41.847656 7.234375 41.847656 13.761719 C 41.847656 17.480469 40.109375 20.800781 37.390625 22.96875 C 37.203125 23.117188 37.011719 23.261719 36.816406 23.398438 L 22.925781 23.398438"/></g><path fill="#1E0D17" d="M 34.519531 10.378906 C 34.519531 10.375 34.519531 10.371094 34.515625 10.371094 C 34.511719 10.335938 34.523438 10.296875 34.53125 10.265625 C 34.554688 10.203125 34.574219 10.140625 34.59375 10.082031 C 34.605469 10.035156 34.621094 9.992188 34.609375 9.945312 C 34.59375 9.882812 34.535156 9.84375 34.476562 9.816406 C 34.414062 9.785156 34.347656 9.757812 34.28125 9.738281 C 34.238281 9.722656 34.109375 9.71875 34.089844 9.679688 C 34.054688 9.625 34.148438 9.5 34.15625 9.441406 C 34.171875 9.34375 34.160156 9.246094 34.113281 9.160156 C 34.03125 9 33.851562 8.902344 33.679688 8.917969 C 33.773438 8.714844 33.761719 8.457031 33.648438 8.257812 C 33.535156 8.0625 33.320312 7.933594 33.101562 7.925781 C 33.03125 7.921875 32.953125 7.929688 32.898438 7.882812 C 32.824219 7.816406 32.84375 7.691406 32.832031 7.585938 C 32.808594 7.40625 32.65625 7.265625 32.488281 7.210938 C 32.320312 7.15625 32.144531 7.171875 31.96875 7.183594 C 31.929688 6.960938 31.761719 6.773438 31.550781 6.71875 C 31.34375 6.664062 31.109375 6.75 30.976562 6.929688 C 30.9375 6.789062 30.804688 6.6875 30.667969 6.6875 C 30.527344 6.6875 30.398438 6.796875 30.363281 6.9375 C 30.277344 6.734375 30.082031 6.585938 29.875 6.566406 C 29.664062 6.546875 29.445312 6.65625 29.328125 6.835938 C 29.363281 6.78125 28.773438 6.726562 28.722656 6.734375 C 28.515625 6.773438 28.355469 6.878906 28.199219 7.019531 C 28.042969 6.847656 27.761719 6.851562 27.578125 6.988281 C 27.394531 7.121094 27.300781 7.363281 27.289062 7.597656 C 26.921875 7.585938 26.5625 7.875 26.484375 8.253906 C 26.351562 8.179688 26.179688 8.21875 26.074219 8.328125 C 25.96875 8.4375 25.925781 8.597656 25.929688 8.753906 C 25.933594 8.804688 25.9375 8.863281 25.910156 8.90625 C 25.882812 8.949219 25.832031 8.964844 25.789062 8.984375 C 25.464844 9.128906 25.335938 9.613281 25.542969 9.90625 C 25.234375 10.160156 25.113281 10.636719 25.269531 11.011719 C 25.292969 11.070312 25.324219 11.125 25.324219 11.1875 C 25.328125 11.257812 25.292969 11.324219 25.269531 11.386719 C 25.160156 11.679688 25.246094 12.042969 25.476562 12.246094 C 25.378906 12.429688 25.296875 12.632812 25.308594 12.84375 C 25.324219 13.054688 25.460938 13.265625 25.65625 13.300781 C 25.648438 13.46875 25.652344 13.644531 25.726562 13.792969 C 25.800781 13.941406 25.960938 14.054688 26.121094 14.019531 C 26.160156 14.308594 26.378906 14.5625 26.652344 14.640625 C 26.710938 14.65625 26.769531 14.664062 26.816406 14.703125 C 26.863281 14.742188 26.886719 14.800781 26.917969 14.855469 C 27.109375 15.195312 27.632812 15.261719 27.894531 14.976562 C 27.988281 15.152344 28.226562 15.167969 28.410156 15.121094 C 28.597656 15.074219 28.785156 14.980469 28.972656 15.027344 C 29.109375 15.058594 29.230469 15.164062 29.371094 15.160156 C 29.453125 15.15625 29.53125 15.117188 29.613281 15.101562 C 29.785156 15.066406 29.914062 15.242188 30.085938 15.257812 C 30.269531 15.273438 30.441406 15.164062 30.613281 15.109375 C 30.824219 15.039062 31.039062 15.074219 31.253906 15.113281 C 31.4375 15.140625 31.621094 15.222656 31.789062 15.097656 C 31.90625 15.015625 31.980469 14.867188 32.113281 14.824219 C 32.269531 14.773438 32.429688 14.886719 32.589844 14.910156 C 32.925781 14.957031 33.40625 14.585938 33.496094 14.25 C 33.539062 14.089844 33.515625 13.902344 33.613281 13.769531 C 33.757812 13.570312 34.109375 13.582031 34.179688 13.34375 C 34.226562 13.183594 34.105469 12.984375 34.203125 12.847656 C 34.25 12.789062 34.324219 12.761719 34.382812 12.722656 C 34.515625 12.628906 34.582031 12.453125 34.582031 12.289062 C 34.578125 12.148438 34.511719 12.03125 34.496094 11.902344 C 34.484375 11.75 34.546875 11.773438 34.664062 11.675781 C 34.828125 11.539062 34.9375 11.34375 34.945312 11.121094 C 34.949219 10.980469 34.910156 10.84375 34.835938 10.726562 C 34.792969 10.652344 34.734375 10.59375 34.671875 10.535156 C 34.621094 10.488281 34.539062 10.445312 34.519531 10.378906"/><path fill="#C66F44" d="M 35.09375 18.96875 L 35.492188 21.667969 C 35.535156 21.945312 35.378906 22.214844 35.117188 22.3125 L 33.449219 22.949219 L 33.058594 21.695312 L 33.917969 21.179688 L 33.648438 18.796875 L 35.09375 18.96875"/><path fill="#9D4D2E" d="M 29.789062 14.429688 C 29.9375 14.53125 30.125 14.53125 30.269531 14.429688 C 30.332031 14.386719 30.40625 14.363281 30.480469 14.355469 C 30.566406 14.351562 30.644531 14.339844 30.726562 14.320312 L 30.765625 13.714844 L 29.332031 13.726562 L 29.382812 14.332031 C 29.449219 14.34375 29.511719 14.351562 29.578125 14.355469 C 29.652344 14.363281 29.726562 14.386719 29.789062 14.429688"/><path fill="#C66F44" d="M 30.707031 14.578125 L 30.726562 14.320312 C 30.644531 14.339844 30.566406 14.351562 30.480469 14.355469 C 30.40625 14.363281 30.332031 14.386719 30.269531 14.429688 C 30.125 14.53125 29.9375 14.53125 29.789062 14.429688 C 29.726562 14.386719 29.652344 14.363281 29.578125 14.355469 C 29.511719 14.351562 29.449219 14.34375 29.382812 14.332031 L 29.410156 14.644531 C 29.429688 14.824219 29.320312 14.996094 29.148438 15.078125 C 28.851562 15.214844 28.449219 15.390625 28.171875 15.480469 C 27.695312 15.636719 30.574219 16.300781 31.734375 15.480469 L 31.785156 15.371094 C 31.785156 15.371094 31.375 15.214844 31.027344 15.074219 C 30.820312 14.988281 30.695312 14.789062 30.707031 14.578125"/><path fill="#C66F44" d="M 30.285156 14.25 C 30.140625 14.355469 29.953125 14.355469 29.808594 14.25 C 29.746094 14.203125 29.671875 14.175781 29.59375 14.171875 C 28.707031 14.105469 27.996094 13.273438 27.996094 12.265625 L 27.996094 11.578125 C 27.996094 10.527344 28.765625 9.667969 29.707031 9.667969 L 30.390625 9.667969 C 31.328125 9.667969 32.097656 10.527344 32.097656 11.578125 L 32.097656 12.265625 C 32.097656 13.273438 31.390625 14.105469 30.5 14.171875 C 30.425781 14.175781 30.351562 14.203125 30.285156 14.25"/><path fill="#9D4D2E" d="M 30.054688 11.800781 C 30.171875 12.046875 30.222656 12.4375 30.238281 12.554688 C 30.242188 12.574219 30.230469 12.59375 30.210938 12.601562 C 30.136719 12.625 29.964844 12.632812 29.855469 12.648438 C 29.855469 12.648438 30.144531 12.515625 30.125 12.472656 L 30.054688 11.800781"/><path fill="#E46B61" d="M 31.226562 12.8125 C 30.964844 12.8125 30.753906 12.671875 30.753906 12.5 C 30.753906 12.328125 30.964844 12.191406 31.226562 12.191406 C 31.484375 12.191406 31.695312 12.328125 31.695312 12.5 C 31.695312 12.671875 31.484375 12.8125 31.226562 12.8125"/><path fill="#E46B61" d="M 28.871094 12.8125 C 28.609375 12.8125 28.398438 12.671875 28.398438 12.5 C 28.398438 12.328125 28.609375 12.191406 28.871094 12.191406 C 29.128906 12.191406 29.339844 12.328125 29.339844 12.5 C 29.339844 12.671875 29.128906 12.8125 28.871094 12.8125"/><path fill="#9D4D2E" d="M 29.175781 10.707031 C 29.003906 10.84375 28.828125 10.964844 28.652344 11.101562 C 28.371094 11.320312 28.121094 11.429688 27.90625 11.714844 C 27.917969 11.699219 27.890625 11.636719 27.886719 11.597656 C 27.863281 11.496094 27.851562 11.390625 27.847656 11.285156 C 27.839844 11.078125 27.867188 10.867188 27.921875 10.664062 C 28.035156 10.261719 28.269531 9.886719 28.628906 9.664062 C 28.769531 9.578125 28.921875 9.519531 29.078125 9.480469 C 29.371094 9.410156 29.671875 9.417969 29.96875 9.46875 C 30.054688 9.484375 30.15625 9.519531 30.164062 9.609375 C 30.171875 9.683594 30.109375 9.726562 30.066406 9.773438 C 30.019531 9.824219 30.089844 9.800781 30.050781 9.859375 C 29.96875 9.984375 29.714844 10.164062 29.621094 10.28125 C 29.488281 10.445312 29.335938 10.582031 29.175781 10.707031"/><path fill="#9D4D2E" d="M 31.421875 9.417969 C 31.828125 9.632812 32.0625 10.09375 32.125 10.554688 C 32.183594 11.007812 32.21875 11.269531 32.128906 11.71875 C 32.128906 11.722656 32.113281 11.710938 32.109375 11.707031 C 32.0625 11.644531 31.996094 11.609375 31.941406 11.554688 C 31.835938 11.445312 31.738281 11.324219 31.632812 11.210938 C 31.160156 10.714844 30.644531 10.277344 30.042969 9.929688 C 30.023438 9.917969 30.003906 9.90625 29.992188 9.886719 C 29.980469 9.863281 29.988281 9.832031 29.996094 9.808594 C 30.019531 9.710938 30.027344 9.53125 30.09375 9.453125 C 30.175781 9.359375 30.390625 9.335938 30.503906 9.316406 C 30.808594 9.257812 31.140625 9.269531 31.421875 9.417969"/><path d="M 30.648438 11.214844 C 31.046875 11.117188 31.453125 11.058594 31.871094 11.042969 C 31.871094 11.050781 31.699219 10.824219 31.183594 10.894531 C 31.027344 10.917969 30.898438 10.925781 30.792969 10.9375 C 30.71875 11.015625 30.671875 11.113281 30.648438 11.214844"/><path d="M 30.597656 11.226562 C 30.605469 11.226562 30.613281 11.222656 30.621094 11.21875 C 30.648438 11.113281 30.703125 11.011719 30.78125 10.9375 C 30.746094 10.941406 30.710938 10.945312 30.679688 10.949219 C 30.65625 10.980469 30.640625 11.011719 30.628906 11.046875 C 30.605469 11.105469 30.597656 11.167969 30.597656 11.226562"/><path d="M 30.621094 11.046875 C 30.632812 11.011719 30.652344 10.980469 30.671875 10.949219 C 30.523438 10.976562 30.460938 11.03125 30.507812 11.222656 C 30.511719 11.238281 30.527344 11.246094 30.539062 11.242188 C 30.554688 11.238281 30.570312 11.234375 30.582031 11.230469 C 30.585938 11.167969 30.597656 11.105469 30.621094 11.046875"/><path d="M 29.453125 11.222656 C 29.054688 11.117188 28.644531 11.050781 28.226562 11.027344 C 28.222656 11.035156 28.402344 10.8125 28.921875 10.894531 C 29.078125 10.917969 29.207031 10.929688 29.316406 10.941406 C 29.386719 11.019531 29.433594 11.121094 29.453125 11.222656"/><path d="M 29.507812 11.238281 C 29.496094 11.234375 29.488281 11.230469 29.480469 11.230469 C 29.457031 11.121094 29.402344 11.019531 29.324219 10.941406 C 29.363281 10.949219 29.398438 10.953125 29.429688 10.957031 C 29.453125 10.988281 29.46875 11.023438 29.480469 11.058594 C 29.5 11.117188 29.503906 11.175781 29.507812 11.238281"/><path d="M 29.488281 11.054688 C 29.472656 11.019531 29.457031 10.988281 29.433594 10.960938 C 29.585938 10.988281 29.644531 11.042969 29.59375 11.234375 C 29.589844 11.25 29.578125 11.257812 29.5625 11.253906 C 29.550781 11.25 29.535156 11.246094 29.519531 11.242188 C 29.519531 11.179688 29.507812 11.113281 29.488281 11.054688"/><path fill="#7CB6E9" d="M 35.222656 18.398438 C 35.191406 18.300781 35.15625 18.203125 35.128906 18.109375 C 35.023438 17.769531 34.90625 17.433594 34.753906 17.113281 C 34.472656 16.519531 34.070312 15.984375 33.5 15.65625 C 32.796875 15.253906 31.953125 15.25 31.140625 15.117188 C 29.894531 15.789062 29.015625 15.128906 29.015625 15.128906 C 27.855469 15.148438 26.867188 15.429688 26.019531 16.277344 C 25.820312 16.476562 25.628906 16.761719 25.503906 16.992188 C 25.128906 17.679688 24.867188 18.464844 24.820312 19.265625 L 26.640625 19.234375 L 27.011719 22.976562 L 33.019531 22.976562 L 33.382812 19.242188 C 33.644531 19.242188 34.246094 19.242188 34.507812 19.242188 L 35.371094 19.222656 C 35.398438 19.191406 35.375 19.136719 35.367188 19.054688 C 35.355469 18.835938 35.292969 18.613281 35.222656 18.398438"/><path fill="#FFF" d="M 28.609375 11.652344 C 28.609375 11.664062 28.628906 11.699219 28.632812 11.707031 C 28.644531 11.734375 28.65625 11.75 28.675781 11.773438 C 28.734375 11.851562 28.816406 11.902344 28.910156 11.914062 C 29.09375 11.9375 29.296875 11.902344 29.445312 11.800781 C 29.449219 11.796875 29.53125 11.761719 29.53125 11.761719 L 29.273438 11.636719 L 29.105469 11.546875 L 28.824219 11.535156 L 28.609375 11.644531 L 28.609375 11.652344"/><path fill="#752F00" d="M 29.199219 11.730469 C 29.199219 11.835938 29.109375 11.921875 29 11.921875 C 28.886719 11.921875 28.800781 11.835938 28.800781 11.730469 C 28.800781 11.625 28.886719 11.539062 29 11.539062 C 29.109375 11.539062 29.199219 11.625 29.199219 11.730469"/><path d="M 29.101562 11.730469 C 29.101562 11.78125 29.054688 11.828125 29 11.828125 C 28.941406 11.828125 28.894531 11.78125 28.894531 11.730469 C 28.894531 11.675781 28.941406 11.628906 29 11.628906 C 29.054688 11.628906 29.101562 11.675781 29.101562 11.730469"/><path fill="#FFF" d="M 28.992188 11.65625 C 28.992188 11.679688 28.972656 11.699219 28.949219 11.699219 C 28.921875 11.699219 28.902344 11.679688 28.902344 11.65625 C 28.902344 11.632812 28.921875 11.613281 28.949219 11.613281 C 28.972656 11.613281 28.992188 11.632812 28.992188 11.65625"/><path d="M 28.605469 11.652344 C 28.535156 11.632812 28.480469 11.632812 28.429688 11.601562 C 28.464844 11.578125 28.503906 11.558594 28.542969 11.539062 C 28.625 11.5 28.710938 11.472656 28.804688 11.457031 C 28.859375 11.445312 28.910156 11.441406 28.964844 11.449219 C 29.0625 11.457031 29.15625 11.476562 29.242188 11.519531 C 29.316406 11.558594 29.382812 11.605469 29.441406 11.660156 C 29.476562 11.691406 29.507812 11.726562 29.535156 11.761719 C 29.539062 11.765625 29.539062 11.765625 29.542969 11.769531 C 29.332031 11.65625 29.132812 11.566406 28.984375 11.554688 C 28.796875 11.542969 28.671875 11.628906 28.609375 11.652344"/><path fill="#FFF" d="M 31.484375 11.652344 C 31.484375 11.664062 31.464844 11.699219 31.464844 11.707031 C 31.453125 11.734375 31.4375 11.75 31.421875 11.773438 C 31.363281 11.851562 31.28125 11.902344 31.183594 11.914062 C 31.003906 11.9375 30.796875 11.902344 30.648438 11.796875 C 30.644531 11.796875 30.566406 11.761719 30.5625 11.761719 L 30.824219 11.636719 L 30.992188 11.546875 L 31.269531 11.535156 L 31.484375 11.644531 L 31.484375 11.652344"/><path fill="#752F00" d="M 30.871094 11.730469 C 30.871094 11.835938 30.960938 11.921875 31.070312 11.921875 C 31.179688 11.921875 31.269531 11.835938 31.269531 11.730469 C 31.269531 11.625 31.179688 11.539062 31.070312 11.539062 C 30.960938 11.539062 30.871094 11.625 30.871094 11.730469"/><path d="M 30.96875 11.730469 C 30.96875 11.78125 31.015625 11.828125 31.070312 11.828125 C 31.128906 11.828125 31.171875 11.78125 31.171875 11.730469 C 31.171875 11.675781 31.128906 11.628906 31.070312 11.628906 C 31.015625 11.628906 30.96875 11.675781 30.96875 11.730469"/><path fill="#FFF" d="M 31.078125 11.65625 C 31.078125 11.679688 31.097656 11.699219 31.121094 11.699219 C 31.148438 11.699219 31.167969 11.679688 31.167969 11.65625 C 31.167969 11.632812 31.148438 11.613281 31.121094 11.613281 C 31.097656 11.613281 31.078125 11.632812 31.078125 11.65625"/><path d="M 31.492188 11.652344 C 31.558594 11.632812 31.617188 11.632812 31.667969 11.601562 C 31.628906 11.578125 31.59375 11.558594 31.554688 11.539062 C 31.46875 11.5 31.382812 11.472656 31.292969 11.457031 C 31.238281 11.445312 31.183594 11.441406 31.128906 11.449219 C 31.035156 11.457031 30.9375 11.476562 30.851562 11.519531 C 30.78125 11.558594 30.714844 11.605469 30.652344 11.660156 C 30.621094 11.691406 30.585938 11.726562 30.558594 11.761719 C 30.558594 11.765625 30.554688 11.769531 30.554688 11.769531 C 30.765625 11.65625 30.960938 11.566406 31.109375 11.554688 C 31.300781 11.542969 31.421875 11.628906 31.484375 11.652344"/><path fill="#FFF" d="M 30.113281 13.847656 L 29.980469 13.847656 C 29.699219 13.847656 29.449219 13.65625 29.371094 13.382812 C 29.359375 13.339844 29.394531 13.296875 29.4375 13.296875 L 30.660156 13.296875 C 30.703125 13.296875 30.734375 13.339844 30.722656 13.382812 C 30.648438 13.65625 30.398438 13.847656 30.113281 13.847656"/><g clip-path="url(#b)"><path fill="#C66F44" d="M 25.722656 14.921875 L 25.648438 14.5625 L 25.792969 13.9375 L 25.832031 13.605469 C 25.855469 13.429688 25.855469 13.253906 25.839844 13.082031 L 25.675781 11.496094 C 25.671875 11.414062 25.601562 11.351562 25.519531 11.363281 C 25.453125 11.371094 25.402344 11.429688 25.398438 11.5 L 25.390625 11.753906 C 25.386719 11.914062 25.378906 12.078125 25.375 12.238281 C 25.375 12.292969 25.371094 12.347656 25.371094 12.402344 C 25.371094 12.433594 25.371094 12.464844 25.367188 12.492188 C 25.367188 12.496094 25.363281 12.496094 25.363281 12.496094 C 25.339844 12.492188 25.320312 12.480469 25.300781 12.472656 C 25.277344 12.464844 25.25 12.464844 25.222656 12.46875 C 25.171875 12.46875 25.117188 12.480469 25.066406 12.503906 C 25.039062 12.515625 25.027344 12.53125 25.011719 12.554688 C 25.011719 12.558594 25.007812 12.558594 25.003906 12.554688 C 24.945312 12.492188 24.828125 12.503906 24.753906 12.515625 C 24.710938 12.519531 24.667969 12.535156 24.628906 12.558594 C 24.613281 12.570312 24.597656 12.585938 24.589844 12.605469 C 24.589844 12.609375 24.585938 12.609375 24.582031 12.609375 C 24.574219 12.601562 24.558594 12.589844 24.554688 12.589844 C 24.539062 12.582031 24.519531 12.578125 24.503906 12.578125 C 24.464844 12.574219 24.417969 12.582031 24.382812 12.589844 C 24.292969 12.613281 24.226562 12.6875 24.246094 12.785156 L 24.246094 12.886719 C 24.253906 13.316406 24.324219 13.746094 24.464844 14.152344 C 24.472656 14.171875 24.476562 14.191406 24.484375 14.210938 L 24.621094 14.480469 L 24.714844 14.695312 L 24.910156 22.023438 C 24.921875 22.308594 25.042969 22.582031 25.253906 22.769531 C 26 23.425781 27.125 22.484375 27.125 22.484375 L 25.722656 14.921875"/></g><path fill="#9D4D2E" d="M 24.632812 12.871094 L 24.640625 12.910156 L 24.652344 12.949219 L 24.667969 13.023438 C 24.679688 13.074219 24.6875 13.128906 24.699219 13.179688 C 24.707031 13.230469 24.714844 13.28125 24.71875 13.335938 C 24.722656 13.359375 24.726562 13.386719 24.726562 13.414062 C 24.730469 13.441406 24.730469 13.464844 24.734375 13.492188 C 24.734375 13.519531 24.734375 13.546875 24.734375 13.574219 C 24.730469 13.585938 24.730469 13.601562 24.730469 13.613281 C 24.730469 13.621094 24.726562 13.628906 24.726562 13.636719 C 24.726562 13.640625 24.722656 13.648438 24.722656 13.65625 C 24.71875 13.671875 24.714844 13.683594 24.707031 13.699219 C 24.699219 13.710938 24.6875 13.726562 24.675781 13.734375 C 24.648438 13.757812 24.617188 13.761719 24.585938 13.757812 C 24.570312 13.757812 24.554688 13.753906 24.539062 13.742188 C 24.527344 13.734375 24.515625 13.722656 24.507812 13.710938 C 24.492188 13.691406 24.476562 13.667969 24.464844 13.640625 C 24.453125 13.617188 24.445312 13.59375 24.433594 13.570312 C 24.429688 13.554688 24.425781 13.542969 24.421875 13.53125 C 24.417969 13.519531 24.414062 13.507812 24.410156 13.492188 L 24.414062 13.492188 C 24.433594 13.542969 24.453125 13.589844 24.480469 13.632812 C 24.492188 13.65625 24.503906 13.679688 24.523438 13.699219 C 24.53125 13.707031 24.539062 13.71875 24.550781 13.722656 C 24.5625 13.730469 24.574219 13.734375 24.585938 13.734375 C 24.613281 13.738281 24.636719 13.730469 24.65625 13.714844 C 24.667969 13.707031 24.675781 13.695312 24.679688 13.6875 C 24.6875 13.675781 24.691406 13.660156 24.695312 13.648438 C 24.699219 13.625 24.703125 13.597656 24.703125 13.574219 C 24.703125 13.546875 24.703125 13.519531 24.703125 13.496094 C 24.699219 13.390625 24.6875 13.285156 24.675781 13.183594 C 24.660156 13.078125 24.644531 12.976562 24.628906 12.871094 L 24.632812 12.871094"/><path fill="#9D4D2E" d="M 25.019531 12.8125 L 25.042969 12.890625 C 25.050781 12.917969 25.058594 12.945312 25.066406 12.972656 C 25.070312 13 25.078125 13.027344 25.082031 13.054688 C 25.089844 13.082031 25.09375 13.105469 25.097656 13.132812 C 25.105469 13.1875 25.113281 13.246094 25.117188 13.300781 C 25.121094 13.355469 25.121094 13.410156 25.117188 13.46875 L 25.117188 13.488281 L 25.113281 13.511719 C 25.113281 13.523438 25.109375 13.539062 25.109375 13.550781 C 25.105469 13.566406 25.105469 13.578125 25.101562 13.59375 C 25.097656 13.609375 25.09375 13.621094 25.089844 13.636719 C 25.085938 13.652344 25.078125 13.667969 25.066406 13.679688 C 25.058594 13.691406 25.042969 13.707031 25.03125 13.714844 C 25.015625 13.722656 24.996094 13.726562 24.980469 13.726562 C 24.964844 13.730469 24.949219 13.726562 24.933594 13.726562 C 24.917969 13.722656 24.90625 13.714844 24.890625 13.707031 C 24.878906 13.703125 24.867188 13.691406 24.855469 13.683594 C 24.832031 13.664062 24.8125 13.644531 24.796875 13.621094 C 24.777344 13.601562 24.761719 13.578125 24.746094 13.554688 C 24.738281 13.546875 24.730469 13.535156 24.722656 13.523438 C 24.714844 13.511719 24.707031 13.5 24.703125 13.484375 C 24.734375 13.53125 24.769531 13.570312 24.808594 13.613281 C 24.824219 13.632812 24.84375 13.652344 24.867188 13.667969 C 24.886719 13.683594 24.914062 13.695312 24.9375 13.703125 C 24.964844 13.707031 24.992188 13.703125 25.015625 13.691406 C 25.039062 13.675781 25.054688 13.652344 25.0625 13.628906 C 25.066406 13.613281 25.070312 13.601562 25.074219 13.589844 C 25.074219 13.574219 25.078125 13.5625 25.078125 13.546875 C 25.082031 13.535156 25.082031 13.519531 25.085938 13.507812 L 25.085938 13.464844 C 25.09375 13.355469 25.089844 13.246094 25.074219 13.136719 C 25.0625 13.027344 25.039062 12.921875 25.019531 12.8125"/><path fill="#9D4D2E" d="M 25.410156 12.757812 L 25.417969 12.800781 L 25.441406 12.917969 L 25.453125 13 C 25.457031 13.027344 25.460938 13.054688 25.464844 13.078125 C 25.472656 13.132812 25.480469 13.1875 25.484375 13.242188 C 25.488281 13.296875 25.492188 13.351562 25.484375 13.410156 C 25.484375 13.4375 25.480469 13.464844 25.472656 13.492188 C 25.472656 13.5 25.472656 13.503906 25.46875 13.511719 C 25.46875 13.519531 25.46875 13.527344 25.464844 13.53125 C 25.460938 13.546875 25.457031 13.5625 25.449219 13.574219 C 25.441406 13.589844 25.433594 13.601562 25.425781 13.613281 C 25.414062 13.625 25.402344 13.636719 25.386719 13.644531 C 25.375 13.65625 25.355469 13.660156 25.339844 13.660156 C 25.324219 13.660156 25.304688 13.660156 25.289062 13.652344 C 25.277344 13.644531 25.261719 13.636719 25.253906 13.625 C 25.242188 13.617188 25.230469 13.605469 25.222656 13.59375 C 25.207031 13.570312 25.191406 13.546875 25.175781 13.527344 C 25.160156 13.503906 25.148438 13.480469 25.132812 13.457031 C 25.128906 13.441406 25.121094 13.429688 25.117188 13.417969 C 25.109375 13.40625 25.105469 13.394531 25.097656 13.382812 L 25.101562 13.378906 C 25.128906 13.425781 25.15625 13.472656 25.1875 13.515625 C 25.203125 13.539062 25.222656 13.558594 25.238281 13.582031 C 25.246094 13.589844 25.257812 13.601562 25.265625 13.609375 C 25.277344 13.617188 25.289062 13.625 25.300781 13.628906 C 25.324219 13.640625 25.351562 13.636719 25.375 13.625 C 25.398438 13.609375 25.414062 13.585938 25.421875 13.5625 C 25.429688 13.550781 25.433594 13.539062 25.4375 13.523438 C 25.4375 13.519531 25.441406 13.511719 25.441406 13.503906 C 25.445312 13.5 25.445312 13.492188 25.445312 13.484375 C 25.453125 13.460938 25.453125 13.433594 25.457031 13.40625 C 25.464844 13.296875 25.453125 13.191406 25.441406 13.082031 L 25.40625 12.757812 L 25.410156 12.757812"/><path fill="#1E0D17" d="M 29.242188 10.492188 C 29.070312 10.625 28.890625 10.746094 28.714844 10.878906 C 28.433594 11.09375 28.0625 11.636719 27.847656 11.917969 C 27.859375 11.902344 27.832031 11.375 27.824219 11.335938 C 27.804688 11.234375 27.847656 11.140625 27.84375 11.035156 C 27.835938 10.828125 27.863281 10.621094 27.917969 10.421875 C 28.03125 10.023438 28.269531 9.65625 28.628906 9.4375 C 28.769531 9.355469 28.921875 9.292969 29.082031 9.257812 C 29.375 9.1875 29.679688 9.195312 29.976562 9.246094 C 30.0625 9.257812 30.167969 9.296875 30.175781 9.382812 C 30.179688 9.457031 30.117188 9.5 30.074219 9.546875 C 30.027344 9.597656 30.101562 9.574219 30.058594 9.632812 C 29.976562 9.753906 29.78125 9.957031 29.691406 10.070312 C 29.554688 10.234375 29.402344 10.367188 29.242188 10.492188"/><path fill="#1E0D17" d="M 31.4375 9.195312 C 31.847656 9.410156 32.164062 9.867188 32.226562 10.316406 C 32.289062 10.765625 32.277344 11.363281 32.1875 11.804688 C 32.183594 11.808594 32.152344 11.796875 32.148438 11.792969 C 31.589844 11.046875 30.863281 10.160156 30.050781 9.699219 C 30.03125 9.6875 30.011719 9.675781 30.003906 9.65625 C 29.992188 9.632812 29.996094 9.605469 30.003906 9.582031 C 30.027344 9.484375 30.035156 9.308594 30.105469 9.230469 C 30.183594 9.136719 30.398438 9.117188 30.515625 9.09375 C 30.824219 9.039062 31.15625 9.050781 31.4375 9.195312"/><path fill="#C66F44" d="M 25.796875 13.054688 C 25.695312 12.9375 25.609375 12.855469 25.457031 12.789062 C 25.378906 12.753906 25.242188 12.710938 25.160156 12.703125 C 25.085938 12.695312 24.976562 12.691406 24.925781 12.730469 C 24.886719 12.765625 24.902344 12.835938 24.972656 12.878906 C 25.046875 12.921875 25.285156 13.003906 25.3125 13.023438 C 25.339844 13.042969 25.34375 13.175781 25.40625 13.265625 C 25.46875 13.359375 25.484375 13.386719 25.484375 13.386719"/><path fill="#9D4D2E" d="M 25.796875 13.054688 C 25.78125 13.039062 25.769531 13.023438 25.753906 13.011719 C 25.738281 12.996094 25.726562 12.980469 25.710938 12.96875 C 25.679688 12.941406 25.648438 12.914062 25.617188 12.890625 C 25.582031 12.867188 25.546875 12.847656 25.511719 12.828125 C 25.472656 12.808594 25.433594 12.792969 25.394531 12.78125 C 25.355469 12.765625 25.316406 12.753906 25.277344 12.742188 C 25.238281 12.730469 25.195312 12.722656 25.15625 12.71875 C 25.117188 12.714844 25.074219 12.710938 25.035156 12.714844 C 25.015625 12.714844 25 12.71875 24.980469 12.722656 C 24.964844 12.730469 24.949219 12.738281 24.9375 12.746094 C 24.929688 12.753906 24.925781 12.769531 24.925781 12.785156 C 24.925781 12.796875 24.929688 12.8125 24.941406 12.828125 C 24.949219 12.839844 24.960938 12.851562 24.976562 12.863281 C 24.992188 12.871094 25.011719 12.882812 25.03125 12.890625 C 25.070312 12.90625 25.109375 12.921875 25.148438 12.941406 L 25.207031 12.964844 C 25.226562 12.972656 25.246094 12.980469 25.265625 12.988281 C 25.273438 12.992188 25.285156 12.996094 25.292969 13 C 25.300781 13.003906 25.304688 13.007812 25.308594 13.007812 C 25.308594 13.007812 25.3125 13.011719 25.3125 13.011719 C 25.3125 13.011719 25.316406 13.011719 25.316406 13.011719 L 25.320312 13.015625 C 25.320312 13.015625 25.320312 13.015625 25.324219 13.015625 C 25.324219 13.019531 25.324219 13.019531 25.328125 13.023438 C 25.332031 13.027344 25.332031 13.03125 25.335938 13.039062 C 25.339844 13.042969 25.339844 13.046875 25.339844 13.050781 C 25.34375 13.0625 25.347656 13.070312 25.347656 13.078125 C 25.355469 13.113281 25.363281 13.148438 25.375 13.183594 C 25.382812 13.203125 25.386719 13.21875 25.394531 13.238281 C 25.398438 13.246094 25.40625 13.253906 25.410156 13.261719 L 25.425781 13.285156 C 25.445312 13.316406 25.46875 13.351562 25.484375 13.386719 C 25.464844 13.351562 25.441406 13.320312 25.417969 13.289062 L 25.402344 13.265625 C 25.398438 13.257812 25.390625 13.246094 25.386719 13.238281 C 25.378906 13.222656 25.371094 13.203125 25.363281 13.1875 C 25.351562 13.152344 25.34375 13.117188 25.332031 13.082031 C 25.332031 13.070312 25.328125 13.0625 25.324219 13.054688 C 25.324219 13.046875 25.320312 13.035156 25.3125 13.027344 C 25.3125 13.023438 25.304688 13.023438 25.300781 13.019531 C 25.296875 13.019531 25.292969 13.015625 25.289062 13.015625 C 25.277344 13.007812 25.269531 13.003906 25.257812 13 C 25.179688 12.96875 25.101562 12.941406 25.023438 12.90625 C 25.003906 12.898438 24.984375 12.886719 24.96875 12.875 C 24.949219 12.867188 24.933594 12.851562 24.921875 12.835938 C 24.910156 12.820312 24.902344 12.800781 24.902344 12.78125 C 24.902344 12.765625 24.910156 12.746094 24.921875 12.734375 C 24.933594 12.71875 24.953125 12.710938 24.972656 12.707031 C 24.992188 12.699219 25.011719 12.699219 25.03125 12.695312 C 25.074219 12.695312 25.113281 12.695312 25.15625 12.699219 C 25.175781 12.703125 25.199219 12.707031 25.21875 12.710938 C 25.238281 12.714844 25.261719 12.71875 25.28125 12.726562 C 25.320312 12.738281 25.363281 12.75 25.402344 12.765625 C 25.441406 12.78125 25.480469 12.796875 25.519531 12.816406 C 25.554688 12.835938 25.589844 12.859375 25.625 12.882812 C 25.691406 12.933594 25.746094 12.992188 25.796875 13.054688"/><path fill="#A6D8F4" d="M 37.398438 15.996094 L 37.875 16.265625 L 37.425781 15.761719 C 37.5 15.265625 37.679688 14.929688 37.679688 14.929688 C 38.277344 15.320312 38.683594 15.707031 38.953125 16.078125 L 38.8125 16.710938 L 39.113281 16.324219 C 39.863281 17.621094 39.003906 18.648438 39.003906 18.648438 C 38.539062 18.390625 38.199219 18.101562 37.953125 17.800781 L 38.296875 17.773438 L 37.640625 17.320312 C 37.414062 16.855469 37.367188 16.390625 37.398438 15.996094"/><path d="M 39.074219 19.828125 C 39.078125 19.746094 39.078125 19.667969 39.078125 19.589844 C 39.078125 19.507812 39.078125 19.429688 39.074219 19.351562 C 39.066406 19.191406 39.058594 19.035156 39.042969 18.878906 C 39.015625 18.5625 38.96875 18.25 38.902344 17.941406 C 38.832031 17.632812 38.742188 17.328125 38.621094 17.035156 C 38.589844 16.964844 38.558594 16.890625 38.523438 16.820312 C 38.492188 16.75 38.453125 16.679688 38.414062 16.609375 C 38.375 16.542969 38.335938 16.472656 38.292969 16.410156 C 38.25 16.34375 38.203125 16.277344 38.15625 16.21875 C 38.203125 16.28125 38.246094 16.34375 38.289062 16.410156 C 38.332031 16.476562 38.375 16.542969 38.410156 16.613281 C 38.449219 16.679688 38.484375 16.75 38.519531 16.824219 C 38.550781 16.894531 38.582031 16.964844 38.613281 17.039062 C 38.730469 17.332031 38.816406 17.636719 38.882812 17.945312 C 38.949219 18.253906 38.992188 18.566406 39.015625 18.878906 C 39.03125 19.039062 39.039062 19.195312 39.042969 19.351562 C 39.042969 19.429688 39.046875 19.511719 39.042969 19.589844 C 39.042969 19.667969 39.042969 19.746094 39.039062 19.824219 L 39.074219 19.828125"/><path fill="#B4DCF9" d="M 41.179688 16.328125 L 40.699219 16.59375 L 41.15625 16.09375 C 41.085938 15.597656 40.910156 15.257812 40.910156 15.257812 C 40.308594 15.640625 39.898438 16.023438 39.625 16.390625 L 39.753906 17.027344 L 39.460938 16.632812 C 38.695312 17.921875 39.542969 18.960938 39.542969 18.960938 C 40.011719 18.707031 40.355469 18.421875 40.601562 18.128906 L 40.261719 18.097656 L 40.917969 17.648438 C 41.15625 17.1875 41.207031 16.722656 41.179688 16.328125"/><path d="M 39.492188 20.136719 C 39.488281 20.058594 39.488281 19.980469 39.488281 19.902344 C 39.488281 19.820312 39.492188 19.742188 39.496094 19.664062 C 39.5 19.507812 39.511719 19.347656 39.527344 19.191406 C 39.554688 18.878906 39.601562 18.566406 39.671875 18.257812 C 39.738281 17.949219 39.832031 17.648438 39.953125 17.355469 C 39.980469 17.285156 40.015625 17.210938 40.046875 17.140625 C 40.082031 17.070312 40.121094 17 40.160156 16.933594 C 40.199219 16.863281 40.238281 16.796875 40.28125 16.730469 C 40.328125 16.667969 40.371094 16.601562 40.421875 16.539062 C 40.371094 16.601562 40.324219 16.664062 40.28125 16.730469 C 40.234375 16.796875 40.195312 16.863281 40.15625 16.929688 C 40.117188 17 40.078125 17.066406 40.042969 17.136719 C 40.007812 17.210938 39.972656 17.28125 39.941406 17.351562 C 39.820312 17.644531 39.726562 17.945312 39.652344 18.253906 C 39.582031 18.5625 39.53125 18.875 39.5 19.191406 C 39.480469 19.347656 39.46875 19.503906 39.464844 19.664062 C 39.460938 19.742188 39.457031 19.820312 39.457031 19.898438 C 39.453125 19.980469 39.453125 20.058594 39.457031 20.136719 L 39.492188 20.136719"/><path fill="#B4DCF9" d="M 36.925781 18.164062 L 37.472656 18.234375 L 36.867188 17.9375 C 36.757812 17.449219 36.796875 17.066406 36.796875 17.066406 C 37.496094 17.203125 38.015625 17.410156 38.398438 17.65625 L 38.507812 18.296875 L 38.640625 17.824219 C 39.816406 18.742188 39.394531 20.019531 39.394531 20.019531 C 38.867188 19.957031 38.445312 19.816406 38.109375 19.628906 L 38.417969 19.476562 L 37.640625 19.300781 C 37.257812 18.953125 37.046875 18.539062 36.925781 18.164062"/><path d="M 39.898438 21.089844 C 39.871094 21.011719 39.84375 20.9375 39.8125 20.867188 C 39.785156 20.792969 39.753906 20.71875 39.722656 20.648438 C 39.65625 20.503906 39.589844 20.359375 39.519531 20.21875 C 39.375 19.9375 39.21875 19.664062 39.039062 19.402344 C 38.863281 19.140625 38.667969 18.894531 38.449219 18.667969 C 38.394531 18.613281 38.335938 18.558594 38.277344 18.503906 C 38.21875 18.453125 38.160156 18.398438 38.101562 18.351562 C 38.039062 18.300781 37.976562 18.253906 37.910156 18.210938 C 37.847656 18.164062 37.78125 18.125 37.710938 18.085938 C 37.78125 18.125 37.84375 18.167969 37.910156 18.210938 C 37.972656 18.257812 38.035156 18.304688 38.097656 18.355469 C 38.15625 18.40625 38.214844 18.457031 38.273438 18.507812 C 38.332031 18.5625 38.386719 18.617188 38.441406 18.675781 C 38.660156 18.902344 38.851562 19.152344 39.023438 19.414062 C 39.199219 19.675781 39.355469 19.949219 39.496094 20.230469 C 39.5625 20.371094 39.628906 20.515625 39.691406 20.660156 C 39.722656 20.734375 39.753906 20.804688 39.78125 20.878906 C 39.808594 20.953125 39.839844 21.027344 39.863281 21.101562 L 39.898438 21.089844"/><g clip-path="url(#c)"><path fill="#A6D8F4" d="M 42.027344 18.097656 L 41.484375 18.179688 L 42.082031 17.871094 C 42.183594 17.378906 42.136719 17 42.136719 17 C 41.441406 17.148438 40.925781 17.367188 40.542969 17.613281 L 40.449219 18.257812 L 40.308594 17.785156 C 39.148438 18.726562 39.589844 19.996094 39.589844 19.996094 C 40.117188 19.925781 40.714844 19.777344 41.046875 19.585938 L 40.558594 19.4375 L 41.332031 19.246094 C 41.710938 18.894531 41.914062 18.476562 42.027344 18.097656"/></g><path d="M 39.140625 21.085938 C 39.164062 21.011719 39.191406 20.9375 39.21875 20.863281 C 39.246094 20.789062 39.273438 20.714844 39.304688 20.640625 C 39.363281 20.496094 39.425781 20.351562 39.496094 20.210938 C 39.628906 19.925781 39.78125 19.648438 39.949219 19.382812 C 40.121094 19.121094 40.308594 18.867188 40.519531 18.636719 C 40.574219 18.578125 40.628906 18.523438 40.6875 18.46875 C 40.742188 18.414062 40.800781 18.359375 40.859375 18.308594 C 40.921875 18.257812 40.980469 18.210938 41.046875 18.164062 C 41.109375 18.117188 41.171875 18.074219 41.242188 18.03125 C 41.171875 18.074219 41.109375 18.117188 41.042969 18.160156 C 40.980469 18.207031 40.917969 18.257812 40.859375 18.304688 C 40.796875 18.355469 40.738281 18.410156 40.679688 18.460938 C 40.625 18.515625 40.570312 18.574219 40.515625 18.628906 C 40.300781 18.859375 40.109375 19.109375 39.933594 19.375 C 39.761719 19.636719 39.609375 19.914062 39.46875 20.199219 C 39.402344 20.339844 39.335938 20.484375 39.277344 20.628906 C 39.246094 20.703125 39.214844 20.777344 39.1875 20.851562 C 39.160156 20.925781 39.132812 21 39.105469 21.074219 L 39.140625 21.085938"/><path fill="#7CB6E9" d="M 37.992188 20.082031 L 38.015625 20.648438 L 38.019531 20.765625 L 38.113281 23 L 40.453125 23 L 40.453125 22.988281 L 40.546875 20.765625 L 40.574219 20.082031 L 37.992188 20.082031"/><path fill="#68A9D6" d="M 37.992188 20.082031 L 38.015625 20.648438 L 38.019531 20.765625 L 40.546875 20.765625 L 40.574219 20.082031 L 37.992188 20.082031"/><path d="M 37.519531 18.25 L 36.925781 18.171875 C 36.921875 18.171875 36.917969 18.167969 36.917969 18.164062 C 36.917969 18.15625 36.921875 18.15625 36.925781 18.15625 L 37.421875 18.222656 L 36.859375 17.945312 L 36.859375 17.941406 C 36.832031 17.84375 36.804688 17.601562 36.804688 17.597656 C 36.804688 17.59375 36.804688 17.589844 36.808594 17.589844 C 36.816406 17.589844 36.820312 17.589844 36.820312 17.597656 C 36.820312 17.597656 36.847656 17.835938 36.871094 17.933594 L 37.519531 18.25"/><path d="M 39.140625 17.625 C 39.136719 17.625 39.132812 17.621094 39.132812 17.617188 C 39.109375 17.210938 39.453125 16.632812 39.457031 16.625 L 39.460938 16.617188 L 39.761719 17.019531 C 39.761719 17.023438 39.761719 17.027344 39.757812 17.03125 C 39.753906 17.035156 39.75 17.03125 39.746094 17.027344 L 39.464844 16.644531 C 39.417969 16.726562 39.125 17.246094 39.148438 17.617188 C 39.148438 17.621094 39.144531 17.625 39.140625 17.625"/><g clip-path="url(#d)"><path d="M 40.453125 18.296875 L 40.304688 17.789062 C 40.300781 17.785156 40.304688 17.777344 40.308594 17.777344 C 40.3125 17.777344 40.316406 17.777344 40.320312 17.785156 L 40.445312 18.222656 L 40.539062 17.613281 L 40.539062 17.609375 C 40.945312 17.265625 42.125 16.996094 42.136719 16.996094 C 42.140625 16.992188 42.144531 16.996094 42.144531 17 C 42.144531 17.003906 42.144531 17.011719 42.136719 17.011719 C 42.125 17.011719 40.957031 17.28125 40.554688 17.621094 L 40.453125 18.296875"/></g><path d="M 39.625 16.398438 C 39.621094 16.398438 39.621094 16.398438 39.617188 16.398438 C 39.613281 16.394531 39.613281 16.390625 39.617188 16.386719 C 40.082031 15.742188 40.902344 15.253906 40.910156 15.25 C 40.914062 15.246094 40.917969 15.246094 40.921875 15.25 C 40.925781 15.253906 40.921875 15.261719 40.917969 15.261719 C 40.910156 15.269531 40.09375 15.753906 39.628906 16.398438 C 39.628906 16.398438 39.625 16.398438 39.625 16.398438"/><path d="M 37.425781 16.683594 C 37.421875 16.683594 37.417969 16.683594 37.417969 16.679688 C 37.363281 16.316406 37.390625 16 37.390625 15.996094 L 37.394531 15.984375 L 37.835938 16.234375 L 37.417969 15.765625 C 37.414062 15.761719 37.414062 15.757812 37.417969 15.753906 C 37.421875 15.75 37.425781 15.75 37.429688 15.753906 L 37.914062 16.296875 L 37.40625 16.011719 C 37.402344 16.074219 37.386719 16.355469 37.433594 16.675781 C 37.4375 16.679688 37.433594 16.683594 37.429688 16.683594 L 37.425781 16.683594"/><path d="M 41.050781 19.589844 C 41.050781 19.589844 41.050781 19.589844 41.046875 19.589844 L 40.53125 19.433594 L 41.332031 19.234375 C 41.335938 19.230469 41.339844 19.234375 41.339844 19.238281 C 41.339844 19.242188 41.339844 19.246094 41.335938 19.25 L 40.59375 19.4375 L 41.054688 19.574219 C 41.058594 19.574219 41.058594 19.578125 41.058594 19.582031 C 41.058594 19.585938 41.054688 19.589844 41.050781 19.589844"/><path fill="#68A9D6" d="M 38.015625 20.648438 L 38.113281 23 L 40.453125 23 L 40.453125 22.988281 C 38.617188 22.703125 38.125 21.511719 38.015625 20.648438"/><path fill="#7CB6E9" d="M 37.988281 20.691406 L 40.578125 20.691406 C 40.660156 20.691406 40.726562 20.625 40.726562 20.542969 L 40.726562 20.042969 C 40.726562 19.960938 40.660156 19.894531 40.578125 19.894531 L 37.988281 19.894531 C 37.90625 19.894531 37.839844 19.960938 37.839844 20.042969 L 37.839844 20.542969 C 37.839844 20.625 37.90625 20.691406 37.988281 20.691406"/><path fill="#A6D5FD" d="M 21.929688 19.960938 L 21.703125 22.960938 L 19.285156 22.960938 L 19.0625 19.960938 C 19.054688 19.886719 19.085938 19.820312 19.136719 19.773438 C 19.175781 19.738281 19.226562 19.714844 19.285156 19.714844 L 21.707031 19.714844 C 21.835938 19.714844 21.941406 19.828125 21.929688 19.960938"/><path fill="#A6D5FD" d="M 21.746094 22.320312 L 21.507812 22.28125 C 21.527344 22.144531 21.574219 22.015625 21.640625 21.894531 C 21.765625 21.675781 21.949219 21.511719 22.128906 21.355469 L 22.148438 21.339844 C 22.332031 21.179688 22.492188 21.03125 22.582031 20.839844 C 22.660156 20.679688 22.6875 20.445312 22.5625 20.292969 C 22.476562 20.1875 22.320312 20.132812 22.164062 20.152344 C 22.019531 20.175781 21.871094 20.257812 21.75 20.390625 L 21.574219 20.222656 C 21.730469 20.050781 21.929688 19.9375 22.128906 19.910156 C 22.371094 19.875 22.613281 19.964844 22.753906 20.140625 C 22.921875 20.347656 22.941406 20.664062 22.800781 20.949219 C 22.691406 21.179688 22.503906 21.351562 22.308594 21.523438 L 22.289062 21.542969 C 22.125 21.6875 21.957031 21.835938 21.855469 22.015625 C 21.800781 22.109375 21.765625 22.214844 21.746094 22.320312"/><path fill="#8DC3ED" d="M 21.695312 22.960938 L 19.285156 22.960938 L 19.0625 19.960938 C 19.0625 19.953125 19.0625 19.949219 19.0625 19.941406 C 19.058594 19.875 19.089844 19.816406 19.136719 19.773438 C 19.402344 20.632812 20.152344 22.523438 21.695312 22.960938"/><path fill="#1A1A1A" d="M 22.679688 21.144531 C 22.679688 21.144531 22.675781 21.144531 22.675781 21.144531 C 22.667969 21.140625 22.667969 21.132812 22.671875 21.128906 C 22.785156 20.941406 22.910156 20.699219 22.871094 20.449219 C 22.851562 20.292969 22.765625 20.148438 22.640625 20.054688 C 22.492188 19.9375 22.277344 19.894531 22.058594 19.9375 C 22.054688 19.9375 22.046875 19.933594 22.046875 19.925781 C 22.042969 19.921875 22.050781 19.914062 22.054688 19.914062 C 22.28125 19.871094 22.5 19.914062 22.65625 20.035156 C 22.785156 20.132812 22.875 20.285156 22.898438 20.445312 C 22.933594 20.703125 22.804688 20.953125 22.691406 21.140625 C 22.6875 21.144531 22.683594 21.144531 22.679688 21.144531"/><path fill="#1A1A1A" d="M 19.113281 20.65625 C 19.105469 20.65625 19.101562 20.652344 19.097656 20.644531 L 19.058594 20.050781 C 19.054688 19.988281 19.054688 19.941406 19.0625 19.898438 C 19.070312 19.839844 19.089844 19.796875 19.117188 19.765625 C 19.15625 19.726562 19.214844 19.710938 19.261719 19.703125 C 19.324219 19.695312 19.390625 19.695312 19.480469 19.703125 C 19.484375 19.703125 19.492188 19.703125 19.496094 19.703125 C 19.503906 19.703125 19.507812 19.710938 19.507812 19.71875 C 19.507812 19.722656 19.503906 19.726562 19.496094 19.726562 C 19.488281 19.726562 19.484375 19.726562 19.476562 19.726562 C 19.390625 19.71875 19.324219 19.71875 19.265625 19.730469 C 19.222656 19.734375 19.167969 19.75 19.136719 19.785156 C 19.109375 19.808594 19.09375 19.847656 19.085938 19.902344 C 19.082031 19.945312 19.078125 19.988281 19.082031 20.050781 L 19.125 20.644531 C 19.125 20.648438 19.117188 20.65625 19.113281 20.65625"/><path fill="#FFF" d="M 20.402344 19.414062 C 20.363281 19.4375 20.328125 19.464844 20.296875 19.496094 C 20.257812 19.535156 20.246094 19.535156 20.261719 19.476562 C 20.304688 19.316406 20.425781 19.191406 20.503906 19.050781 C 20.632812 18.824219 20.597656 18.574219 20.484375 18.351562 C 20.390625 18.160156 20.261719 17.972656 20.242188 17.757812 C 20.21875 17.53125 20.320312 17.3125 20.4375 17.117188 C 20.554688 16.925781 20.695312 16.738281 20.761719 16.519531 C 20.734375 16.609375 20.761719 16.71875 20.746094 16.8125 C 20.730469 16.917969 20.695312 17.019531 20.65625 17.117188 C 20.574219 17.308594 20.464844 17.507812 20.496094 17.722656 C 20.519531 17.894531 20.628906 18.039062 20.714844 18.183594 C 20.832031 18.375 20.859375 18.59375 20.816406 18.808594 C 20.777344 19 20.699219 19.203125 20.542969 19.324219 C 20.5 19.359375 20.449219 19.386719 20.402344 19.414062"/><path fill="#FFF" d="M 21.175781 19.308594 C 21.15625 19.320312 21.136719 19.335938 21.121094 19.351562 C 21.101562 19.375 21.09375 19.375 21.101562 19.34375 C 21.125 19.257812 21.1875 19.191406 21.230469 19.117188 C 21.296875 18.996094 21.277344 18.867188 21.21875 18.746094 C 21.167969 18.644531 21.101562 18.546875 21.089844 18.433594 C 21.078125 18.3125 21.132812 18.199219 21.195312 18.09375 C 21.257812 17.992188 21.328125 17.894531 21.367188 17.777344 C 21.351562 17.824219 21.367188 17.882812 21.359375 17.933594 C 21.351562 17.988281 21.332031 18.042969 21.308594 18.09375 C 21.265625 18.195312 21.207031 18.300781 21.222656 18.414062 C 21.238281 18.503906 21.292969 18.582031 21.34375 18.660156 C 21.402344 18.757812 21.417969 18.875 21.394531 18.988281 C 21.375 19.089844 21.332031 19.199219 21.25 19.261719 C 21.226562 19.28125 21.199219 19.292969 21.175781 19.308594"/><g clip-path="url(#e)"><path fill="#FFF" d="M 34.179688 17.816406 L 33.914062 23.039062 L 25.828125 23.039062 L 25.5625 17.816406 C 25.5625 17.742188 25.582031 17.671875 25.613281 17.609375 C 25.6875 17.46875 25.832031 17.375 26 17.375 L 33.742188 17.375 C 33.984375 17.375 34.179688 17.574219 34.179688 17.816406"/></g><path fill="#CBCBCB" d="M 30.46875 20.375 C 30.46875 20.664062 30.238281 20.894531 29.953125 20.894531 C 29.667969 20.894531 29.4375 20.664062 29.4375 20.375 C 29.4375 20.085938 29.667969 19.855469 29.953125 19.855469 C 30.238281 19.855469 30.46875 20.085938 30.46875 20.375"/><g clip-path="url(#f)"><path fill="#F5F5F5" d="M 25.828125 23.039062 L 25.5625 17.816406 C 25.5625 17.742188 25.582031 17.671875 25.613281 17.609375 C 25.992188 18.59375 27.90625 21.984375 33.914062 22.992188 L 33.914062 23.039062 L 25.828125 23.039062"/></g><path fill="#FFC500" d="M 31.289062 2.394531 C 31.289062 2.695312 31.199219 2.980469 31.042969 3.210938 C 31.007812 3.269531 30.964844 3.320312 30.921875 3.371094 C 30.824219 3.484375 30.742188 3.609375 30.683594 3.746094 C 30.625 3.882812 30.585938 4.027344 30.566406 4.175781 C 30.539062 4.429688 30.324219 4.617188 30.074219 4.617188 L 29.671875 4.617188 C 29.546875 4.617188 29.429688 4.570312 29.34375 4.492188 C 29.253906 4.414062 29.195312 4.300781 29.179688 4.175781 C 29.144531 3.878906 29.023438 3.59375 28.824219 3.371094 C 28.597656 3.113281 28.457031 2.769531 28.457031 2.394531 C 28.457031 1.589844 29.089844 0.9375 29.875 0.9375 C 29.957031 0.9375 30.035156 0.945312 30.113281 0.957031 C 30.453125 1.019531 30.75 1.199219 30.960938 1.460938 C 31.164062 1.714844 31.289062 2.039062 31.289062 2.394531"/><path fill="#FFB500" d="M 31.042969 3.210938 C 31.199219 2.003906 30.535156 1.285156 30.113281 0.957031 C 30.453125 1.019531 30.75 1.199219 30.960938 1.460938 C 31.164062 1.714844 31.289062 2.039062 31.289062 2.394531 C 31.289062 2.695312 31.199219 2.976562 31.042969 3.210938"/><path fill="#FFF" d="M 29.6875 3.605469 C 29.675781 3.347656 29.644531 3.089844 29.597656 2.835938 C 29.574219 2.710938 29.546875 2.582031 29.519531 2.457031 C 29.488281 2.335938 29.457031 2.214844 29.421875 2.09375 C 29.386719 1.984375 29.28125 1.898438 29.167969 1.886719 C 29.136719 1.882812 29.105469 1.890625 29.082031 1.910156 C 29.058594 1.929688 29.046875 1.960938 29.050781 1.988281 C 29.054688 2.019531 29.066406 2.046875 29.078125 2.078125 C 29.089844 2.101562 29.101562 2.121094 29.113281 2.144531 C 29.21875 2.320312 29.410156 2.460938 29.621094 2.453125 C 29.820312 2.445312 30.019531 2.304688 30.070312 2.105469 C 30.078125 2.078125 30.082031 2.050781 30.082031 2.023438 C 30.078125 1.988281 30.0625 1.957031 30.035156 1.933594 C 29.988281 1.898438 29.917969 1.910156 29.875 1.945312 C 29.828125 1.984375 29.8125 2.050781 29.8125 2.109375 C 29.816406 2.164062 29.832031 2.214844 29.855469 2.261719 C 29.90625 2.355469 30 2.425781 30.097656 2.457031 C 30.207031 2.488281 30.328125 2.46875 30.429688 2.421875 C 30.480469 2.398438 30.527344 2.363281 30.570312 2.328125 C 30.613281 2.289062 30.652344 2.246094 30.671875 2.199219 C 30.695312 2.144531 30.707031 2.078125 30.671875 2.027344 C 30.652344 2 30.625 1.980469 30.59375 1.972656 C 30.5625 1.96875 30.53125 1.96875 30.503906 1.980469 C 30.476562 1.992188 30.449219 2.007812 30.429688 2.03125 C 30.40625 2.058594 30.390625 2.089844 30.378906 2.121094 C 30.359375 2.175781 30.34375 2.234375 30.332031 2.292969 C 30.296875 2.421875 30.269531 2.550781 30.246094 2.679688 C 30.195312 2.941406 30.160156 3.207031 30.140625 3.472656 C 30.136719 3.535156 30.132812 3.601562 30.132812 3.664062 C 30.128906 3.691406 30.15625 3.714844 30.179688 3.714844 C 30.210938 3.710938 30.230469 3.691406 30.230469 3.664062 C 30.234375 3.539062 30.246094 3.417969 30.257812 3.292969 C 30.261719 3.230469 30.269531 3.167969 30.277344 3.109375 C 30.277344 3.09375 30.28125 3.078125 30.28125 3.0625 C 30.28125 3.078125 30.28125 3.0625 30.28125 3.0625 C 30.285156 3.058594 30.285156 3.054688 30.285156 3.050781 C 30.285156 3.042969 30.285156 3.03125 30.289062 3.023438 C 30.292969 2.996094 30.296875 2.964844 30.300781 2.933594 C 30.339844 2.6875 30.390625 2.445312 30.457031 2.207031 C 30.460938 2.195312 30.464844 2.183594 30.464844 2.171875 C 30.46875 2.167969 30.46875 2.160156 30.472656 2.15625 C 30.472656 2.152344 30.472656 2.148438 30.476562 2.148438 C 30.476562 2.144531 30.476562 2.144531 30.476562 2.140625 C 30.476562 2.148438 30.476562 2.148438 30.476562 2.144531 C 30.480469 2.132812 30.488281 2.121094 30.492188 2.113281 C 30.496094 2.109375 30.496094 2.105469 30.5 2.105469 C 30.503906 2.097656 30.496094 2.105469 30.496094 2.105469 C 30.496094 2.101562 30.511719 2.089844 30.511719 2.089844 C 30.515625 2.089844 30.515625 2.085938 30.519531 2.085938 C 30.523438 2.082031 30.507812 2.09375 30.515625 2.085938 C 30.519531 2.082031 30.527344 2.082031 30.53125 2.078125 C 30.53125 2.078125 30.542969 2.074219 30.53125 2.078125 C 30.523438 2.078125 30.535156 2.074219 30.535156 2.074219 C 30.542969 2.074219 30.546875 2.070312 30.554688 2.070312 C 30.5625 2.066406 30.542969 2.070312 30.550781 2.070312 C 30.554688 2.070312 30.554688 2.070312 30.558594 2.070312 C 30.5625 2.070312 30.5625 2.070312 30.566406 2.070312 C 30.570312 2.070312 30.574219 2.074219 30.5625 2.070312 C 30.566406 2.070312 30.574219 2.070312 30.578125 2.074219 C 30.585938 2.074219 30.582031 2.074219 30.574219 2.070312 C 30.578125 2.074219 30.582031 2.074219 30.585938 2.078125 C 30.589844 2.082031 30.582031 2.074219 30.582031 2.074219 C 30.582031 2.074219 30.585938 2.078125 30.585938 2.082031 C 30.589844 2.082031 30.589844 2.082031 30.589844 2.082031 C 30.59375 2.085938 30.59375 2.085938 30.585938 2.078125 C 30.589844 2.082031 30.589844 2.082031 30.589844 2.085938 C 30.59375 2.085938 30.59375 2.089844 30.59375 2.089844 C 30.597656 2.097656 30.589844 2.078125 30.59375 2.089844 C 30.59375 2.089844 30.59375 2.09375 30.59375 2.097656 C 30.597656 2.097656 30.597656 2.097656 30.597656 2.101562 C 30.597656 2.105469 30.597656 2.105469 30.597656 2.09375 C 30.59375 2.101562 30.597656 2.105469 30.597656 2.109375 C 30.597656 2.113281 30.597656 2.113281 30.597656 2.117188 C 30.59375 2.128906 30.597656 2.105469 30.597656 2.117188 C 30.59375 2.121094 30.59375 2.125 30.59375 2.128906 C 30.589844 2.132812 30.589844 2.136719 30.589844 2.140625 C 30.589844 2.140625 30.585938 2.148438 30.585938 2.148438 C 30.585938 2.148438 30.589844 2.140625 30.585938 2.148438 C 30.585938 2.148438 30.585938 2.152344 30.582031 2.15625 C 30.582031 2.160156 30.578125 2.167969 30.574219 2.171875 C 30.570312 2.175781 30.570312 2.179688 30.566406 2.183594 C 30.566406 2.1875 30.5625 2.1875 30.5625 2.191406 C 30.558594 2.195312 30.558594 2.195312 30.558594 2.195312 C 30.5625 2.191406 30.5625 2.191406 30.558594 2.195312 C 30.542969 2.210938 30.527344 2.230469 30.507812 2.246094 C 30.5 2.257812 30.492188 2.265625 30.480469 2.273438 C 30.480469 2.273438 30.476562 2.273438 30.476562 2.277344 C 30.464844 2.285156 30.484375 2.269531 30.476562 2.277344 C 30.46875 2.28125 30.464844 2.285156 30.457031 2.289062 C 30.4375 2.304688 30.417969 2.316406 30.394531 2.328125 C 30.386719 2.332031 30.382812 2.335938 30.375 2.335938 C 30.375 2.339844 30.371094 2.339844 30.367188 2.339844 C 30.355469 2.347656 30.375 2.339844 30.367188 2.339844 C 30.355469 2.34375 30.34375 2.351562 30.332031 2.355469 C 30.308594 2.363281 30.285156 2.367188 30.261719 2.371094 C 30.273438 2.367188 30.265625 2.371094 30.261719 2.371094 C 30.257812 2.371094 30.253906 2.371094 30.25 2.371094 C 30.246094 2.371094 30.238281 2.371094 30.234375 2.371094 C 30.222656 2.375 30.207031 2.375 30.195312 2.371094 C 30.1875 2.371094 30.183594 2.371094 30.175781 2.371094 C 30.171875 2.371094 30.167969 2.371094 30.167969 2.371094 C 30.167969 2.371094 30.179688 2.371094 30.171875 2.371094 C 30.160156 2.367188 30.148438 2.367188 30.136719 2.363281 C 30.125 2.359375 30.117188 2.355469 30.105469 2.351562 C 30.101562 2.351562 30.101562 2.351562 30.097656 2.351562 C 30.09375 2.347656 30.085938 2.34375 30.097656 2.351562 C 30.09375 2.347656 30.089844 2.347656 30.082031 2.34375 C 30.0625 2.332031 30.042969 2.320312 30.023438 2.308594 C 30.023438 2.304688 30.015625 2.300781 30.027344 2.308594 C 30.023438 2.304688 30.019531 2.304688 30.019531 2.304688 C 30.015625 2.300781 30.011719 2.296875 30.007812 2.292969 C 30 2.285156 29.992188 2.277344 29.984375 2.269531 C 29.980469 2.265625 29.976562 2.261719 29.972656 2.253906 C 29.96875 2.253906 29.96875 2.253906 29.96875 2.25 C 29.960938 2.242188 29.972656 2.261719 29.96875 2.25 C 29.960938 2.242188 29.953125 2.234375 29.949219 2.222656 C 29.945312 2.214844 29.9375 2.203125 29.933594 2.195312 C 29.933594 2.191406 29.933594 2.1875 29.929688 2.1875 C 29.9375 2.199219 29.933594 2.191406 29.929688 2.1875 C 29.929688 2.183594 29.925781 2.175781 29.925781 2.171875 C 29.921875 2.160156 29.917969 2.152344 29.917969 2.140625 C 29.917969 2.136719 29.914062 2.117188 29.914062 2.132812 C 29.914062 2.128906 29.914062 2.121094 29.914062 2.117188 C 29.914062 2.105469 29.914062 2.09375 29.914062 2.082031 C 29.914062 2.082031 29.914062 2.078125 29.914062 2.074219 C 29.914062 2.078125 29.914062 2.078125 29.914062 2.082031 C 29.914062 2.078125 29.914062 2.078125 29.914062 2.074219 C 29.917969 2.070312 29.917969 2.0625 29.917969 2.058594 C 29.921875 2.054688 29.921875 2.050781 29.921875 2.046875 C 29.921875 2.046875 29.925781 2.039062 29.921875 2.046875 C 29.917969 2.054688 29.921875 2.042969 29.925781 2.042969 C 29.925781 2.039062 29.925781 2.039062 29.929688 2.035156 C 29.929688 2.03125 29.929688 2.03125 29.933594 2.027344 C 29.9375 2.019531 29.925781 2.035156 29.933594 2.027344 C 29.9375 2.023438 29.941406 2.019531 29.945312 2.015625 C 29.941406 2.023438 29.9375 2.019531 29.945312 2.019531 C 29.945312 2.015625 29.949219 2.015625 29.949219 2.015625 C 29.953125 2.011719 29.9375 2.019531 29.945312 2.015625 C 29.949219 2.015625 29.949219 2.015625 29.953125 2.015625 C 29.953125 2.015625 29.957031 2.015625 29.960938 2.011719 C 29.949219 2.015625 29.949219 2.015625 29.953125 2.015625 C 29.960938 2.011719 29.964844 2.015625 29.96875 2.015625 C 29.957031 2.015625 29.960938 2.011719 29.96875 2.015625 C 29.96875 2.015625 29.96875 2.015625 29.972656 2.015625 C 29.972656 2.015625 29.976562 2.015625 29.976562 2.015625 C 29.964844 2.015625 29.96875 2.011719 29.976562 2.015625 C 29.976562 2.015625 29.980469 2.019531 29.980469 2.019531 C 29.988281 2.023438 29.972656 2.011719 29.976562 2.015625 C 29.976562 2.019531 29.980469 2.019531 29.980469 2.019531 C 29.988281 2.027344 29.976562 2.011719 29.980469 2.019531 C 29.980469 2.019531 29.984375 2.023438 29.984375 2.023438 C 29.976562 2.015625 29.980469 2.015625 29.980469 2.019531 C 29.980469 2.019531 29.980469 2.019531 29.980469 2.023438 C 29.984375 2.027344 29.984375 2.027344 29.980469 2.019531 C 29.984375 2.019531 29.980469 2.027344 29.980469 2.03125 C 29.980469 2.035156 29.980469 2.042969 29.980469 2.046875 C 29.980469 2.058594 29.984375 2.035156 29.980469 2.046875 C 29.980469 2.050781 29.980469 2.054688 29.980469 2.058594 C 29.976562 2.078125 29.96875 2.097656 29.960938 2.121094 C 29.960938 2.121094 29.960938 2.125 29.957031 2.128906 C 29.957031 2.125 29.964844 2.117188 29.960938 2.121094 C 29.957031 2.128906 29.957031 2.132812 29.953125 2.136719 C 29.949219 2.148438 29.941406 2.15625 29.9375 2.167969 C 29.929688 2.175781 29.925781 2.183594 29.921875 2.195312 C 29.917969 2.195312 29.917969 2.199219 29.914062 2.199219 C 29.914062 2.199219 29.921875 2.191406 29.917969 2.195312 C 29.914062 2.203125 29.910156 2.207031 29.90625 2.210938 C 29.890625 2.226562 29.875 2.242188 29.859375 2.257812 C 29.855469 2.261719 29.851562 2.265625 29.847656 2.265625 C 29.839844 2.273438 29.855469 2.261719 29.847656 2.265625 C 29.847656 2.269531 29.84375 2.269531 29.84375 2.269531 C 29.832031 2.277344 29.824219 2.285156 29.8125 2.289062 C 29.792969 2.300781 29.777344 2.3125 29.753906 2.320312 C 29.746094 2.324219 29.757812 2.320312 29.757812 2.320312 C 29.757812 2.320312 29.753906 2.320312 29.75 2.324219 C 29.746094 2.324219 29.742188 2.328125 29.734375 2.328125 C 29.722656 2.332031 29.714844 2.335938 29.703125 2.339844 C 29.691406 2.34375 29.683594 2.34375 29.671875 2.347656 C 29.667969 2.347656 29.664062 2.347656 29.65625 2.347656 C 29.65625 2.347656 29.652344 2.351562 29.648438 2.351562 C 29.664062 2.347656 29.652344 2.351562 29.648438 2.351562 C 29.628906 2.351562 29.605469 2.351562 29.585938 2.351562 C 29.578125 2.351562 29.574219 2.351562 29.570312 2.351562 C 29.566406 2.351562 29.542969 2.347656 29.5625 2.351562 C 29.550781 2.347656 29.539062 2.347656 29.527344 2.34375 C 29.503906 2.339844 29.484375 2.332031 29.460938 2.324219 C 29.457031 2.324219 29.453125 2.320312 29.445312 2.320312 C 29.4375 2.316406 29.457031 2.324219 29.449219 2.320312 C 29.445312 2.320312 29.445312 2.316406 29.441406 2.316406 C 29.429688 2.3125 29.421875 2.308594 29.410156 2.300781 C 29.390625 2.289062 29.371094 2.277344 29.351562 2.265625 C 29.347656 2.261719 29.34375 2.257812 29.339844 2.253906 C 29.328125 2.246094 29.347656 2.261719 29.339844 2.253906 C 29.335938 2.253906 29.335938 2.253906 29.335938 2.25 C 29.324219 2.242188 29.316406 2.234375 29.308594 2.226562 C 29.289062 2.210938 29.273438 2.195312 29.257812 2.175781 C 29.25 2.167969 29.246094 2.160156 29.238281 2.152344 C 29.246094 2.164062 29.234375 2.148438 29.234375 2.144531 C 29.230469 2.140625 29.226562 2.132812 29.222656 2.128906 C 29.210938 2.109375 29.195312 2.089844 29.1875 2.070312 C 29.179688 2.058594 29.175781 2.050781 29.171875 2.039062 C 29.167969 2.035156 29.167969 2.027344 29.164062 2.023438 C 29.171875 2.035156 29.167969 2.027344 29.164062 2.023438 C 29.164062 2.023438 29.164062 2.019531 29.160156 2.015625 C 29.15625 2.003906 29.152344 1.996094 29.152344 1.984375 C 29.148438 1.980469 29.152344 1.972656 29.148438 1.988281 C 29.148438 1.984375 29.148438 1.980469 29.148438 1.980469 C 29.148438 1.976562 29.152344 1.96875 29.148438 1.980469 C 29.148438 1.988281 29.152344 1.980469 29.152344 1.976562 C 29.148438 1.988281 29.144531 1.988281 29.148438 1.980469 C 29.152344 1.972656 29.140625 1.992188 29.148438 1.984375 C 29.15625 1.976562 29.136719 1.992188 29.144531 1.984375 C 29.152344 1.980469 29.132812 1.988281 29.144531 1.988281 C 29.144531 1.984375 29.148438 1.984375 29.148438 1.984375 C 29.15625 1.984375 29.144531 1.984375 29.144531 1.984375 C 29.148438 1.988281 29.152344 1.984375 29.15625 1.984375 C 29.15625 1.984375 29.160156 1.984375 29.164062 1.984375 C 29.148438 1.988281 29.15625 1.984375 29.160156 1.984375 C 29.167969 1.988281 29.171875 1.988281 29.175781 1.988281 C 29.183594 1.992188 29.1875 1.992188 29.195312 1.996094 C 29.195312 1.996094 29.195312 1.996094 29.199219 1.996094 C 29.203125 1.996094 29.214844 2.003906 29.203125 1.996094 C 29.210938 2.003906 29.222656 2.007812 29.230469 2.011719 C 29.238281 2.015625 29.242188 2.019531 29.246094 2.023438 C 29.25 2.023438 29.25 2.023438 29.253906 2.027344 C 29.253906 2.027344 29.257812 2.027344 29.257812 2.03125 C 29.261719 2.03125 29.261719 2.03125 29.253906 2.027344 C 29.257812 2.03125 29.265625 2.035156 29.269531 2.039062 C 29.273438 2.042969 29.277344 2.046875 29.28125 2.050781 C 29.285156 2.054688 29.289062 2.058594 29.292969 2.0625 C 29.292969 2.066406 29.296875 2.066406 29.296875 2.070312 C 29.296875 2.070312 29.300781 2.070312 29.300781 2.074219 C 29.296875 2.066406 29.296875 2.066406 29.296875 2.070312 C 29.304688 2.078125 29.3125 2.089844 29.316406 2.097656 C 29.316406 2.101562 29.320312 2.105469 29.320312 2.105469 C 29.324219 2.109375 29.320312 2.117188 29.320312 2.105469 C 29.320312 2.109375 29.324219 2.117188 29.324219 2.121094 C 29.335938 2.148438 29.34375 2.179688 29.351562 2.207031 C 29.367188 2.265625 29.382812 2.320312 29.394531 2.378906 C 29.425781 2.496094 29.453125 2.613281 29.476562 2.730469 C 29.5 2.851562 29.519531 2.96875 29.539062 3.089844 C 29.539062 3.101562 29.542969 3.117188 29.542969 3.132812 C 29.546875 3.136719 29.546875 3.144531 29.546875 3.152344 C 29.550781 3.164062 29.546875 3.140625 29.546875 3.152344 C 29.546875 3.160156 29.546875 3.164062 29.550781 3.167969 C 29.554688 3.195312 29.558594 3.226562 29.558594 3.257812 C 29.566406 3.316406 29.574219 3.375 29.578125 3.433594 C 29.582031 3.492188 29.585938 3.546875 29.589844 3.605469 C 29.589844 3.632812 29.609375 3.65625 29.636719 3.65625 C 29.664062 3.65625 29.691406 3.632812 29.6875 3.605469"/><path fill="#666" d="M 30.320312 4.871094 L 29.425781 4.871094 C 29.386719 4.871094 29.351562 4.835938 29.351562 4.792969 C 29.351562 4.753906 29.386719 4.71875 29.425781 4.71875 L 30.320312 4.71875 C 30.359375 4.71875 30.394531 4.753906 30.394531 4.792969 C 30.394531 4.835938 30.359375 4.871094 30.320312 4.871094"/><path fill="#666" d="M 30.28125 5.058594 L 29.464844 5.058594 C 29.421875 5.058594 29.390625 5.023438 29.390625 4.984375 L 29.390625 4.980469 C 29.390625 4.941406 29.421875 4.90625 29.464844 4.90625 L 30.28125 4.90625 C 30.324219 4.90625 30.359375 4.941406 30.359375 4.980469 L 30.359375 4.984375 C 30.359375 5.023438 30.324219 5.058594 30.28125 5.058594"/><path fill="#666" d="M 30.234375 5.246094 L 29.511719 5.246094 C 29.472656 5.246094 29.4375 5.210938 29.4375 5.171875 C 29.4375 5.128906 29.472656 5.09375 29.511719 5.09375 L 30.234375 5.09375 C 30.273438 5.09375 30.308594 5.128906 30.308594 5.171875 C 30.308594 5.210938 30.273438 5.246094 30.234375 5.246094"/><path fill="#FFAD00" d="M 29.871094 0.75 C 29.855469 0.75 29.839844 0.734375 29.839844 0.714844 L 29.839844 0.0351562 C 29.839844 0.015625 29.855469 0 29.871094 0 C 29.890625 0 29.90625 0.015625 29.90625 0.0351562 L 29.90625 0.714844 C 29.90625 0.734375 29.890625 0.75 29.871094 0.75"/><path fill="#FFAD00" d="M 30.785156 1 C 30.78125 1 30.773438 1 30.769531 0.996094 C 30.753906 0.988281 30.75 0.964844 30.757812 0.949219 L 31.09375 0.359375 C 31.105469 0.34375 31.125 0.339844 31.140625 0.347656 C 31.15625 0.355469 31.160156 0.375 31.152344 0.394531 L 30.816406 0.984375 C 30.808594 0.996094 30.796875 1 30.785156 1"/><path fill="#FFAD00" d="M 31.339844 1.6875 C 31.332031 1.6875 31.320312 1.679688 31.3125 1.671875 C 31.304688 1.65625 31.308594 1.632812 31.324219 1.625 L 31.910156 1.285156 C 31.925781 1.273438 31.945312 1.28125 31.953125 1.296875 C 31.964844 1.3125 31.957031 1.332031 31.941406 1.339844 L 31.359375 1.683594 C 31.351562 1.6875 31.347656 1.6875 31.339844 1.6875"/><path fill="#FFAD00" d="M 28.9375 1 C 28.925781 1 28.914062 0.996094 28.910156 0.984375 L 28.570312 0.394531 C 28.5625 0.375 28.566406 0.355469 28.582031 0.347656 C 28.597656 0.339844 28.621094 0.34375 28.628906 0.359375 L 28.964844 0.949219 C 28.976562 0.964844 28.96875 0.988281 28.953125 0.996094 C 28.949219 1 28.941406 1 28.9375 1"/><path fill="#FFAD00" d="M 28.398438 1.6875 C 28.394531 1.6875 28.386719 1.683594 28.382812 1.683594 L 27.796875 1.339844 C 27.78125 1.332031 27.777344 1.3125 27.785156 1.296875 C 27.792969 1.28125 27.816406 1.273438 27.832031 1.285156 L 28.414062 1.625 C 28.429688 1.632812 28.4375 1.652344 28.425781 1.671875 C 28.421875 1.679688 28.410156 1.6875 28.398438 1.6875"/><g clip-path="url(#g)"><path fill="#808080" d="M 41.859375 23.398438 L 17.878906 23.398438 C 17.785156 23.398438 17.710938 23.320312 17.710938 23.226562 L 17.710938 23.136719 C 17.710938 23.042969 17.785156 22.96875 17.878906 22.96875 L 41.859375 22.96875 C 41.953125 22.96875 42.03125 23.042969 42.03125 23.136719 L 42.03125 23.226562 C 42.03125 23.320312 41.953125 23.398438 41.859375 23.398438"/></g><g fill="#F41BF1"><g><g><path d="M 2.3125 -3.011719 C 2.253906 -3.011719 2.222656 -2.984375 2.136719 -2.984375 C 1.921875 -2.984375 1.597656 -3.171875 1.28125 -3.171875 C 0.851562 -3.171875 0.589844 -2.921875 0.589844 -2.539062 C 0.589844 -2.421875 0.667969 -2.351562 0.746094 -2.351562 C 0.820312 -2.351562 0.890625 -2.410156 0.890625 -2.539062 C 0.890625 -2.773438 1.003906 -2.890625 1.300781 -2.890625 C 1.460938 -2.890625 1.582031 -2.855469 1.699219 -2.8125 C 1.710938 -2.667969 1.722656 -2.46875 1.722656 -2.230469 C 1.722656 -0.90625 1.539062 -0.246094 1.128906 -0.246094 C 0.890625 -0.246094 0.683594 -0.449219 0.683594 -0.839844 C 0.683594 -1.082031 0.714844 -1.21875 0.714844 -1.300781 C 0.714844 -1.398438 0.660156 -1.464844 0.570312 -1.464844 C 0.484375 -1.464844 0.417969 -1.402344 0.40625 -1.304688 C 0.382812 -1.132812 0.375 -0.980469 0.375 -0.839844 C 0.375 -0.296875 0.695312 0.0351562 1.121094 0.0351562 C 1.78125 0.0351562 2.03125 -0.671875 2.03125 -2.230469 C 2.03125 -2.347656 2.03125 -2.535156 2.019531 -2.714844 C 2.050781 -2.710938 2.085938 -2.703125 2.125 -2.703125 C 2.304688 -2.703125 2.425781 -2.777344 2.425781 -2.890625 C 2.425781 -2.960938 2.378906 -3.011719 2.3125 -3.011719 Z M 2.3125 -3.011719" transform="translate(18.62 27.624)"/></g></g></g><g fill="#F41BF1"><g><g><path d="M 2.191406 -1.035156 C 1.980469 -0.507812 1.835938 -0.257812 1.722656 -0.257812 C 1.628906 -0.257812 1.558594 -0.332031 1.558594 -0.589844 C 1.558594 -1.027344 1.621094 -1.546875 1.621094 -1.640625 C 1.621094 -1.734375 1.558594 -1.792969 1.480469 -1.792969 C 1.40625 -1.792969 1.347656 -1.734375 1.316406 -1.644531 C 1.199219 -1.730469 1.058594 -1.769531 0.941406 -1.769531 C 0.523438 -1.769531 0.105469 -1.347656 0.105469 -0.730469 C 0.105469 -0.253906 0.375 0.0195312 0.714844 0.0195312 C 0.917969 0.0195312 1.117188 -0.0742188 1.292969 -0.347656 C 1.359375 -0.101562 1.503906 0.0195312 1.703125 0.0195312 C 1.960938 0.0195312 2.160156 -0.277344 2.40625 -0.941406 C 2.414062 -0.964844 2.421875 -0.988281 2.421875 -1.003906 C 2.421875 -1.078125 2.367188 -1.125 2.308594 -1.125 C 2.265625 -1.125 2.21875 -1.097656 2.191406 -1.035156 Z M 0.761719 -0.257812 C 0.550781 -0.257812 0.398438 -0.410156 0.398438 -0.742188 C 0.398438 -1.207031 0.699219 -1.507812 0.996094 -1.507812 C 1.125 -1.507812 1.253906 -1.4375 1.292969 -1.375 C 1.304688 -0.675781 1.070312 -0.257812 0.761719 -0.257812 Z M 0.761719 -0.257812" transform="translate(20.817 27.624)"/></g></g></g><g fill="#F41BF1"><g><g><path d="M 1.992188 -1.035156 C 1.765625 -0.492188 1.652344 -0.277344 1.535156 -0.277344 C 1.46875 -0.277344 1.421875 -0.320312 1.421875 -0.425781 C 1.421875 -0.710938 1.496094 -1.148438 1.496094 -1.355469 C 1.496094 -1.601562 1.332031 -1.765625 1.085938 -1.765625 C 0.855469 -1.765625 0.636719 -1.632812 0.46875 -1.378906 C 0.476562 -1.472656 0.484375 -1.558594 0.484375 -1.613281 C 0.484375 -1.710938 0.417969 -1.761719 0.347656 -1.761719 C 0.277344 -1.761719 0.199219 -1.707031 0.191406 -1.609375 C 0.160156 -1.257812 0.109375 -0.492188 0.109375 -0.140625 C 0.109375 -0.0429688 0.183594 0.00390625 0.253906 0.00390625 C 0.328125 0.00390625 0.40625 -0.0429688 0.40625 -0.140625 C 0.40625 -0.296875 0.410156 -0.46875 0.417969 -0.640625 C 0.476562 -1.132812 0.773438 -1.496094 1.015625 -1.496094 C 1.132812 -1.496094 1.199219 -1.421875 1.199219 -1.285156 C 1.199219 -1.132812 1.128906 -0.730469 1.128906 -0.453125 C 1.128906 -0.148438 1.277344 0 1.492188 0 C 1.742188 0 1.917969 -0.214844 2.207031 -0.941406 C 2.214844 -0.964844 2.21875 -0.988281 2.21875 -1.003906 C 2.21875 -1.078125 2.167969 -1.125 2.109375 -1.125 C 2.0625 -1.125 2.019531 -1.097656 1.992188 -1.035156 Z M 1.992188 -1.035156" transform="translate(22.863 27.624)"/></g></g></g><g fill="#F41BF1"><g><g><path d="M 2.191406 -1.035156 C 1.980469 -0.507812 1.835938 -0.257812 1.722656 -0.257812 C 1.628906 -0.257812 1.558594 -0.332031 1.558594 -0.589844 C 1.558594 -1.027344 1.621094 -1.546875 1.621094 -1.640625 C 1.621094 -1.734375 1.558594 -1.792969 1.480469 -1.792969 C 1.40625 -1.792969 1.347656 -1.734375 1.316406 -1.644531 C 1.199219 -1.730469 1.058594 -1.769531 0.941406 -1.769531 C 0.523438 -1.769531 0.105469 -1.347656 0.105469 -0.730469 C 0.105469 -0.253906 0.375 0.0195312 0.714844 0.0195312 C 0.917969 0.0195312 1.117188 -0.0742188 1.292969 -0.347656 C 1.359375 -0.101562 1.503906 0.0195312 1.703125 0.0195312 C 1.960938 0.0195312 2.160156 -0.277344 2.40625 -0.941406 C 2.414062 -0.964844 2.421875 -0.988281 2.421875 -1.003906 C 2.421875 -1.078125 2.367188 -1.125 2.308594 -1.125 C 2.265625 -1.125 2.21875 -1.097656 2.191406 -1.035156 Z M 0.761719 -0.257812 C 0.550781 -0.257812 0.398438 -0.410156 0.398438 -0.742188 C 0.398438 -1.207031 0.699219 -1.507812 0.996094 -1.507812 C 1.125 -1.507812 1.253906 -1.4375 1.292969 -1.375 C 1.304688 -0.675781 1.070312 -0.257812 0.761719 -0.257812 Z M 0.761719 -0.257812" transform="translate(24.71 27.624)"/></g></g></g><g fill="#F41BF1"><g><g><path d="M 0.449219 -2.007812 C 0.546875 -2.007812 0.621094 -2.082031 0.621094 -2.179688 C 0.621094 -2.277344 0.546875 -2.351562 0.449219 -2.351562 C 0.351562 -2.351562 0.277344 -2.277344 0.277344 -2.179688 C 0.277344 -2.082031 0.351562 -2.007812 0.449219 -2.007812 Z M 0.585938 0.0195312 C 0.859375 0.0195312 1.089844 -0.265625 1.339844 -0.941406 C 1.347656 -0.964844 1.351562 -0.988281 1.351562 -1.003906 C 1.351562 -1.082031 1.300781 -1.132812 1.242188 -1.132812 C 1.195312 -1.132812 1.152344 -1.101562 1.125 -1.035156 C 0.90625 -0.5 0.769531 -0.257812 0.621094 -0.257812 C 0.515625 -0.257812 0.421875 -0.351562 0.421875 -0.667969 C 0.421875 -0.859375 0.445312 -1.09375 0.519531 -1.59375 C 0.539062 -1.707031 0.460938 -1.773438 0.386719 -1.773438 C 0.316406 -1.773438 0.246094 -1.726562 0.222656 -1.605469 C 0.179688 -1.355469 0.128906 -0.925781 0.128906 -0.695312 C 0.128906 -0.171875 0.328125 0.0195312 0.585938 0.0195312 Z M 0.585938 0.0195312" transform="translate(26.756 27.624)"/></g></g></g><g fill="#F41BF1"><g><g><path d="M 1.992188 -1.035156 C 1.765625 -0.492188 1.652344 -0.277344 1.535156 -0.277344 C 1.46875 -0.277344 1.421875 -0.320312 1.421875 -0.425781 C 1.421875 -0.710938 1.496094 -1.148438 1.496094 -1.355469 C 1.496094 -1.601562 1.332031 -1.765625 1.085938 -1.765625 C 0.855469 -1.765625 0.636719 -1.632812 0.46875 -1.378906 C 0.476562 -1.472656 0.484375 -1.558594 0.484375 -1.613281 C 0.484375 -1.710938 0.417969 -1.761719 0.347656 -1.761719 C 0.277344 -1.761719 0.199219 -1.707031 0.191406 -1.609375 C 0.160156 -1.257812 0.109375 -0.492188 0.109375 -0.140625 C 0.109375 -0.0429688 0.183594 0.00390625 0.253906 0.00390625 C 0.328125 0.00390625 0.40625 -0.0429688 0.40625 -0.140625 C 0.40625 -0.296875 0.410156 -0.46875 0.417969 -0.640625 C 0.476562 -1.132812 0.773438 -1.496094 1.015625 -1.496094 C 1.132812 -1.496094 1.199219 -1.421875 1.199219 -1.285156 C 1.199219 -1.132812 1.128906 -0.730469 1.128906 -0.453125 C 1.128906 -0.148438 1.277344 0 1.492188 0 C 1.742188 0 1.917969 -0.214844 2.207031 -0.941406 C 2.214844 -0.964844 2.21875 -0.988281 2.21875 -1.003906 C 2.21875 -1.078125 2.167969 -1.125 2.109375 -1.125 C 2.0625 -1.125 2.019531 -1.097656 1.992188 -1.035156 Z M 1.992188 -1.035156" transform="translate(27.735 27.624)"/></g></g></g><g fill="#F41BF1"><g><g><path d="M 2.191406 -1.035156 C 1.980469 -0.507812 1.835938 -0.257812 1.722656 -0.257812 C 1.628906 -0.257812 1.558594 -0.332031 1.558594 -0.589844 C 1.558594 -1.027344 1.621094 -1.546875 1.621094 -1.640625 C 1.621094 -1.734375 1.558594 -1.792969 1.480469 -1.792969 C 1.40625 -1.792969 1.347656 -1.734375 1.316406 -1.644531 C 1.199219 -1.730469 1.058594 -1.769531 0.941406 -1.769531 C 0.523438 -1.769531 0.105469 -1.347656 0.105469 -0.730469 C 0.105469 -0.253906 0.375 0.0195312 0.714844 0.0195312 C 0.917969 0.0195312 1.117188 -0.0742188 1.292969 -0.347656 C 1.359375 -0.101562 1.503906 0.0195312 1.703125 0.0195312 C 1.960938 0.0195312 2.160156 -0.277344 2.40625 -0.941406 C 2.414062 -0.964844 2.421875 -0.988281 2.421875 -1.003906 C 2.421875 -1.078125 2.367188 -1.125 2.308594 -1.125 C 2.265625 -1.125 2.21875 -1.097656 2.191406 -1.035156 Z M 0.761719 -0.257812 C 0.550781 -0.257812 0.398438 -0.410156 0.398438 -0.742188 C 0.398438 -1.207031 0.699219 -1.507812 0.996094 -1.507812 C 1.125 -1.507812 1.253906 -1.4375 1.292969 -1.375 C 1.304688 -0.675781 1.070312 -0.257812 0.761719 -0.257812 Z M 0.761719 -0.257812" transform="translate(29.581 27.624)"/></g></g></g><g fill="#F41BF1"><g><g><path d="M 1.511719 0.0390625 C 1.996094 0.0390625 2.4375 -0.238281 2.71875 -0.941406 C 2.726562 -0.964844 2.730469 -0.984375 2.730469 -1 C 2.730469 -1.070312 2.671875 -1.125 2.617188 -1.125 C 2.574219 -1.125 2.53125 -1.097656 2.503906 -1.035156 C 2.261719 -0.457031 1.914062 -0.238281 1.539062 -0.238281 C 1.085938 -0.238281 0.726562 -0.601562 0.726562 -1.226562 C 0.726562 -2.011719 1.179688 -2.882812 1.75 -2.882812 C 1.960938 -2.882812 2.082031 -2.761719 2.082031 -2.59375 C 2.082031 -2.425781 1.988281 -2.316406 1.988281 -2.199219 C 1.988281 -2.136719 2.03125 -2.089844 2.113281 -2.089844 C 2.175781 -2.089844 2.222656 -2.136719 2.265625 -2.199219 C 2.335938 -2.3125 2.371094 -2.496094 2.371094 -2.601562 C 2.371094 -2.925781 2.132812 -3.164062 1.753906 -3.164062 C 0.960938 -3.164062 0.414062 -2.152344 0.414062 -1.25 C 0.414062 -0.414062 0.890625 0.0390625 1.511719 0.0390625 Z M 1.511719 0.0390625" transform="translate(32.495 27.624)"/></g></g></g><g fill="#F41BF1"><g><g><path d="M 1.929688 -1.035156 C 1.839844 -0.828125 1.726562 -0.699219 1.574219 -0.648438 C 1.613281 -0.765625 1.632812 -0.898438 1.632812 -1.035156 C 1.632812 -1.40625 1.46875 -1.667969 1.25 -1.753906 C 1.171875 -1.785156 1.050781 -1.816406 0.941406 -1.816406 C 0.472656 -1.816406 0.0976562 -1.351562 0.0976562 -0.757812 C 0.0976562 -0.285156 0.359375 0.0078125 0.769531 0.0078125 C 1.054688 0.0078125 1.292969 -0.136719 1.449219 -0.375 C 1.730469 -0.394531 2 -0.582031 2.144531 -0.941406 C 2.152344 -0.96875 2.15625 -0.996094 2.15625 -1.019531 C 2.15625 -1.09375 2.109375 -1.144531 2.050781 -1.144531 C 2.011719 -1.144531 1.960938 -1.113281 1.929688 -1.035156 Z M 1.269531 -0.636719 C 1.070312 -0.691406 0.910156 -0.867188 0.910156 -1.152344 C 0.910156 -1.378906 0.984375 -1.503906 1.097656 -1.503906 C 1.25 -1.503906 1.339844 -1.320312 1.339844 -1.03125 C 1.339844 -0.886719 1.3125 -0.746094 1.269531 -0.636719 Z M 0.777344 -0.265625 C 0.507812 -0.265625 0.390625 -0.503906 0.390625 -0.769531 C 0.390625 -1.046875 0.511719 -1.355469 0.730469 -1.484375 C 0.675781 -1.386719 0.644531 -1.269531 0.644531 -1.132812 C 0.644531 -0.761719 0.855469 -0.511719 1.125 -0.414062 C 1.03125 -0.320312 0.910156 -0.265625 0.777344 -0.265625 Z M 0.777344 -0.265625" transform="translate(34.853 27.624)"/></g></g></g><g fill="#F41BF1"><g><g><path d="M 1.632812 -1.035156 C 1.542969 -0.828125 1.4375 -0.636719 1.28125 -0.503906 C 1.285156 -0.523438 1.285156 -0.546875 1.285156 -0.570312 C 1.285156 -0.992188 0.792969 -1.4375 0.792969 -1.621094 C 0.792969 -1.703125 0.875 -1.738281 0.875 -1.832031 C 0.875 -1.945312 0.769531 -2.007812 0.664062 -2.007812 C 0.542969 -2.007812 0.414062 -1.921875 0.410156 -1.730469 C 0.324219 -1.484375 0.222656 -1.21875 0.148438 -1.035156 C 0.136719 -1.019531 0.132812 -0.996094 0.132812 -0.980469 C 0.132812 -0.910156 0.191406 -0.859375 0.253906 -0.859375 C 0.292969 -0.859375 0.339844 -0.886719 0.359375 -0.941406 C 0.417969 -1.085938 0.476562 -1.242188 0.542969 -1.421875 C 0.714844 -1.15625 0.992188 -0.808594 0.992188 -0.570312 C 0.992188 -0.453125 0.949219 -0.363281 0.871094 -0.320312 C 0.832031 -0.316406 0.792969 -0.3125 0.75 -0.3125 C 0.660156 -0.3125 0.582031 -0.328125 0.492188 -0.363281 C 0.46875 -0.375 0.445312 -0.378906 0.421875 -0.378906 C 0.339844 -0.378906 0.285156 -0.316406 0.285156 -0.238281 C 0.285156 -0.1875 0.3125 -0.128906 0.375 -0.0859375 C 0.460938 -0.0234375 0.585938 0.0117188 0.710938 0.0117188 C 0.84375 0.0117188 0.980469 -0.0273438 1.085938 -0.105469 C 1.40625 -0.21875 1.65625 -0.472656 1.847656 -0.941406 C 1.855469 -0.964844 1.859375 -0.988281 1.859375 -1.011719 C 1.859375 -1.082031 1.804688 -1.128906 1.75 -1.128906 C 1.703125 -1.128906 1.660156 -1.101562 1.632812 -1.035156 Z M 1.632812 -1.035156" transform="translate(36.637 27.624)"/></g></g></g><g fill="#F41BF1"><g><g><path d="M 1.351562 -1.035156 C 1.1875 -0.617188 0.980469 -0.28125 0.710938 -0.28125 C 0.507812 -0.28125 0.40625 -0.417969 0.40625 -0.71875 C 0.40625 -0.902344 0.441406 -1.214844 0.488281 -1.511719 C 0.503906 -1.582031 0.519531 -1.71875 0.542969 -1.878906 C 0.765625 -1.855469 0.921875 -1.824219 0.972656 -1.824219 C 1.046875 -1.824219 1.089844 -1.886719 1.089844 -1.949219 C 1.089844 -2 1.058594 -2.050781 0.988281 -2.070312 C 0.851562 -2.105469 0.714844 -2.121094 0.578125 -2.136719 C 0.609375 -2.394531 0.640625 -2.648438 0.640625 -2.734375 C 0.640625 -2.824219 0.585938 -2.882812 0.503906 -2.882812 C 0.414062 -2.882812 0.351562 -2.828125 0.347656 -2.742188 C 0.339844 -2.542969 0.316406 -2.34375 0.289062 -2.152344 L 0.136719 -2.152344 C 0.0351562 -2.152344 -0.0117188 -2.089844 -0.0117188 -2.027344 C -0.0117188 -1.960938 0.0351562 -1.898438 0.128906 -1.898438 L 0.253906 -1.898438 C 0.234375 -1.773438 0.21875 -1.660156 0.199219 -1.558594 C 0.152344 -1.246094 0.109375 -0.941406 0.109375 -0.742188 C 0.109375 -0.265625 0.3125 -0.00390625 0.691406 -0.00390625 C 1.125 -0.00390625 1.398438 -0.476562 1.566406 -0.941406 C 1.574219 -0.96875 1.578125 -0.992188 1.578125 -1.015625 C 1.578125 -1.089844 1.53125 -1.140625 1.472656 -1.140625 C 1.429688 -1.140625 1.378906 -1.109375 1.351562 -1.035156 Z M 1.351562 -1.035156" transform="translate(38.123 27.624)"/></g></g></g><g fill="#F41BF1"><g><g><path d="M 2.191406 -1.035156 C 1.980469 -0.507812 1.835938 -0.257812 1.722656 -0.257812 C 1.628906 -0.257812 1.558594 -0.332031 1.558594 -0.589844 C 1.558594 -1.027344 1.621094 -1.546875 1.621094 -1.640625 C 1.621094 -1.734375 1.558594 -1.792969 1.480469 -1.792969 C 1.40625 -1.792969 1.347656 -1.734375 1.316406 -1.644531 C 1.199219 -1.730469 1.058594 -1.769531 0.941406 -1.769531 C 0.523438 -1.769531 0.105469 -1.347656 0.105469 -0.730469 C 0.105469 -0.253906 0.375 0.0195312 0.714844 0.0195312 C 0.917969 0.0195312 1.117188 -0.0742188 1.292969 -0.347656 C 1.359375 -0.101562 1.503906 0.0195312 1.703125 0.0195312 C 1.960938 0.0195312 2.160156 -0.277344 2.40625 -0.941406 C 2.414062 -0.964844 2.421875 -0.988281 2.421875 -1.003906 C 2.421875 -1.078125 2.367188 -1.125 2.308594 -1.125 C 2.265625 -1.125 2.21875 -1.097656 2.191406 -1.035156 Z M 0.761719 -0.257812 C 0.550781 -0.257812 0.398438 -0.410156 0.398438 -0.742188 C 0.398438 -1.207031 0.699219 -1.507812 0.996094 -1.507812 C 1.125 -1.507812 1.253906 -1.4375 1.292969 -1.375 C 1.304688 -0.675781 1.070312 -0.257812 0.761719 -0.257812 Z M 0.761719 -0.257812" transform="translate(39.328 27.624)"/></g></g></g><g fill="#F41BF1"><g><g><path d="M 2.546875 -0.484375 L 0.203125 -1.515625 L 0.203125 -1.84375 L 2.546875 -3.015625 L 2.546875 -2.453125 L 0.9375 -1.703125 L 2.546875 -1.046875 Z M 2.546875 -0.484375" transform="translate(14.8 27.806)"/></g></g></g><g fill="#F41BF1"><g><g><path d="M -2.046875 0.390625 L -0.171875 1.21875 L -0.171875 1.484375 L -2.046875 2.4375 L -2.046875 1.96875 L -0.75 1.375 L -2.046875 0.84375 Z M -2.046875 0.390625" transform="translate(47.184 24.386)"/></g></g><g><g><path d="M -1.59375 2.78125 L -0.546875 0 L -0.03125 0 L -1.0625 2.78125 Z M -1.59375 2.78125" transform="translate(44.964 24.386)"/></g></g></g></svg>