<svg xmlns="http://www.w3.org/2000/svg" width="30" viewBox="0 0 30 30" height="30" version="1.0"><defs><clipPath id="a"><path d="M 0.484375 0 L 9 0 L 9 8 L 0.484375 8 Z M 0.484375 0"/></clipPath><clipPath id="b"><path d="M 0.484375 9 L 9 9 L 9 29.03125 L 0.484375 29.03125 Z M 0.484375 9"/></clipPath><clipPath id="c"><path d="M 9 9 L 29.515625 9 L 29.515625 29.03125 L 9 29.03125 Z M 9 9"/></clipPath></defs><g clip-path="url(#a)"><path fill="#9545ED" d="M 4.441406 2.640625 C 3.714844 2.640625 3.125 3.230469 3.125 3.957031 C 3.125 4.6875 3.714844 5.277344 4.441406 5.277344 C 5.171875 5.277344 5.761719 4.6875 5.761719 3.957031 C 5.761719 3.230469 5.171875 2.640625 4.441406 2.640625 Z M 0.484375 3.957031 C 0.484375 1.773438 2.257812 0 4.441406 0 C 6.628906 0 8.402344 1.773438 8.402344 3.957031 C 8.402344 6.144531 6.628906 7.917969 4.441406 7.917969 C 2.257812 7.917969 0.484375 6.144531 0.484375 3.957031 Z M 0.484375 3.957031" fill-rule="evenodd"/></g><g clip-path="url(#b)"><path fill="#A63FD6" d="M 0.484375 10.558594 C 0.484375 9.828125 1.074219 9.238281 1.804688 9.238281 L 7.082031 9.238281 C 7.8125 9.238281 8.402344 9.828125 8.402344 10.558594 L 8.402344 27.710938 C 8.402344 28.441406 7.8125 29.03125 7.082031 29.03125 L 1.804688 29.03125 C 1.074219 29.03125 0.484375 28.441406 0.484375 27.710938 Z M 3.125 11.875 L 3.125 26.394531 L 5.761719 26.394531 L 5.761719 11.875 Z M 3.125 11.875" fill-rule="evenodd"/></g><g clip-path="url(#c)"><path fill="#A63FD6" d="M 9.722656 10.558594 C 9.722656 9.828125 10.3125 9.238281 11.042969 9.238281 L 16.320312 9.238281 C 17.046875 9.238281 17.632812 9.824219 17.640625 10.550781 L 17.640625 11.039062 L 18.148438 10.617188 C 19.214844 9.726562 20.5625 9.238281 21.953125 9.238281 L 22.257812 9.238281 C 26.265625 9.238281 29.515625 12.488281 29.515625 16.496094 L 29.515625 27.710938 C 29.515625 28.441406 28.925781 29.03125 28.195312 29.03125 L 22.917969 29.03125 C 22.1875 29.03125 21.597656 28.441406 21.597656 27.710938 L 21.597656 19.792969 C 21.597656 18.703125 20.710938 17.816406 19.617188 17.816406 C 18.527344 17.816406 17.640625 18.703125 17.640625 19.792969 L 17.640625 27.710938 C 17.640625 28.441406 17.046875 29.03125 16.320312 29.03125 L 11.042969 29.03125 C 10.3125 29.03125 9.722656 28.441406 9.722656 27.710938 Z M 12.359375 11.875 L 12.359375 26.394531 L 15 26.394531 L 15 19.792969 C 15 17.242188 17.066406 15.175781 19.617188 15.175781 C 22.167969 15.175781 24.238281 17.242188 24.238281 19.792969 L 24.238281 26.394531 L 26.875 26.394531 L 26.875 16.496094 C 26.875 13.945312 24.808594 11.875 22.257812 11.875 L 21.953125 11.875 C 21.179688 11.875 20.433594 12.148438 19.839844 12.644531 L 17.1875 14.859375 C 16.792969 15.1875 16.25 15.261719 15.785156 15.046875 C 15.320312 14.832031 15.023438 14.367188 15.019531 13.855469 L 15.007812 11.875 Z M 12.359375 11.875" fill-rule="evenodd"/></g></svg>